/* XPM */
static char * 043_xpm[] = {
"64 64 256 2",
"  	c #000000",
". 	c #0000FF",
"+ 	c #00FF00",
"@ 	c #FF0000",
"# 	c #00FFFF",
"$ 	c #FFFF00",
"% 	c #FF00FF",
"& 	c #FFFFFF",
"* 	c #7B7B7B",
"= 	c #7B7B7B",
"- 	c #7B7B7B",
"; 	c #7B7B7B",
"> 	c #7B7B7B",
", 	c #7B7B7B",
"' 	c #7B7B7B",
") 	c #7B7B7B",
"! 	c #7B7B7B",
"~ 	c #7B7B7B",
"{ 	c #7B7B7B",
"] 	c #7B7B7B",
"^ 	c #7B7B7B",
"/ 	c #7B7B7B",
"( 	c #7B7B7B",
"_ 	c #7B7B7B",
": 	c #7B7B7B",
"< 	c #7B7B7B",
"[ 	c #7B7B7B",
"} 	c #7B7B7B",
"| 	c #7B7B7B",
"1 	c #7B7B7B",
"2 	c #7B7B7B",
"3 	c #7B7B7B",
"4 	c #7B7B7B",
"5 	c #7B7B7B",
"6 	c #7B7B7B",
"7 	c #7B7B7B",
"8 	c #7B7B7B",
"9 	c #7B7B7B",
"0 	c #7B7B7B",
"a 	c #7B7B7B",
"b 	c #7B7B7B",
"c 	c #7B7B7B",
"d 	c #7B7B7B",
"e 	c #7B7B7B",
"f 	c #7B7B7B",
"g 	c #7B7B7B",
"h 	c #7B7B7B",
"i 	c #7B7B7B",
"j 	c #7B7B7B",
"k 	c #7B7B7B",
"l 	c #7B7B7B",
"m 	c #7B7B7B",
"n 	c #7B7B7B",
"o 	c #7B7B7B",
"p 	c #7B7B7B",
"q 	c #7B7B7B",
"r 	c #7B7B7B",
"s 	c #7B7B7B",
"t 	c #7B7B7B",
"u 	c #7B7B7B",
"v 	c #7B7B7B",
"w 	c #7B7B7B",
"x 	c #7B7B7B",
"y 	c #7B7B7B",
"z 	c #7B7B7B",
"A 	c #7B7B7B",
"B 	c #7B7B7B",
"C 	c #7B7B7B",
"D 	c #7B7B7B",
"E 	c #7B7B7B",
"F 	c #7B7B7B",
"G 	c #7B7B7B",
"H 	c #7B7B7B",
"I 	c #7B7B7B",
"J 	c #7B7B7B",
"K 	c #7B7B7B",
"L 	c #7B7B7B",
"M 	c #7B7B7B",
"N 	c #7B7B7B",
"O 	c #7B7B7B",
"P 	c #7B7B7B",
"Q 	c #7B7B7B",
"R 	c #7B7B7B",
"S 	c #7B7B7B",
"T 	c #7B7B7B",
"U 	c #7B7B7B",
"V 	c #7B7B7B",
"W 	c #7B7B7B",
"X 	c #7B7B7B",
"Y 	c #7B7B7B",
"Z 	c #7B7B7B",
"` 	c #7B7B7B",
" .	c #7B7B7B",
"..	c #7B7B7B",
"+.	c #7B7B7B",
"@.	c #7B7B7B",
"#.	c #7B7B7B",
"$.	c #7B7B7B",
"%.	c #7B7B7B",
"&.	c #7B7B7B",
"*.	c #7B7B7B",
"=.	c #7B7B7B",
"-.	c #7B7B7B",
";.	c #7B7B7B",
">.	c #7B7B7B",
",.	c #7B7B7B",
"'.	c #7B7B7B",
").	c #7B7B7B",
"!.	c #7B7B7B",
"~.	c #7B7B7B",
"{.	c #7B7B7B",
"].	c #7B7B7B",
"^.	c #7B7B7B",
"/.	c #7B7B7B",
"(.	c #7B7B7B",
"_.	c #7B7B7B",
":.	c #7B7B7B",
"<.	c #7B7B7B",
"[.	c #7B7B7B",
"}.	c #7B7B7B",
"|.	c #7B7B7B",
"1.	c #7B7B7B",
"2.	c #7B7B7B",
"3.	c #7B7B7B",
"4.	c #7B7B7B",
"5.	c #7B7B7B",
"6.	c #7B7B7B",
"7.	c #7B7B7B",
"8.	c #7B7B7B",
"9.	c #7B7B7B",
"0.	c #7B7B7B",
"a.	c #7B7B7B",
"b.	c #7B7B7B",
"c.	c #7B7B7B",
"d.	c #7B7B7B",
"e.	c #7B7B7B",
"f.	c #7B7B7B",
"g.	c #7B7B7B",
"h.	c #7B7B7B",
"i.	c #7B7B7B",
"j.	c #7B7B7B",
"k.	c #7B7B7B",
"l.	c #7B7B7B",
"m.	c #7B7B7B",
"n.	c #7B7B7B",
"o.	c #7B7B7B",
"p.	c #7B7B7B",
"q.	c #7B7B7B",
"r.	c #7B7B7B",
"s.	c #7B7B7B",
"t.	c #7B7B7B",
"u.	c #7B7B7B",
"v.	c #7B7B7B",
"w.	c #7B7B7B",
"x.	c #7B7B7B",
"y.	c #7B7B7B",
"z.	c #7B7B7B",
"A.	c #7B7B7B",
"B.	c #7B7B7B",
"C.	c #7B7B7B",
"D.	c #7B7B7B",
"E.	c #7B7B7B",
"F.	c #7B7B7B",
"G.	c #7B7B7B",
"H.	c #7B7B7B",
"I.	c #7B7B7B",
"J.	c #7B7B7B",
"K.	c #7B7B7B",
"L.	c #7B7B7B",
"M.	c #7B7B7B",
"N.	c #7B7B7B",
"O.	c #7B7B7B",
"P.	c #7B7B7B",
"Q.	c #7B7B7B",
"R.	c #7B7B7B",
"S.	c #7B7B7B",
"T.	c #7B7B7B",
"U.	c #7B7B7B",
"V.	c #7B7B7B",
"W.	c #7B7B7B",
"X.	c #7B7B7B",
"Y.	c #7B7B7B",
"Z.	c #7B7B7B",
"`.	c #7B7B7B",
" +	c #7B7B7B",
".+	c #7B7B7B",
"++	c #7B7B7B",
"@+	c #7B7B7B",
"#+	c #7B7B7B",
"$+	c #7B7B7B",
"%+	c #7B7B7B",
"&+	c #7B7B7B",
"*+	c #7B7B7B",
"=+	c #7B7B7B",
"-+	c #7B7B7B",
";+	c #7B7B7B",
">+	c #7B7B7B",
",+	c #7B7B7B",
"'+	c #7B7B7B",
")+	c #7B7B7B",
"!+	c #7B7B7B",
"~+	c #7B7B7B",
"{+	c #7B7B7B",
"]+	c #7B7B7B",
"^+	c #7B7B7B",
"/+	c #7B7B7B",
"(+	c #7B7B7B",
"_+	c #7B7B7B",
":+	c #7B7B7B",
"<+	c #7B7B7B",
"[+	c #7B7B7B",
"}+	c #7B7B7B",
"|+	c #7B7B7B",
"1+	c #7B7B7B",
"2+	c #7B7B7B",
"3+	c #7B7B7B",
"4+	c #7B7B7B",
"5+	c #7B7B7B",
"6+	c #7B7B7B",
"7+	c #7B7B7B",
"8+	c #7B7B7B",
"9+	c #7B7B7B",
"0+	c #7B7B7B",
"a+	c #7B7B7B",
"b+	c #7B7B7B",
"c+	c #7B7B7B",
"d+	c #7B7B7B",
"e+	c #7B7B7B",
"f+	c #7B7B7B",
"g+	c #7B7B7B",
"h+	c #7B7B7B",
"i+	c #7B7B7B",
"j+	c #7B7B7B",
"k+	c #BD7B4A",
"l+	c #8B5A31",
"m+	c #CD7B4A",
"n+	c #7B5229",
"o+	c #E69C6A",
"p+	c #102008",
"q+	c #6A4120",
"r+	c #392910",
"s+	c #292929",
"t+	c #AC6A41",
"u+	c #312910",
"v+	c #4A3118",
"w+	c #734A29",
"x+	c #D58B5A",
"y+	c #4A3920",
"z+	c #523918",
"A+	c #5A4120",
"B+	c #B47341",
"C+	c #835231",
"D+	c #DE9462",
"E+	c #292008",
"F+	c #181818",
"G+	c #9C6239",
"F+s+s+s+s+s+s+s+s+s+s+s+s+s+s+s+s+s+s+s+s+s+s+s+s+s+s+s+s+s+s+s+s+s+s+s+s+s+s+s+s+s+s+s+s+s+s+s+s+s+s+s+s+s+s+s+s+s+s+s+s+s+s+s+",
"F+s+s+s+s+s+s+s+s+s+s+s+s+s+s+s+s+s+s+s+s+s+s+s+s+s+s+s+s+s+s+s+s+s+s+s+s+s+s+s+s+s+s+s+s+s+s+s+s+s+s+s+s+s+s+s+s+s+s+s+s+s+s+s+",
"F+s+s+s+s+s+s+s+s+s+s+s+s+s+s+s+s+s+s+s+s+s+s+s+s+s+s+s+s+s+s+s+s+s+s+s+s+s+s+s+s+s+s+s+s+s+s+s+s+s+s+s+s+s+s+s+s+s+s+s+s+s+s+s+",
"F+s+s+s+s+s+s+s+s+s+s+s+s+s+s+s+s+s+s+s+s+s+s+s+s+s+s+s+s+s+s+s+s+s+s+s+s+s+s+s+s+s+s+s+s+s+s+s+s+s+s+s+s+s+s+s+s+s+s+s+s+s+s+s+",
"F+s+s+s+s+s+s+s+s+s+s+s+s+s+s+s+s+s+s+s+s+s+s+s+s+s+s+s+s+s+s+s+s+s+s+s+s+s+s+s+s+s+s+s+s+s+s+s+s+s+s+s+s+s+s+s+s+s+s+s+s+s+s+s+",
"F+s+s+s+s+s+s+s+s+s+s+s+s+s+s+s+s+s+s+s+s+s+s+s+s+s+s+s+s+s+s+s+s+s+s+s+s+s+s+s+s+s+s+s+s+s+s+s+s+s+s+s+s+s+s+s+s+s+s+s+s+s+s+s+",
"F+s+s+s+s+s+s+s+F+F+F+F+F+F+F+F+F+F+F+F+F+F+F+F+F+F+F+F+F+F+F+F+F+F+F+F+F+F+F+F+F+F+F+F+F+F+F+F+F+F+F+F+F+F+F+F+F+s+s+s+s+s+s+s+",
"F+s+s+s+s+s+s+s+F+                                                                                              F+s+s+s+s+s+s+s+",
"F+s+s+s+s+s+s+s+F+                      F+    F+    F+  s+F+  F+E+F+  F+F+  F+  F+    s+F+  F+F+  F+            F+s+s+s+s+s+s+s+",
"F+s+s+s+s+s+s+s+F+                            F+        F+    F+F+F+  F+F+  F+F+F+  F+F+F+              p+      F+s+s+s+s+s+s+s+",
"F+s+s+s+s+s+s+s+F+                                      s+    F+      F+            F+s+F+                      F+s+s+s+s+s+s+s+",
"F+s+s+s+s+s+s+s+F+                                      s+    F+F+    F+              F+F+                      F+s+s+s+s+s+s+s+",
"F+s+s+s+s+s+s+s+F+  F+        F+                  F+      s+s+  w+F+F+      w+  y+F+  *   s+y+  w+F+p+w+  F+F+  F+s+s+s+s+s+s+s+",
"F+s+s+s+s+s+s+s+F+u+F+F+        w+F+s+s+p+        w+y+    * F+      F+F+  s+*   * s+s+* F+s+w+F+* s+s+* F+s+u+  F+s+s+s+s+s+s+s+",
"F+s+s+s+s+s+s+s+F+p+p+  F+F+    y+s+p+s+F+        s+s+    y+F+        p+p+            p+        F+              F+s+s+s+s+s+s+s+",
"F+s+s+s+s+s+s+s+F+s+F+  y+w+y+  F+y+y+s+          w+s+  p+y+            F+F+  F+                                F+s+s+s+s+s+s+s+",
"F+s+s+s+s+s+s+s+F+w+s+  * y+*   s+* * w+  p+  p+  * *   u+* p+  p+p+    F+s+p+s+          p+    p+p+p+p+p+      F+s+s+s+s+s+s+s+",
"F+s+s+s+s+s+s+s+F+s+F+  s+s+w+  F+s+s+s+      p+  * *   s+*   p+* p+w+* F+s+p+p+  p+p+p+p+p+p+p+p+p+p+p+p+      F+s+s+s+s+s+s+s+",
"F+s+s+s+s+s+s+s+F+y+E+p+n+z+*   y+n+n+A+  p+F+s+  * *   * *   F+& F+* * s+w+  p+  u+p+p+p+u+p+u+u+u+u+y+u+s+    F+s+s+s+s+s+s+s+",
"F+s+s+s+s+s+s+s+F+G+y+p+o+* o+p+w+o+o+*   p+  * s+& *   * o+F+s+&   * o+F+w+F+u+F+y+  & *   y+p+u+p+u+u+u+s+    F+s+s+s+s+s+s+s+",
"F+s+s+s+s+s+s+s+F+* y+  o+D+& F+w+o+o+* s+p+  o+s+o+*   * & p+u+*   * o+p+w+p+y+F+p+  * F+y+p+w+  y+p+p+p+p+    F+s+s+s+s+s+s+s+",
"F+s+s+s+s+s+s+s+F+v+p+  A+y+w+p+u+y+w+y+p+y+p+p+  p+y+p+y+n+  p+w+s+s+  s+y+s+y+p+p+  s+y+F+A+p+y+y+s+p+y+s+    F+s+s+s+s+s+s+s+",
"F+s+s+s+s+s+s+s+F+s+s+p+u+* * * y+* p+* p+p+u+p+p+* p+p+* &   y+& y+F+F+s+y+s+y+F+p+  *   p+y+  * *   y+u+      F+s+s+s+s+s+s+s+",
"F+s+s+s+s+s+s+s+F+p+p+w+p+w+y+* F+* p+* p+p+u+p+p+* w+y+* o+  y+o+p+& *   * * F+* y+y+* p+* * s+* y+w+* F+* y+F+F+s+s+s+s+s+s+s+",
"F+s+s+s+s+s+s+s+F+u+p+*   p+p+u+u+p+p+* F+p+p+u+n+* w+y+w+o+  * o+p+o+w+  * o+  & * * & p+* * y+& y+* &   * * s+F+s+s+s+s+s+s+s+",
"F+s+s+s+s+s+s+s+F+F+y+w+* w+w+* * * s+* * w+* * s+* * * y+&   w+& p+& *   * *   * E+s+D+  C+G+p+& F+w+o+  w+v+p+F+s+s+s+s+s+s+s+",
"F+s+s+s+s+s+s+s+F+      p+p+p+p+s+p+p+F+s+p+p+s+A+* n+*   y+  F+n+p+o+y+u+p+                                    F+s+s+s+s+s+s+s+",
"F+s+s+s+s+s+s+s+F+F+F+F+s+s+F+s+s+s+s+F+s+s+s+  * p+* * p+u+p+A+F+  p+p+p+p+F+F+F+F+F+F+F+F+F+F+                F+s+s+s+s+s+s+s+",
"F+s+s+s+s+s+s+s+F+s+p+F+s+s+F+s+s+p+* F+p+p+p+  * y+w+* u+y+y+u+u+y+y+y+y+s+p+p+F+p+F+p+        p+p+            F+s+s+s+s+s+s+s+",
"F+s+s+s+s+s+s+s+F+p+F+F+s+s+s+s+s+F+* F+p+p+p+  * y+y+* p+* y+u+u+u+p+A+u+p+s+  p+F+  F+  F+F+  F+p+F+F+    p+  F+s+s+s+s+s+s+s+",
"F+s+s+s+s+s+s+s+F+  F+F+s+s+s+u+s+F+* F+s+p+s+  n+* * &   & * A+* p+p+o+s+* *   o+y+w+& p+* * F+& s+* &   * y+  F+s+s+s+s+s+s+s+",
"F+s+s+s+s+s+s+s+F+  p+F+s+p+s+s+s+F+y+F+p+p+s+  * y+* *   * F+* *   s+F+F+F+p+F+p+F+w+y+s+y+y+y+y+s+F+F+* s+  s+F+s+s+s+s+s+s+s+",
"F+s+s+s+s+s+s+s+F+F+F+s+y+y+F+y+w+y+F+y+w+y+y+y+* * * *   o+p+* o+  s+F+p+s+s+F+u+p+s+y+s+s+s+s+y+s+s+p+s+p+  y+F+s+s+s+s+s+s+s+",
"F+s+s+s+s+s+s+s+F+p+p+E+s+s+p+E+s+s+  u+s+s+s+p+* * y+o+  & w+* *   s+F+F+s+p+  * * F+* w+w+s+y+y+w+* s+F+F+p+v+F+s+s+s+s+s+s+s+",
"F+s+s+s+s+s+s+s+F+y+  y+y+  * F+s+*   * F+p+*   o+y+* * s+o+s+    y+p+p+s+p+p+F+F+s+y+w+y+s+* * y+* *   s+F+p+s+F+s+s+s+s+s+s+s+",
"F+s+s+s+s+s+s+s+F+* p+* D+p+* y+y+o+p+* s+s+& y+* & s+w+& * s+F+w+p+p+F+s+F+s+s+F+s+s+u+s+F+* F+F+s+*   p+F+  s+F+s+s+s+s+s+s+s+",
"F+s+s+s+s+s+s+s+F+*   * * u+& u+* o+  * w+F+& F+* * * F+& y+* *   F+  * s+y+*   * s+A+*   * * F+* F+* *   * u+  F+s+s+s+s+s+s+s+",
"F+s+s+s+s+s+s+s+F+y+  y+y+s+* s+* *   * s+  s+  s+  * p+* y+* y+  * F+y+p+  u+  u+    w+  p+u+  y+p+p+u+  p+s+  F+s+s+s+s+s+s+s+",
"F+s+s+s+s+s+s+s+F+w+  w+w+s+o+s+* *   * p+s+* F+* y+* s+* w+A+y+p+& y+w+A+* s+* A+s+s+p+      s+* * y+  s+w+y+F+F+s+s+s+s+s+s+s+",
"F+s+s+s+s+s+s+s+F+F+F+p+p+p+A+p+p+y+s+s+p+s+s+p+p+p+s+p+y+u+y+y+  & s+y+* * F+w+w+s+w+  * y+*   * y+  A+y+  * s+F+s+s+s+s+s+s+s+",
"F+s+s+s+s+s+s+s+F+s+* p+w+* n+* y+s+* * u+w+w+w+* * F+s+*   p+y+  &   C+o+& s+* * * * p+& D+* F+& y+  o+*   *   F+s+s+s+s+s+s+s+",
"F+s+s+s+s+s+s+s+F+F+y+p+y+w+s+* p+u+y+y+u+s+y+s+* y+y+y+y+y+* *   &   y+* & F+* * * *   o+* * F+& s+  * *   *   F+s+s+s+s+s+s+s+",
"F+s+s+s+s+s+s+s+F+p+p+p+s+F+s+s+s+p+p+s+s+s+s+s+s+s+F+* s+F+y+*   o+  s+& & s+y+* * *   & o+*   & s+  o+* F+* F+F+s+s+s+s+s+s+s+",
"F+s+s+s+s+s+s+s+F+F+F+F+s+s+s+s+s+s+s+s+s+s+s+s+s+s+p+A+s+F+s+*   o+    * *   w+* * n+p+w+l+w+  & F+  n+*   *   F+s+s+s+s+s+s+s+",
"F+s+s+s+s+s+s+s+F+F+F+F+s+s+s+s+s+s+s+s+s+s+s+s+s+s+F+o+* F+y+y+  * s+F+w+    * A+* * y+* o+*   o+s+  * *   y+F+F+s+s+s+s+s+s+s+",
"F+s+s+s+s+s+s+s+F+F+s+s+s+u+s+y+y+w+s+s+s+s+s+s+s+s+F+y+s+p+y+y+F+  w+F+*   F+F+  *     y+A+n+F+  *   * *   s+s+F+s+s+s+s+s+s+s+",
"F+s+s+s+s+s+s+s+F+  s+  s+u+w+y+y+* F+s+s+s+s+s+s+s+s+s+s+p+w+y+F+  y+F+A+  F+F+F+*   F+  p+y+y+p+* y+p+*   s+F+F+s+s+s+s+s+s+s+",
"F+s+s+s+s+s+s+s+F+p+F+y+y+s+y+y+y+* s+s+s+s+s+s+s+s+s+s+s+s+y+y+* F+w+F+A+  p+y+* * * y+* * * * s+* *   F+w+p+  F+s+s+s+s+s+s+s+",
"F+s+s+s+s+s+s+s+F+F+F+y+s+w+s+y+s+* s+s+s+s+s+s+s+s+s+s+s+s+s+y+* p+*   *   F+* y+v+y+w+s+y+n+y+p+v+*   y+      F+s+s+s+s+s+s+s+",
"F+s+s+s+s+s+s+s+F+w+F+y+w+y+* * s+s+w+* s+* F+s+s+s+s+s+s+p+y+y+* s+* F+y+A+s+F+F+F+F+F+F+F+F+s+  F+s+  * s+    F+s+s+s+s+s+s+s+",
"F+s+s+s+s+s+s+s+F+w+F+s+y+y+y+y+s+p+w+y+y+* F+s+s+s+s+s+s+p+y+s+p+  y+F+y+* p+F+p+F+F+F+p+p+F+s+  s+s+  * p+    F+s+s+s+s+s+s+s+",
"F+s+s+s+s+s+s+s+F+F+F+F+s+s+s+s+s+s+s+s+s+s+s+s+s+s+s+s+s+F+y+s+F+  p+* * * p+p+s+p+F+F+p+F+F+u+F+F+p+  * p+y+  F+s+s+s+s+s+s+s+",
"F+s+s+s+s+s+s+s+F+F+F+F+s+s+s+s+s+s+s+s+s+s+s+s+s+s+s+s+u+p+y+s+F+  p+* p+* F+p+p+F+s+F+p+p+p+s+F+y+p+  * p+w+s+F+s+s+s+s+s+s+s+",
"F+s+s+s+s+s+s+s+F+      F+F+F+F+p+p+F+p+F+F+F+F+F+F+F+F+F+  s+F+      p+  w+  p+    p+  p+p+p+  p+F+F+  *   s+s+F+s+s+s+s+s+s+s+",
"F+s+s+s+s+s+s+s+F+F+    s+  p+p+F+  p+p+p+p+p+F+p+y+  s+w+  w+s+p+        s+  p+p+p+p+p+p+p+p+p+F+F+F+  y+  F+F+F+s+s+s+s+s+s+s+",
"F+s+s+s+s+s+s+s+F+s+F+F+y+  p+p+p+p+p+p+p+p+p+p+p+*   s+y+  * s+p+            y+s+s+y+s+F+y+y+s+F+s+y+  p+u+s+  F+s+s+s+s+s+s+s+",
"F+s+s+s+s+s+s+s+s+s+s+s+s+s+s+s+s+s+s+s+s+s+s+s+s+s+s+s+s+s+s+s+s+s+s+s+s+s+s+s+s+s+s+s+s+s+s+s+s+s+s+s+s+s+s+s+s+s+s+s+s+s+s+s+",
"F+s+s+s+s+s+s+s+s+s+s+s+s+s+s+s+s+s+s+s+s+s+s+s+s+s+s+s+s+s+s+s+s+s+s+s+s+s+s+s+s+s+s+s+s+s+s+s+s+s+s+s+s+s+s+s+s+s+s+s+s+s+s+s+",
"F+s+s+s+s+s+s+s+s+s+s+s+s+s+s+s+s+s+s+s+s+s+s+s+s+s+s+s+s+s+s+s+s+s+s+s+s+s+s+s+s+s+s+s+s+s+s+s+s+s+s+s+s+s+s+s+s+s+s+s+s+s+s+s+",
"F+s+s+s+s+s+s+s+s+s+s+s+s+s+s+s+s+s+s+s+s+s+s+s+s+s+s+s+s+s+s+s+s+s+s+s+s+s+s+s+s+s+s+s+s+s+s+s+s+s+s+s+s+s+s+s+s+s+s+s+s+s+s+s+",
"F+s+s+s+s+s+s+s+s+s+s+s+s+s+s+s+s+s+s+s+s+s+s+s+s+s+s+s+s+s+s+s+s+s+s+s+s+s+s+s+s+s+s+s+s+s+s+s+s+s+s+s+s+s+s+s+s+s+s+s+s+s+s+s+",
"F+s+s+s+s+s+s+s+s+s+s+s+s+s+s+s+s+s+s+s+s+s+s+s+s+s+s+s+s+s+s+s+s+s+s+s+s+s+s+s+s+s+s+s+s+s+s+s+s+s+s+s+s+s+s+s+s+s+s+s+s+s+s+s+",
"F+s+s+s+s+s+s+s+s+s+s+s+s+s+s+s+s+s+s+s+s+s+s+s+s+s+s+s+s+s+s+s+s+s+s+s+s+s+s+s+s+s+s+s+s+s+s+s+s+s+s+s+s+s+s+s+s+s+s+s+s+s+s+s+",
"F+F+F+F+F+F+F+F+F+F+F+F+F+F+F+F+F+F+F+F+F+F+F+F+F+F+F+F+F+F+F+F+F+F+F+F+F+F+F+F+F+F+F+F+F+F+F+F+F+F+F+F+F+F+F+F+F+F+F+F+F+F+F+F+"};
