/* XPM */
static char * 089_xpm[] = {
"64 64 256 2",
"  	c #000000",
". 	c #0000FF",
"+ 	c #00FF00",
"@ 	c #FF0000",
"# 	c #00FFFF",
"$ 	c #FFFF00",
"% 	c #FF00FF",
"& 	c #FFFFFF",
"* 	c #7B7B7B",
"= 	c #7B7B7B",
"- 	c #7B7B7B",
"; 	c #7B7B7B",
"> 	c #7B7B7B",
", 	c #7B7B7B",
"' 	c #7B7B7B",
") 	c #7B7B7B",
"! 	c #7B7B7B",
"~ 	c #7B7B7B",
"{ 	c #7B7B7B",
"] 	c #7B7B7B",
"^ 	c #7B7B7B",
"/ 	c #7B7B7B",
"( 	c #7B7B7B",
"_ 	c #7B7B7B",
": 	c #7B7B7B",
"< 	c #7B7B7B",
"[ 	c #7B7B7B",
"} 	c #7B7B7B",
"| 	c #7B7B7B",
"1 	c #7B7B7B",
"2 	c #7B7B7B",
"3 	c #7B7B7B",
"4 	c #7B7B7B",
"5 	c #7B7B7B",
"6 	c #7B7B7B",
"7 	c #7B7B7B",
"8 	c #7B7B7B",
"9 	c #7B7B7B",
"0 	c #7B7B7B",
"a 	c #7B7B7B",
"b 	c #7B7B7B",
"c 	c #7B7B7B",
"d 	c #7B7B7B",
"e 	c #7B7B7B",
"f 	c #7B7B7B",
"g 	c #7B7B7B",
"h 	c #7B7B7B",
"i 	c #7B7B7B",
"j 	c #7B7B7B",
"k 	c #7B7B7B",
"l 	c #7B7B7B",
"m 	c #7B7B7B",
"n 	c #7B7B7B",
"o 	c #7B7B7B",
"p 	c #7B7B7B",
"q 	c #7B7B7B",
"r 	c #7B7B7B",
"s 	c #7B7B7B",
"t 	c #7B7B7B",
"u 	c #7B7B7B",
"v 	c #7B7B7B",
"w 	c #7B7B7B",
"x 	c #7B7B7B",
"y 	c #7B7B7B",
"z 	c #7B7B7B",
"A 	c #7B7B7B",
"B 	c #7B7B7B",
"C 	c #7B7B7B",
"D 	c #7B7B7B",
"E 	c #7B7B7B",
"F 	c #7B7B7B",
"G 	c #7B7B7B",
"H 	c #7B7B7B",
"I 	c #7B7B7B",
"J 	c #7B7B7B",
"K 	c #7B7B7B",
"L 	c #7B7B7B",
"M 	c #7B7B7B",
"N 	c #7B7B7B",
"O 	c #7B7B7B",
"P 	c #7B7B7B",
"Q 	c #7B7B7B",
"R 	c #7B7B7B",
"S 	c #7B7B7B",
"T 	c #7B7B7B",
"U 	c #7B7B7B",
"V 	c #7B7B7B",
"W 	c #7B7B7B",
"X 	c #7B7B7B",
"Y 	c #7B7B7B",
"Z 	c #7B7B7B",
"` 	c #7B7B7B",
" .	c #7B7B7B",
"..	c #7B7B7B",
"+.	c #7B7B7B",
"@.	c #7B7B7B",
"#.	c #7B7B7B",
"$.	c #7B7B7B",
"%.	c #7B7B7B",
"&.	c #7B7B7B",
"*.	c #7B7B7B",
"=.	c #7B7B7B",
"-.	c #7B7B7B",
";.	c #7B7B7B",
">.	c #7B7B7B",
",.	c #7B7B7B",
"'.	c #7B7B7B",
").	c #7B7B7B",
"!.	c #7B7B7B",
"~.	c #7B7B7B",
"{.	c #7B7B7B",
"].	c #7B7B7B",
"^.	c #7B7B7B",
"/.	c #7B7B7B",
"(.	c #7B7B7B",
"_.	c #7B7B7B",
":.	c #7B7B7B",
"<.	c #7B7B7B",
"[.	c #7B7B7B",
"}.	c #7B7B7B",
"|.	c #7B7B7B",
"1.	c #7B7B7B",
"2.	c #7B7B7B",
"3.	c #7B7B7B",
"4.	c #7B7B7B",
"5.	c #7B7B7B",
"6.	c #7B7B7B",
"7.	c #7B7B7B",
"8.	c #7B7B7B",
"9.	c #7B7B7B",
"0.	c #7B7B7B",
"a.	c #7B7B7B",
"b.	c #7B7B7B",
"c.	c #7B7B7B",
"d.	c #7B7B7B",
"e.	c #7B7B7B",
"f.	c #7B7B7B",
"g.	c #7B7B7B",
"h.	c #7B7B7B",
"i.	c #7B7B7B",
"j.	c #7B7B7B",
"k.	c #7B7B7B",
"l.	c #7B7B7B",
"m.	c #7B7B7B",
"n.	c #7B7B7B",
"o.	c #7B7B7B",
"p.	c #7B7B7B",
"q.	c #7B7B7B",
"r.	c #7B7B7B",
"s.	c #7B7B7B",
"t.	c #7B7B7B",
"u.	c #7B7B7B",
"v.	c #7B7B7B",
"w.	c #7B7B7B",
"x.	c #7B7B7B",
"y.	c #7B7B7B",
"z.	c #7B7B7B",
"A.	c #7B7B7B",
"B.	c #7B7B7B",
"C.	c #7B7B7B",
"D.	c #7B7B7B",
"E.	c #7B7B7B",
"F.	c #7B7B7B",
"G.	c #7B7B7B",
"H.	c #7B7B7B",
"I.	c #7B7B7B",
"J.	c #7B7B7B",
"K.	c #7B7B7B",
"L.	c #7B7B7B",
"M.	c #7B7B7B",
"N.	c #7B7B7B",
"O.	c #7B7B7B",
"P.	c #7B7B7B",
"Q.	c #7B7B7B",
"R.	c #7B7B7B",
"S.	c #7B7B7B",
"T.	c #7B7B7B",
"U.	c #7B7B7B",
"V.	c #7B7B7B",
"W.	c #7B7B7B",
"X.	c #7B7B7B",
"Y.	c #7B7B7B",
"Z.	c #7B7B7B",
"`.	c #7B7B7B",
" +	c #7B7B7B",
".+	c #7B7B7B",
"++	c #7B7B7B",
"@+	c #7B7B7B",
"#+	c #7B7B7B",
"$+	c #7B7B7B",
"%+	c #7B7B7B",
"&+	c #7B7B7B",
"*+	c #7B7B7B",
"=+	c #7B7B7B",
"-+	c #7B7B7B",
";+	c #7B7B7B",
">+	c #7B7B7B",
",+	c #7B7B7B",
"'+	c #7B7B7B",
")+	c #7B7B7B",
"!+	c #7B7B7B",
"~+	c #7B7B7B",
"{+	c #7B7B7B",
"]+	c #7B7B7B",
"^+	c #7B7B7B",
"/+	c #7B7B7B",
"(+	c #7B7B7B",
"_+	c #7B7B7B",
":+	c #7B7B7B",
"<+	c #7B7B7B",
"[+	c #7B7B7B",
"}+	c #7B7B7B",
"|+	c #7B7B7B",
"1+	c #7B7B7B",
"2+	c #7B7B7B",
"3+	c #7B7B7B",
"4+	c #7B7B7B",
"5+	c #7B7B7B",
"6+	c #7B7B7B",
"7+	c #7B7B7B",
"8+	c #7B7B7B",
"9+	c #7B7B7B",
"0+	c #7B7B7B",
"a+	c #7B7B7B",
"b+	c #7B7B7B",
"c+	c #7B7B7B",
"d+	c #7B7B7B",
"e+	c #7B7B7B",
"f+	c #7B7B7B",
"g+	c #7B7B7B",
"h+	c #7B7B7B",
"i+	c #7B7B7B",
"j+	c #7B7B7B",
"k+	c #BD7B4A",
"l+	c #8B5A31",
"m+	c #CD7B4A",
"n+	c #7B5229",
"o+	c #E69C6A",
"p+	c #102008",
"q+	c #6A4120",
"r+	c #392910",
"s+	c #292929",
"t+	c #AC6A41",
"u+	c #312910",
"v+	c #4A3118",
"w+	c #734A29",
"x+	c #D58B5A",
"y+	c #4A3920",
"z+	c #523918",
"A+	c #5A4120",
"B+	c #B47341",
"C+	c #835231",
"D+	c #DE9462",
"E+	c #292008",
"F+	c #181818",
"G+	c #9C6239",
"E+E+E+E+E+E+E+E+E+E+E+E+E+E+E+E+E+E+E+E+E+r+E+r+r+E+E+E+E+E+r+r+r+r+r+E+E+E+E+E+E+E+E+E+E+E+E+E+E+E+E+E+E+E+E+E+E+E+E+E+E+E+E+E+",
"E+E+E+r+E+E+E+E+E+E+E+E+E+E+E+r+r+r+r+r+r+E+E+E+r+r+r+r+E+E+E+E+r+r+r+r+r+E+E+E+E+E+E+E+E+E+E+E+E+E+E+E+E+E+E+E+E+E+r+E+E+E+E+E+",
"E+E+E+E+E+E+E+E+E+E+E+E+E+E+E+E+r+r+E+E+E+E+E+E+r+r+r+r+E+E+E+E+r+r+r+r+r+E+E+E+E+E+E+E+E+E+E+E+E+E+E+E+E+E+E+E+E+E+r+E+E+E+E+E+",
"E+E+E+E+E+E+E+E+E+E+E+E+E+E+E+E+E+E+E+E+E+E+r+r+r+r+r+r+E+E+E+E+r+r+r+r+r+E+E+E+E+E+E+E+E+r+r+r+r+E+E+E+E+E+E+r+r+E+E+E+E+E+E+E+",
"E+E+E+E+F+F+F+F+F+F+F+F+F+F+F+F+F+F+F+F+F+F+F+F+F+F+F+F+E+E+E+E+E+E+E+F+F+F+F+F+F+F+F+F+F+F+F+F+F+F+F+F+F+F+F+F+F+F+F+F+F+E+E+E+",
"E+E+E+E+F+F+F+F+F+F+F+F+F+F+F+F+F+F+F+F+F+F+F+F+F+F+F+F+E+E+E+E+E+E+E+F+F+F+F+F+F+F+F+F+F+F+F+F+F+F+F+F+F+F+F+F+F+F+F+F+F+E+E+E+",
"E+E+E+E+E+F+F+F+F+F+F+F+F+F+F+F+F+F+F+F+F+F+F+F+s+s+s+F+E+E+E+E+E+E+E+F+s+F+F+F+F+F+F+F+F+s+F+F+F+F+F+F+F+F+F+F+F+F+F+F+F+E+E+E+",
"E+E+E+E+E+E+F+F+s+F+F+F+F+s+s+F+s+F+s+s+s+s+s+s+s+s+s+F+E+E+E+E+E+E+E+F+s+s+F+s+s+F+s+s+s+s+s+F+s+F+F+F+F+s+s+F+F+F+F+F+E+E+E+E+",
"E+E+E+E+E+E+E+F+F+F+F+F+s+s+s+s+s+s+F+s+s+s+y+y+s+s+s+F+E+E+r+E+E+E+E+F+s+s+s+s+s+s+y+s+s+s+s+s+s+s+s+s+s+s+s+F+F+F+E+E+E+E+E+E+",
"E+E+E+E+E+E+E+E+E+F+F+F+s+F+s+s+s+s+s+s+s+s+y+s+s+s+s+F+E+E+r+E+E+E+E+F+s+s+s+y+s+s+s+s+s+s+s+s+s+F+s+s+s+F+F+F+F+E+E+E+E+E+E+E+",
"E+E+E+E+E+E+E+E+E+E+F+F+F+F+s+s+s+s+s+s+s+s+y+s+s+s+y+F+E+E+r+E+r+r+E+F+s+s+y+y+y+s+s+F+s+s+s+s+s+s+s+s+F+F+F+E+E+E+E+E+E+E+E+E+",
"E+E+E+E+E+E+E+E+E+E+E+E+F+F+F+F+s+s+s+s+s+s+s+s+y+s+s+F+E+E+r+E+E+r+E+F+s+s+y+y+y+s+s+y+s+s+s+s+s+s+s+F+F+F+E+E+E+E+E+E+E+E+E+E+",
"E+E+E+E+E+E+E+E+E+E+E+E+E+F+F+s+s+s+s+s+s+s+s+s+s+s+s+F+E+E+r+E+E+r+E+F+s+s+s+y+y+y+s+y+y+s+s+s+s+s+s+F+F+E+E+E+E+E+E+E+E+E+E+E+",
"E+E+E+F+E+E+E+E+E+E+E+E+E+E+E+F+s+s+s+s+s+s+s+s+s+s+s+F+E+E+r+E+E+r+E+F+s+s+s+y+y+y+s+y+y+s+s+s+s+s+s+E+E+E+E+E+E+E+E+E+E+E+E+E+",
"E+E+E+F+F+F+E+E+E+E+E+E+E+E+E+E+F+s+F+s+s+s+s+s+s+s+s+F+E+r+r+E+E+E+E+F+s+y+y+s+s+s+s+s+y+s+s+s+s+E+E+E+E+E+E+E+E+E+E+F+F+E+E+E+",
"E+E+E+F+F+F+F+E+E+E+E+E+E+E+E+E+E+E+s+F+s+s+y+s+s+y+s+F+E+r+r+E+r+E+E+F+s+s+y+y+s+s+s+s+s+s+s+F+E+E+E+E+E+E+E+E+E+E+F+F+F+E+E+E+",
"E+E+E+F+F+F+F+F+E+E+E+E+E+E+E+E+E+E+E+F+s+s+s+s+s+s+s+F+E+r+r+E+r+E+E+F+F+s+y+y+s+s+s+y+s+s+F+E+E+E+E+E+E+E+E+E+F+s+s+F+F+E+E+E+",
"E+E+E+F+F+F+s+F+s+F+E+E+E+E+E+E+E+E+E+E+E+s+s+s+s+s+s+F+E+E+r+E+r+r+E+F+F+s+s+s+s+s+F+F+s+E+E+E+E+E+E+E+E+E+E+F+F+F+s+F+F+E+E+E+",
"E+E+E+F+F+F+s+s+s+F+F+E+E+E+E+E+E+E+E+E+E+E+s+s+s+s+s+F+E+E+r+E+r+r+E+F+F+s+s+s+s+s+s+F+E+E+E+E+E+E+E+E+E+E+F+F+s+F+F+F+F+E+E+E+",
"E+E+E+F+F+F+s+s+s+F+F+s+F+E+E+E+E+E+E+E+E+E+E+F+s+s+F+F+E+E+r+E+r+r+E+F+F+s+y+s+s+s+E+E+E+E+E+E+E+E+E+E+F+F+F+F+F+F+s+F+F+E+E+E+",
"E+E+E+F+F+F+s+s+s+F+F+F+s+F+E+E+E+E+E+E+E+E+E+E+E+s+F+F+E+E+r+E+r+r+E+F+F+s+s+s+F+E+E+E+E+E+E+E+E+E+E+F+F+F+F+F+s+F+F+F+F+E+E+E+",
"E+E+E+F+F+F+F+s+s+s+F+F+F+F+F+F+E+E+E+E+E+E+E+E+E+E+F+F+E+E+E+E+E+E+E+F+F+s+s+F+E+E+E+E+E+E+E+E+E+F+s+F+F+s+s+F+F+F+F+F+F+E+E+E+",
"E+E+E+F+F+F+s+s+F+s+s+F+F+F+F+F+F+E+E+E+E+E+E+E+E+E+E+F+E+E+E+E+E+E+E+F+F+F+E+E+E+E+E+E+E+E+E+E+F+s+s+s+s+s+s+F+F+F+F+F+F+E+E+E+",
"E+E+E+F+F+F+s+F+s+s+s+s+F+F+F+F+s+s+E+E+E+E+E+E+E+E+E+E+E+E+E+r+r+E+E+F+E+E+E+E+E+E+E+E+E+E+F+F+s+s+s+s+s+s+s+F+s+F+F+F+F+E+E+E+",
"E+E+E+F+F+F+s+s+F+F+F+F+F+F+s+s+s+s+s+F+E+E+E+E+E+E+E+E+E+E+E+E+E+E+E+E+E+E+E+E+E+E+E+E+E+F+F+F+F+F+F+s+F+F+F+F+F+F+F+F+F+E+E+E+",
"E+E+E+F+F+F+F+F+F+F+F+F+F+F+F+F+F+F+F+F+F+E+E+E+E+E+E+E+E+E+E+E+E+E+E+E+E+E+E+E+E+E+E+F+F+s+F+F+F+F+F+s+F+F+F+F+F+F+F+F+F+E+E+E+",
"E+E+E+E+E+E+E+E+E+E+E+E+E+E+E+E+E+E+r+r+r+r+r+r+r+r+r+r+r+r+E+E+E+r+E+r+E+E+E+E+E+E+E+E+E+E+E+E+E+E+E+E+E+E+E+E+E+E+E+E+E+E+E+E+",
"E+E+E+E+E+E+E+E+E+r+E+r+E+E+E+E+E+E+E+E+E+r+E+E+E+E+E+E+E+E+E+E+E+E+E+E+E+E+E+E+E+E+E+E+E+E+E+E+E+E+E+E+E+E+E+E+E+E+E+E+E+E+E+E+",
"E+E+E+E+r+r+r+r+r+E+E+E+r+r+r+r+E+E+E+E+r+r+r+r+r+E+E+E+E+E+E+E+E+E+E+E+E+E+E+E+E+E+E+E+E+E+r+E+E+E+E+E+E+E+E+r+E+E+E+E+E+E+E+E+",
"E+E+E+E+r+r+E+E+E+E+E+E+r+r+r+r+E+E+E+E+E+E+E+E+E+E+E+E+E+E+E+E+E+E+E+E+E+E+E+E+E+E+E+E+E+E+r+E+E+E+E+E+E+E+E+r+E+E+E+E+E+E+E+E+",
"E+E+E+E+E+E+E+E+E+E+r+r+r+r+r+r+E+E+E+E+r+r+r+r+r+E+E+E+E+E+E+E+E+r+r+r+r+E+E+E+E+E+E+r+r+E+E+E+E+E+E+E+r+r+E+E+E+E+E+E+E+E+E+E+",
"E+E+E+E+E+E+E+E+E+E+E+E+E+E+E+E+E+E+E+E+E+E+E+E+E+E+E+E+E+E+E+E+E+E+E+E+E+E+E+E+E+E+E+E+E+E+E+E+E+E+E+E+E+E+E+E+E+E+E+E+E+E+E+E+",
"E+E+E+F+F+F+F+F+F+F+F+F+F+F+F+F+F+F+F+s+F+F+F+F+F+F+F+F+E+E+E+E+E+E+E+F+F+F+s+s+F+F+s+s+F+s+F+F+F+s+s+F+s+F+F+F+F+F+F+F+F+E+E+E+",
"E+E+E+F+F+F+F+F+s+F+s+s+s+F+F+F+F+F+s+s+F+F+F+F+F+F+F+F+E+E+E+E+E+E+E+F+F+s+y+y+s+F+y+y+y+y+y+s+s+s+s+y+y+s+s+F+F+F+F+F+F+E+E+E+",
"r+E+E+F+F+s+s+s+s+s+s+s+s+s+y+s+s+F+s+y+s+s+s+F+s+y+s+F+E+E+E+E+E+E+E+s+s+s+w+w+y+y+y+y+y+y+y+y+y+y+w+w+w+y+y+y+s+s+s+s+F+E+E+E+",
"E+E+E+F+F+s+s+s+s+y+y+s+s+y+s+y+y+s+y+w+y+s+s+y+y+y+s+F+E+r+r+r+E+E+E+s+s+* * w+w+w+y+y+s+y+s+w+y+w+y+w+w+w+w+y+y+s+s+F+F+E+E+E+",
"E+E+E+F+F+s+s+s+s+y+s+y+s+s+s+y+s+y+y+y+w+s+s+y+y+y+y+F+E+r+r+r+r+r+E+s+y+w+* * w+y+* w+y+w+y+w+y+w+y+y+y+y+w+y+y+y+y+s+F+E+E+E+",
"E+E+E+F+s+s+s+s+y+y+y+w+y+y+y+y+y+y+s+y+w+s+y+y+s+s+s+F+E+v+v+r+r+r+E+s+y+w+w+w+* y+w+w+y+w+y+w+y+y+y+w+w+w+y+y+w+y+y+s+F+E+E+E+",
"E+E+E+F+s+s+F+s+y+s+s+y+y+w+y+y+y+y+y+w+w+y+y+s+s+s+y+F+E+E+r+r+r+r+E+s+y+y+w+* * w+w+w+w+w+w+* w+s+y+y+w+w+w+y+w+w+y+s+F+E+E+E+",
"E+E+E+F+F+s+s+s+s+s+s+y+s+s+s+s+s+s+y+y+y+y+y+s+s+s+y+F+E+E+E+E+r+r+E+s+y+y+w+* * y+y+y+* y+* w+w+w+y+w+y+w+y+w+w+w+w+y+F+E+E+E+",
"E+E+E+F+s+s+s+s+y+y+y+s+s+y+s+y+s+y+y+y+y+w+w+w+y+w+y+s+E+E+E+E+r+r+E+s+y+y+w+y+y+w+w+w+* w+* y+y+y+w+w+y+s+y+w+y+y+y+s+E+E+E+E+",
"E+E+E+F+s+s+s+s+y+y+y+y+y+s+y+s+s+y+y+y+y+w+w+w+y+y+y+s+E+E+E+E+r+E+E+s+y+w+y+y+y+w+y+w+* * * w+y+y+y+w+w+w+w+y+y+w+y+s+F+E+E+E+",
"E+E+E+F+s+s+s+s+s+y+y+s+s+y+y+y+y+y+y+w+w+w+y+w+y+y+s+s+E+E+E+E+E+r+E+s+y+y+y+w+* * * w+w+w+w+* w+y+y+y+w+w+y+s+s+y+y+s+F+E+E+E+",
"E+E+E+F+s+s+s+y+s+y+y+y+s+y+y+s+s+s+y+y+y+w+y+s+y+y+s+s+E+E+E+E+E+E+E+s+y+y+w+* * * * * w+w+* * w+y+w+w+y+y+y+y+y+y+y+s+E+E+E+E+",
"E+E+E+F+s+s+y+y+y+s+s+s+s+y+y+s+y+y+y+y+s+y+y+y+y+y+s+s+E+E+E+E+E+E+E+F+y+y+y+* * w+* w+w+w+w+w+w+y+y+s+y+s+y+y+s+y+s+s+F+E+E+E+",
"E+E+E+F+s+s+s+y+y+s+s+y+s+s+y+s+y+y+y+y+w+y+s+y+y+s+s+F+E+E+E+E+E+r+E+F+y+y+w+* * * * w+w+w+* * w+y+y+y+s+y+s+y+y+y+s+s+F+E+E+E+",
"E+E+E+F+s+s+s+s+y+s+s+y+y+y+y+y+s+y+y+y+w+w+y+y+y+y+s+F+E+E+E+r+E+r+E+F+w+y+w+* w+y+w+w+y+y+* * w+w+y+s+y+y+s+y+s+s+y+s+E+E+E+E+",
"E+E+E+F+F+s+s+y+y+y+y+y+y+y+y+y+y+y+w+w+* w+w+y+y+y+y+F+E+E+E+r+r+r+E+s+w+y+y+* * * w+* w+w+w+* w+w+* y+y+y+s+s+y+s+s+s+F+E+E+E+",
"r+E+E+F+s+s+s+y+y+y+y+y+y+y+* w+y+y+y+y+w+y+w+y+y+y+y+s+E+E+E+E+r+r+E+s+y+w+w+* * * w+w+w+w+w+y+w+w+w+w+w+y+y+s+y+s+s+s+E+E+E+E+",
"r+E+E+F+s+s+s+y+y+y+s+y+y+F+y+* w+y+y+w+y+w+y+y+w+y+y+s+E+E+E+E+r+r+E+s+y+w+w+w+w+w+w+y+w+y+y+y+y+w+w+y+w+w+y+y+y+s+s+s+F+E+E+E+",
"r+E+E+F+F+F+s+s+y+y+s+s+s+F+s+w+w+y+y+y+y+y+y+y+y+y+s+s+E+E+E+E+E+r+E+s+y+y+y+w+w+w+y+y+w+w+w+y+s+y+y+y+y+y+s+s+s+y+s+s+F+E+E+E+",
"E+E+E+F+s+F+s+s+s+s+y+y+s+y+F+s+w+y+w+y+y+y+y+w+s+y+s+F+E+E+E+E+E+E+E+s+s+y+s+y+y+y+y+y+s+y+w+y+s+s+y+y+s+s+y+y+F+F+F+s+F+E+E+E+",
"E+E+E+F+s+s+F+s+s+s+y+y+s+s+s+F+s+y+y+y+s+y+w+y+y+s+y+F+E+E+E+E+E+E+E+s+y+s+s+y+s+y+s+s+s+y+w+y+w+y+s+y+y+y+y+s+s+s+s+s+E+E+E+E+",
"E+E+E+F+s+s+s+s+s+s+s+s+s+s+s+s+F+y+y+y+s+y+y+y+y+y+s+F+E+r+r+r+E+E+E+s+s+y+w+y+y+y+s+s+y+y+y+y+y+y+s+y+y+y+s+s+y+s+s+F+E+E+E+E+",
"E+E+E+F+F+s+s+s+s+s+s+s+s+s+y+s+y+s+y+y+s+y+y+y+s+y+y+F+E+r+r+r+r+r+E+F+y+y+y+y+y+y+y+y+y+y+y+s+w+w+s+s+y+y+s+s+s+s+s+s+E+E+E+E+",
"E+E+E+F+F+F+s+s+s+s+s+s+s+F+s+y+y+y+s+s+s+s+s+s+s+s+s+F+E+v+v+r+r+r+E+s+s+y+y+y+y+s+y+y+y+y+y+y+y+y+y+y+y+y+y+s+s+s+s+F+E+E+E+E+",
"E+E+E+F+F+F+F+F+s+s+s+s+s+s+F+s+s+y+s+s+s+s+s+y+s+s+s+F+E+E+r+r+r+r+E+s+s+s+s+s+s+s+s+y+s+y+s+y+y+s+s+s+s+s+s+s+s+s+s+s+E+E+E+E+",
"E+E+E+E+F+F+F+F+F+s+s+s+s+F+F+F+s+y+y+F+s+s+s+s+y+s+s+F+E+E+E+E+r+r+E+s+s+y+s+s+s+s+s+s+y+s+s+s+s+s+s+s+s+s+s+y+s+F+s+F+E+E+E+E+",
"E+E+E+E+F+s+F+F+F+F+s+s+s+s+F+F+s+s+s+s+s+s+s+y+y+s+s+s+E+E+E+E+r+E+E+F+s+s+s+s+s+s+y+s+s+s+s+s+s+s+s+s+s+s+s+s+s+F+F+F+E+E+E+E+",
"E+E+E+E+F+F+F+F+F+F+F+F+F+F+s+s+F+s+s+s+s+s+s+s+s+s+s+F+E+E+E+E+E+r+E+F+F+s+s+s+s+s+s+s+s+s+s+s+s+F+F+s+F+s+s+s+s+s+s+F+F+E+E+E+",
"E+E+E+E+s+F+F+F+F+F+F+F+F+F+s+s+F+s+s+s+s+s+s+s+s+s+s+F+E+E+E+E+E+E+E+s+s+s+s+s+s+s+s+s+s+s+s+s+s+s+s+s+F+F+s+s+s+s+F+F+E+E+E+E+",
"E+E+r+r+E+r+r+r+E+E+r+r+v+v+v+v+v+q+q+q+v+v+v+v+v+v+r+r+r+E+E+E+E+E+E+E+E+E+E+E+r+v+v+v+v+v+v+v+v+r+r+r+r+r+v+v+v+r+E+E+E+E+E+E+",
"E+E+E+E+E+E+E+E+E+E+E+E+E+E+E+E+r+E+r+r+E+E+E+E+E+r+r+r+r+r+E+E+E+E+E+E+E+E+E+E+E+E+E+E+E+E+E+E+E+E+E+E+E+E+E+E+E+E+E+E+E+E+E+E+",
"E+E+E+E+E+E+E+E+E+E+r+r+r+r+r+r+E+E+E+r+r+r+r+E+E+E+E+r+r+r+r+r+E+E+E+E+E+E+E+E+E+E+E+E+E+E+E+E+E+E+E+E+E+r+E+E+E+E+E+E+E+E+E+E+"};
