/* XPM */
static char * backroom_wall_xpm[] = {
"64 64 345 2",
"  	c #CDCD72",
". 	c #DBDB78",
"+ 	c #D3D274",
"@ 	c #D6D675",
"# 	c #CDCC71",
"$ 	c #DADA77",
"% 	c #D9D976",
"& 	c #D6D575",
"* 	c #D8D776",
"= 	c #D1D073",
"- 	c #D5D575",
"; 	c #CFCE72",
"> 	c #D7D675",
", 	c #D3D273",
"' 	c #CCCC70",
") 	c #D5D574",
"! 	c #CDCD70",
"~ 	c #D4D474",
"{ 	c #D0D072",
"] 	c #D3D373",
"^ 	c #D6D674",
"/ 	c #D2D273",
"( 	c #D0CF72",
"_ 	c #D4D374",
": 	c #D8D876",
"< 	c #D5D474",
"[ 	c #CBCB70",
"} 	c #CCCC71",
"| 	c #D5D573",
"1 	c #C6C56D",
"2 	c #D1D072",
"3 	c #D6D574",
"4 	c #CBCA70",
"5 	c #D9D876",
"6 	c #CECC71",
"7 	c #CAC970",
"8 	c #D8D875",
"9 	c #D2D274",
"0 	c #CECD72",
"a 	c #D7D776",
"b 	c #DCDC78",
"c 	c #CECC72",
"d 	c #C5C36E",
"e 	c #CCCA71",
"f 	c #D9D977",
"g 	c #CDCB71",
"h 	c #C3C16D",
"i 	c #C7C56E",
"j 	c #CECD71",
"k 	c #D1D173",
"l 	c #C8C76E",
"m 	c #C2C06D",
"n 	c #C5C46D",
"o 	c #D7D775",
"p 	c #CAC870",
"q 	c #C4C16E",
"r 	c #CFCF72",
"s 	c #C8C76F",
"t 	c #CECE72",
"u 	c #CCCB70",
"v 	c #C7C66E",
"w 	c #C1BF6C",
"x 	c #CCCB71",
"y 	c #C4C26E",
"z 	c #C7C66F",
"A 	c #C9C870",
"B 	c #D0CF73",
"C 	c #CDCC72",
"D 	c #D5D475",
"E 	c #CBC970",
"F 	c #C6C46E",
"G 	c #C4C36D",
"H 	c #C8C66F",
"I 	c #C9C86F",
"J 	c #D2D173",
"K 	c #CBCA71",
"L 	c #C9C76F",
"M 	c #D3D374",
"N 	c #CDCD71",
"O 	c #D0D073",
"P 	c #D4D375",
"Q 	c #CFCF73",
"R 	c #CACA6F",
"S 	c #D2D174",
"T 	c #DADB78",
"U 	c #CBCB71",
"V 	c #CACA70",
"W 	c #C9C970",
"X 	c #CFD072",
"Y 	c #D6D776",
"Z 	c #C7C76F",
"` 	c #D6D775",
" .	c #C6C56E",
"..	c #D6D676",
"+.	c #C9C770",
"@.	c #C1BF6D",
"#.	c #C4C36E",
"$.	c #CECE71",
"%.	c #BDBB6A",
"&.	c #C8C86F",
"*.	c #C7C56F",
"=.	c #C5C36F",
"-.	c #C3C26C",
";.	c #C9C96F",
">.	c #C6C66E",
",.	c #D9DA77",
"'.	c #DBDB77",
").	c #D1D172",
"!.	c #CAC96F",
"~.	c #CFCF71",
"{.	c #CFCD72",
"].	c #CFCE71",
"^.	c #D2D272",
"/.	c #CBCA6F",
"(.	c #D0CF71",
"_.	c #CDCC70",
":.	c #CCCA70",
"<.	c #C6C46D",
"[.	c #C0BE6B",
"}.	c #D4D473",
"|.	c #C1BE6C",
"1.	c #C8C66E",
"2.	c #C8C86E",
"3.	c #CAC86F",
"4.	c #DAD977",
"5.	c #C5C46E",
"6.	c #CACA6E",
"7.	c #D4D373",
"8.	c #C5C36D",
"9.	c #CECE70",
"0.	c #D0CE72",
"a.	c #CAC971",
"b.	c #BEBC6B",
"c.	c #C0BE6C",
"d.	c #BFBD6C",
"e.	c #CCCB72",
"f.	c #DADB77",
"g.	c #D4D475",
"h.	c #C6C56F",
"i.	c #C2C16D",
"j.	c #C3C26D",
"k.	c #C8C770",
"l.	c #C3C26E",
"m.	c #D8D976",
"n.	c #CECD73",
"o.	c #D5D675",
"p.	c #D1D273",
"q.	c #C7C76E",
"r.	c #D7D876",
"s.	c #CBCB6F",
"t.	c #BDBB69",
"u.	c #D0D071",
"v.	c #D8D775",
"w.	c #BFBD6B",
"x.	c #C4C36C",
"y.	c #CECD70",
"z.	c #D2D172",
"A.	c #CCCB6F",
"B.	c #C9C86E",
"C.	c #C7C76D",
"D.	c #CDCB70",
"E.	c #CCCC6F",
"F.	c #D3D372",
"G.	c #C6C66D",
"H.	c #CFCE73",
"I.	c #C5C36C",
"J.	c #BEBC6A",
"K.	c #C6C46F",
"L.	c #CBC971",
"M.	c #C2C06C",
"N.	c #C9C96E",
"O.	c #C1C06B",
"P.	c #C0BF6B",
"Q.	c #C5C56D",
"R.	c #C4C26D",
"S.	c #CDCB72",
"T.	c #C4C46D",
"U.	c #CDCE71",
"V.	c #D4D574",
"W.	c #CECF71",
"X.	c #CECF72",
"Y.	c #D0D173",
"Z.	c #C6C66F",
"`.	c #D1D174",
" +	c #BFBC6C",
".+	c #BCBA69",
"++	c #BFBF6B",
"@+	c #BCBA6A",
"#+	c #C4C26C",
"$+	c #C0BF6A",
"%+	c #C2C16C",
"&+	c #C6C66C",
"*+	c #D1D171",
"=+	c #CCCB6E",
"-+	c #CDCD6F",
";+	c #CAC96E",
">+	c #D2D171",
",+	c #CFCF70",
"'+	c #D3D272",
")+	c #C5C46C",
"!+	c #C6C56C",
"~+	c #C2BF6C",
"{+	c #D2D271",
"]+	c #CCCC6E",
"^+	c #CBCA6E",
"/+	c #BFBE6A",
"(+	c #C3C26B",
"_+	c #C7C66D",
":+	c #C2C26C",
"<+	c #B8B667",
"[+	c #CACB6F",
"}+	c #BDBB6B",
"|+	c #BAB869",
"1+	c #BFBE6C",
"2+	c #CACB70",
"3+	c #C1C06C",
"4+	c #BCBB69",
"5+	c #C5C46F",
"6+	c #D1D272",
"7+	c #BFBE6B",
"8+	c #C1C16C",
"9+	c #C0BF6C",
"0+	c #C4C46E",
"a+	c #C1C06D",
"b+	c #C5C56E",
"c+	c #CCCD70",
"d+	c #BEBB6A",
"e+	c #CBCB6E",
"f+	c #C2C16B",
"g+	c #BAB967",
"h+	c #C4C36B",
"i+	c #CDCC6F",
"j+	c #D0D070",
"k+	c #C3C16C",
"l+	c #C0BF69",
"m+	c #C4C46B",
"n+	c #C9C76E",
"o+	c #CECD6F",
"p+	c #CACA6D",
"q+	c #C7C76C",
"r+	c #D5D473",
"s+	c #C5C46B",
"t+	c #C4C46C",
"u+	c #CFCE70",
"v+	c #D7D774",
"w+	c #C9C86D",
"x+	c #BBB968",
"y+	c #BEBD68",
"z+	c #C8C76D",
"A+	c #D2D372",
"B+	c #C2C26B",
"C+	c #D7D676",
"D+	c #C3C36C",
"E+	c #C1C16B",
"F+	c #C9CA6F",
"G+	c #C0C06B",
"H+	c #D0D172",
"I+	c #BFBF6A",
"J+	c #C6C76D",
"K+	c #C2C36C",
"L+	c #CBCC70",
"M+	c #C4C56D",
"N+	c #C3C36D",
"O+	c #BAB868",
"P+	c #BBB96A",
"Q+	c #BAB968",
"R+	c #C0C06A",
"S+	c #BCB96A",
"T+	c #D5D674",
"U+	c #BFBD6A",
"V+	c #C8C86D",
"W+	c #BEBD69",
"X+	c #C1BF6A",
"Y+	c #C1BF6B",
"Z+	c #BFBE69",
"`+	c #CECE6F",
" @	c #C9C96D",
".@	c #D1D071",
"+@	c #C5C56C",
"@@	c #C5C56B",
"#@	c #CAC96D",
"$@	c #C9C96C",
"%@	c #CCCA6F",
"&@	c #BCBA68",
"*@	c #C2C16A",
"=@	c #C0C069",
"-@	c #BFBC6A",
";@	c #C1C06A",
">@	c #C2C06A",
",@	c #C6C66B",
"'@	c #CBC96F",
")@	c #CDCD6E",
"!@	c #C0BE6A",
"~@	c #BFBD69",
"{@	c #C1C069",
"]@	c #CDCE70",
"^@	c #C4C56C",
"/@	c #B9B769",
"(@	c #C5C66D",
"_@	c #C3C46C",
":@	c #B8B668",
"<@	c #B7B667",
"[@	c #BDBD69",
"}@	c #C7C86E",
"|@	c #C0C06C",
"1@	c #BAB969",
"2@	c #C8C96E",
"3@	c #CBCC6F",
"4@	c #BBBA69",
"5@	c #BDBD6A",
"6@	c #BEBD6A",
"7@	c #BDBC6B",
"8@	c #CCCC72",
"9@	c #BEBE6A",
"0@	c #BBB967",
"a@	c #C1C16A",
"b@	c #C3C36B",
"c@	c #C0BE69",
"d@	c #BBBA66",
"e@	c #C2C06B",
"f@	c #C7C66C",
"g@	c #CCCB6D",
"h@	c #CFCE6F",
"i@	c #BEBC68",
"j@	c #C7C56D",
"k@	c #C3C26A",
"l@	c #C3C16B",
"m@	c #C7C66B",
"n@	c #C8C66D",
"o@	c #C8C86C",
"p@	c #C2BF6D",
"q@	c #B8B666",
"r@	c #BBB869",
"s@	c #BCBC68",
"t@	c #BBB969",
"u@	c #C7C86D",
"v@	c #B9B867",
"w@	c #BEBD6B",
"x@	c #BDBC69",
"y@	c #BEBE6B",
"z@	c #BFC06A",
"A@	c #C3C36E",
"B@	c #BCBC6A",
"C@	c #BFBF6C",
"D@	c #D3D474",
"  . + @ # $ % & # * = - ; > $ , ' ) ! ~ { ] ^ - = / ( ) ; _ : < [ / ( : } ] % | 1 2 ( 3 4 @ : 5 4 , 6 @ 7 - 8 % # ) 9 5 0 a . b ",
"= c d e = f 5 - ; g h i j ) * / k l m n ! { o / / p q 4 = / ) @ r s h g t / 5 ) u v w 7 4 , 5 o x 7 y z 4 ~ > o j 0 h A B o . b ",
"  C 0 A # $ $ D 0 E 7 F 0 ~ : ~ ; s } G u / @ ) j H 0 7 t + % & 7 z I s 4 / ] ) 4 n l A A J : : 7 s K L 7 M % % N 0 0 x N a b b ",
"O P M ; r $ $ _ Q O B 4 # - M { ( u R [ / r ] ~ t 7 ; O t k : - } x B = r _ : o 4 x r t # J f : ; ; 0 #   M o a 0 ( = S Q a . b ",
"0 T $ - U a = M V @ : r W ~ ; r r M @ X N k # / O 9 $ a = + 0 - C 9 Y ~ K O O o Z t ` @  .k 0 + z - - 9 W M # @ x ~ o f # ..P . ",
"O . $ & B x y p O a ..9 t +.@.#.O ~ f / $.n m s t = a 9 r 7 @.s t 9 M ` } n %.7 &.N a @ W z m *.U 9 ~ ..} K w *.} M % % ; B =.e ",
"0 . . @ # e C z t 5 o { 0 A s F N { ] ) ' -.x H ' + : ~ } *.7 A   + ) ) ;.G 4 v >.- @ > I d L z I k @ @ Z s 7 z 4 ~ o ,.t 0 ; C ",
"O '.. & t + J x j * @ ( ( ; # 7 r ).o ).! 0 0 N r 2 3 < ( x 0 9 u ).o ] [ 4 !.j ' ~.] ] u u {.; 4 ~ o < 7 t = B ' < % $ ; + + + ",
"0 '.M @ # 5 5 M 0 o ( - # < > ].' ^.' ~.$.).] 2 ].{ ( < } _ % ~ /.J = @ !.).^ o l (._.3 4 M ~ > 4 M ( ) I ] 8 o !.& J : 0 a . b ",
"O 0 d E ; : % _ j :.h <.u , o 2 ].v [.s ].(.}.] / L |.E = _ @ 3 ' 1.m 7 2., o | R v [.3.x / o % } 3.w s # ~ $ % ; ; h 7 ; o . b ",
"0 g c A 0 4.: ~ j x E 5.u < 8 / 6.L 4 1 ! ).}.7.r F E e ; J o @ u z 0 4 # ) ^ ^ 2.8.4 s x ] : % 7 H p F 4 , 8 o [ # g E t @ . b ",
"B M J Q ; : o D t O ; 4 # ) o ).r r _.!.9.2 o _ + j = = ; M & ~ t u ; r 4 ~ | }.R l # j !., @ : x # 0.# V ).3 : N { = k r > . b ",
"t $ '.- t f + - x a @ ( t _ = 2 $.< ] ~.' ! $./ $.= & a 0 k = , 4 r ~ @ 4 k ( ~ V ~.) / v + r ~ 7 M o _ 4 k j a V ~ % f ; a P . ",
"Q '.'.- t e h a.} & @ 0 x z b. .N ] ) ~.r G b.G # k a M r s m H N r M o &.n c.7 4 r @ M &.z d.s x M a - &.s m z [ M : % ; ; d e.",
"t f.$ g.x K e.h.  @ a Q K #.z d [ r ) / t i.V j.4 k M M t z x k.7 0 - M &.j.A z I $.{ / &.i.z l.Z O g.O A k.z d W M o m.    n.C ",
"Q '.'.~ N 9 t #   a a O } V x &.} / o.p.t ;.I &.; r - 9   x } x V O M k &.q.!.' >.' r.@ v I x 0 Z 9 - M x 0 } 0 # ~ o % ; 9 9 M ",
"t . M D N * % 9 N a ( ( ;.J < _.' $.u ~.s.! @ / u j 0 M # J - M t / j ] 4 { ^.) I ~.; < &.{ o ~ A + = _ &.k ~ @ 4 ] k : 0 @ . . ",
"Q C d K # o : , # K c. .r < ] $.j v t.s j u.@ ] $.i m I j M v.< u z w.!.R ~.) ) ;.n [.s 1 k 3 < I L w F 4 M ) < V N h E ; a . b ",
"t g 0 +.# 5 % ~ } x 4 8.# ~ ) ).$.1 I  .$.u.}.^.s.i 7 1.j J @ 7.#  .1.v !.).}.}.!.x.3.H I y.7.@ ;.L 3.i 4 , : ) /.x 4 7 $.> . b ",
"Q M = ; # % % , # ( j 4 N ] z.2 ! !.A.B.$.~.^ ] ! B.u ; j , o @ N u j /.l / }.^ C.!.D.j !.).) o !.u 4 j 4 / ^ > 4 r ( 2 j o . b ",
"; $ '.D } * J ~ # > 8 2 j ~ j E./.^.F.).! u.]., ( ].) @ # / ].~ # 2 ) ) B.2 9.^.G.~.) }.;.(.( < I J ~ , !._ J 3 4 , o % j @ D . ",
"H.. $ - j 4 m 7 x o ) { } I [.n s.] ^.9.R n [.v N { < _ N i w.I u J o 7.2.I.J.I 1 E.}.: &.H [.F s / ] ] ;.# w s [ , o % N B K.C ",
"H.'.$ - # K L.h.x - ~ { x v L M.[ ~.^.{ N.O.v s ; ( M k x h. . .4 ~ ] ] ;.P.n n Q.~.) @ I R.A R.s = ~ @ 4 A I 5.[ ] : % j 0 C S.",
"H.'.$ -   B C K K a 9 N V ; W Z !.' { ~.q.q.4 N x r - O 4 V K t x k - k &.v V 4 T.k ) ~ >.W 7 U z O _ @ &.[ [ B V M @ : # k S P ",
"; f.g.@ x a a r K - C O U M M [ } ' [ U.R k V.{ } #   k } ; M g.V r } - Z N W.p.>.X.N Y.Z.O g.`.h.t }   Z 0 ~ M } / = @ 0 - '.. ",
"H.0 d K # a : k x 7  +z U / / r !.G .+G [ k ] r } s d.s 7 ( M k 7 R.w.s V ' ).W.>.++@+G s ; & M Z  .d.#. .j o.@ 7 # w I # a . . ",
"H.e.C H N % a + [ p L R.u 2 7.{ j x.#+$+R N./ ].N j.7  .} j - 2 s M.I z ;.~.^.u.G.-.v %+I ( - < s R.L d 7 { @ @ [ I I s t @ '.b ",
"t 9 = 0 # : f / [ # # l I { ) ~._.B./.&+s.].^.9.j 4 # j x ].) ) u I u _.I y.*+u.q.l I u ;.k 7., 1.4 E # l ).@ @ !.j t = } o '.b ",
"H.4.$ _ 0 5 + M N 7.^ 2 _.2 ].~.y.(.*+=+! ~.y.).].2 < ).u 2 ].}.!.~.^ < l -+y.F.C.y.F.] l 2 ( 7.I ].] < I u.~.) N ] ^ o ; @ - . ",
"t '.$ ) # # h s 4 ) @ ( !.I [.v ;+9.>+,+/.n J.v _.).}., _.i [.E !.(.'+}.!.<.t.)+!+u.'+^.v L ~+<.l { 3 , l !.w I !.^.% 8 j ( d C ",
"H.'.$ - j 4 E 5.N 3 @ { u  .1 -.' ~.{+]+^+8.I.-.u 2 o / u G L 1.R ].}.3 B./+l (+B.-+^.'+I n L 8.4 k > < B.i 1.v ' ] ^ % r 0 # x ",
"t '.$ ~ u = ; x V < < { I !.I 4 /.E.^.E.s._+2.!.' { ~ 2 j 7 # # l $.}.< ;.l l ' l ~.)./ n 7 !.4 n ( & , v # 4 # ;./ o o # J = g.",
"Q '.g.~ N a > r 0 _ O $.;.r ] N ' $.! ~.N $.~.! [ { ; = !.r - k ;.{ u / 1 s.,+,+;.s.' _ >.; ~ k s # ( k v ; ] @ u ~ k @ ; - '.. ",
"t 0 h 7 U : a = A K c.5.>.{ r } q.:+<+%+[ [+{ { I G }+h.A # g.{ Z.5.}+7 q.$.~.!  .-.|+G G r M g. .z b.#.j.N M V.V [ w 7 } @ '.. ",
"Q K x z x @ - O V h.k.1+A O k t 2+3+%+4+[ [ U.N W y 5+*.W } g.k 5.1+j.5.&.' { 6+T.7+8+9+Z.} M r 0+d h.a+W N M M &.z s z t @ . b ",
"t + B # U : a 9 A x K s b+$.{ $.;.;.v G.2.' c+N V &.x 7 I O M k s  .7 I x.N.~.).1 Q.4 &.n t k {  .Z 7 7  .= , ) Z N N t [ a . b ",
"Q f % M N : M J # < _ j I ~.$.' ' 6.,+! E.9.r j ' N ).$.u $.( , [ $.z., q.E.y.9.1 $./ ).>.( j J s # / ~ !.].~.) u { ) @ t @ @ . ",
"0 '.$ ~ x u w H V < & ( 4 v d+n B.-+z.e+;+1 J.i !.( ] ).4 n w.4 !.j ] < v f+g+h+)+].^.^.1 i w.F n _./ ~ l I w v !.] }.o [ = K.C ",
"B '.$ - N E 7 F j 7.) J _.<.1 -.A.i+j+=+A.x.n k+_.( }.2 /.k+i s !.~.7.z.B.O.l+l+m+u.) z.!.8.i 8.)+(., ) !.1.v <._.] ^ o ; 0 x e ",
"0 . $ ~ u J j !.I 7.) 2 n+u B._+N.o+o+p+q+R B.;+u ~.}., _+n+!.( !.].r+}.q.l s+6.t+u+u.}.)+I # u i _., z.#+_.!.# I ] v+o [ J O M ",
"B '.- < j @ o 2 /., ].J # (.}.$.s.,+q+-+e+~.z.~.u ~.2 , 4 _., ).l 2 A.] N.A.*+]+!+e+w+] 1 $., , I ( j 2 l ( ] }.s.] ] : t ) '.. ",
"  H.y K [ : o J s 7 w.F 1 / ~.! !.)+x+y+z+6.e+{ _+ .J.H !.j / { n i .+I )+y.^.A+B+f+J.v x.( ] , v 1.b.n v r ] ~ v ' M.I [ C+'.b ",
"B K 7 H } : @ k x 5. .c. .2 $.j ;.%+D+/+C.N.u.$.!.i.5.d } t / ( 4 w %+n q.s.).-+t+P.%+k+>.u ( / s j.j.R.v ( ~ ] ;.l I  .j - $ b ",
"  + Q # 7 a & k A 0 s #.Z t $.N q.Q. .E+Q.F+{ N v b+ .7 A x = M 5.z I q.G+F+H+[+I+n  .I G U t t #.5.5.0+j.} / / n ' [ j W - $ . ",
"O % f J } @ k B } Q 9 } &.t x &.>.R X J+q.N V N U W t } U A V N Z W O } K+2.F+L+G+M+' V 5.V W r h.x   N N+U N k &.{ ) - 0 - > . ",
"  '.f ~ 4 4 c.H W O k #  .5.%.O.D+6.~.&+B+/+O+%+s V r $.s G P+5.j.4 { ~.O.f+Q+)+R+;.$.N 8+j.S+ .j.[ = { N+ .b. . .k V.T+x O d c ",
"O $ % ~ j s H R.# , ).u l M.#+U+V+E.u.E.z+W+X+P.!.u 2 k 4 3+G R.I /.u.~.G.Y+Z+Z+q._.u.).>.R.j.h  .u ~ , I v R.5.[ / ^ ^ r 0 x K ",
"C $ % ~ 7 ( g 7 !.7.] y.v n+1 x._+9.`+ @V+!+_+_+B.$.z.).1.v u # l ]..@] Q._++@@@1 y.^.z.x.B.4 4  ._.~ < 1 !.u /.v ] o o 4 J = + ",
"O $ - _ j 3 o ( u ] J (.A.(.^.! s.,+#@$@9.i+^.~./.(.2 , u %@) 7./.y.~..@B._.*+o+C.u+y.u.!.A.2 2 I ].D..@3.y.F.7.' z.z.^ ; - '.$ ",
"C ( y } 7 : o , I I w 1.l .@.@E.N.!+&@*@N.u..@i+/.x.d+3.!.].z.z.l n J.l t+e+`+`+=@h+&@)+(+].< '+#+1 -@1.x.E.}.) l /.Y+!.4 @ $ . ",
"= K 7 z t @ o , N v F k+/.].] A.N.;@>@y+,@6.u.! s.k+ .8.'@u , , B.U+k+n N.6.)@)@!+X+!@~@2.( z.(.l k+n k+B._.^.< [ I v i ( @ '.. ",
"C + B # 7 o @ 2 v u L i 1 _.].! l +@*@{@G.! i+N.2.s s v v u , 2 x.-.v u x.6.~.]+n Q.I C.%+_.2 / G v L L G ].] ] n _.u # V @ $ . ",
"= % : { N o / r 7 ( / 4 >.R N N N.C.]@^@' s.[ N.;.4 k ; 4 4 O r 4 V { $.(+R 6.e+t+C.E.j n R V r v I ( # G j N { ;.{ ) ~ $.- a . ",
"C f.: / A x c.z z B ~ U  .j./@3+%+L+L+(@_@/+:@G b+V U 0 b+a+P+#.++x } [ ++G+<@G+[@}@R $.9+9+P+5.|@U r r 0+>.b. .G / V.@ 4 = d 0 ",
"k $ f _   z #.j.V O O 7 0+3+7+1@T.2@3@G.(@4@4+7+Z Z r t A 1+9+i.Z V r ' T.P.5@6@Q.L+k ' b+a+7@a+Z.V k k Z.3+m i.q.X @ ) t C K K ",
"8@$ : ~ &.j K A z J { [ j.Z n G+Q.! E.N.+@Q.l G s ' $.k v  .7 x  .I ~.{ 9@n v t+E+s.~.$.N+5.G v G 4 r r G !.4 V n $.) ^ 7 = = 9 ",
"= $ @ _ $.~ & ( u , k r u /.{ s.&+! E. @E.s.,+;+[ ' u ( N R 2 ~.4 j ).u++@m+`+e+t+6._.).l u ).u v /.j J v ! ).)./.{ ).) ; ~ $ $ ",
"8@B y u ;.o < J ;.I w.i v (.] ;+h+*@0@a@s+A..@u+!.I.t.I.l u , 2 n i .+l b@ @-+p+R+)+x+1 f+/.2 2 f+<.d+I.8.( 7.^._+u [.4 ;.& $ b ",
"k K p H ( @ 3 ~._.i 8.M./.2 z.! ^+y+c@d@^+i+u+9.^+Y+#+#+/.A.z..@/.e@k+;@f@e+g@h@m+i@X+x.!._.7.z.l <.Y+k+j@).}.7.' B.<.H r @ $ . ",
"x + ; 0 I o @ 2 v /.'@l 1 (.(.#@s+!+k@k@s+ @u.(.B.<.3.3.j@].(.z.I.!.B.;+Q.6.,+*+l+!+k@/.l@A.z.2 l@'@1.:.l@y.^.z.)+' /.].!.@ $ . ",
"`.: % J t 3 , 2 4 J 2 /.!.z.].s.E.;+`+^+m@A. @u.A./., y.u ( ].^.n@!.,+=+!+ @o@j+h+N.`+! l ;+%@(._+:.u+A.B.(.~.).N.9.o ~ $.- a . ",
"x $ % - I # p@s s ~ J _.%+v O+O.x. @e+s.h+x.q@-.1 2.! j n F r@<.n ! (.E.W+$+x+*@s@f@u.)./+x.t@-.n u ].( G l J.1.T.~.) ^ V O F H.",
"`.'.: M #  .#.m W / r [ v 3+[.Q+b@u@E.J+m+v@P.3+2.l # u N w@w.3+;.[ ! $.D+Q+P.x@D+;.~.$.v 6@w.b. .V k t v j.w U+2.~.}.) r } A L.",
"U f f ~ Z } A z z r   Z #.z 3+G+y@(@r +@z@:+b+j.5.W } V #.A@z z N+W t 2.5@9@I+E+++t+2+L+B@C@i.z C@&.r U 7@0+b+;.:+k D@V.W O O + "};
