/* XPM */
static char * banana_frame_6_xpm[] = {
"32 32 6 1",
" 	c None",
".	c #413100",
"+	c #DE9C00",
"@	c #AC6A39",
"#	c #FFDE08",
"$	c #734A00",
"                                ",
"                                ",
"                                ",
"                                ",
"                                ",
"                                ",
"                                ",
"                                ",
"               .                ",
"              ..                ",
"              +.                ",
"             @#$.               ",
"             #+@$               ",
"            @#+$$               ",
"            @#+$$.              ",
"            +#+@$.              ",
"            +++@$.              ",
"            @#++@$              ",
"            $##+++.             ",
"             ####+$             ",
"             @####+             ",
"              ####+.            ",
"              @###+$            ",
"               @++$.            ",
"                                ",
"                                ",
"                                ",
"                                ",
"                                ",
"                                ",
"                                ",
"                                "};
