/* XPM */
static char * banana_frame_4_xpm[] = {
"32 32 6 1",
" 	c None",
".	c #734A00",
"+	c #DE9C00",
"@	c #413100",
"#	c #FFDE08",
"$	c #AC6A39",
"                                ",
"                                ",
"                                ",
"                                ",
"                                ",
"                                ",
"                                ",
"                                ",
"              ..                ",
"              +@                ",
"             +.                 ",
"            +#.                 ",
"           $#+.                 ",
"          @#++.                 ",
"          $#++.@                ",
"          ++++.@                ",
"          $++$.@                ",
"          $+$$.@@               ",
"           $....@@              ",
"           ........@            ",
"            @........           ",
"             @@@@@@@@@          ",
"               @@@@@@           ",
"                                ",
"                                ",
"                                ",
"                                ",
"                                ",
"                                ",
"                                ",
"                                ",
"                                "};
