/* XPM */
static char * banana_frame_1_xpm[] = {
"32 32 6 1",
" 	c None",
".	c #413100",
"+	c #DE9C00",
"@	c #AC6A39",
"#	c #734A00",
"$	c #FFDE08",
"                                ",
"                                ",
"                                ",
"                                ",
"                                ",
"                                ",
"                                ",
"                                ",
"                 .              ",
"                .+              ",
"                 +@             ",
"                 ++#            ",
"                 $++.           ",
"                .$++#           ",
"                @$++#.          ",
"                @$++#.          ",
"                $+++#.          ",
"               @$++@..          ",
"              @$$+@#..          ",
"            #+$$+@#..           ",
"          @$$$$+@#..            ",
"          +$$$+##..             ",
"          #+###..               ",
"            ..                  ",
"                                ",
"                                ",
"                                ",
"                                ",
"                                ",
"                                ",
"                                ",
"                                "};
