/* XPM */
static char * banana_frame_3_xpm[] = {
"32 32 6 1",
" 	c None",
".	c #AC6A39",
"+	c #DE9C00",
"@	c #734A00",
"#	c #FFDE08",
"$	c #413100",
"                                ",
"                                ",
"                                ",
"                                ",
"                                ",
"                                ",
"                                ",
"                                ",
"                 .              ",
"                ..              ",
"                +@              ",
"               @#@              ",
"               ##@              ",
"               #+@              ",
"              ##+@$             ",
"             @##+@$             ",
"             @++.@$             ",
"             .++@$$             ",
"             $..@$$$            ",
"              @@@$$$            ",
"              $@$$$$            ",
"               $$$$$            ",
"                 $$             ",
"                                ",
"                                ",
"                                ",
"                                ",
"                                ",
"                                ",
"                                ",
"                                ",
"                                "};
