/* XPM */
static char * banana_frame_7_xpm[] = {
"32 32 6 1",
" 	c None",
".	c #413100",
"+	c #734A00",
"@	c #DE9C00",
"#	c #AC6A39",
"$	c #FFDE08",
"                                ",
"                                ",
"                                ",
"                                ",
"                                ",
"                                ",
"                                ",
"                                ",
"               .                ",
"               ..               ",
"               .+.              ",
"               @@#.             ",
"               @@#+             ",
"              #@@#+             ",
"              #@@#+.            ",
"              @@@#+.            ",
"              @@@@+.            ",
"             +$$$@+.            ",
"             #$$$@+             ",
"             @$$$@+             ",
"             $$$$#.             ",
"             $$$@+.             ",
"            +$$$+.              ",
"            .#+++               ",
"                                ",
"                                ",
"                                ",
"                                ",
"                                ",
"                                ",
"                                ",
"                                "};
