/* XPM */
static char * blue_key_xpm[] = {
"16 16 8 1",
" 	c None",
".	c #1C2270",
"+	c #99D9EA",
"@	c #2F3699",
"#	c #00B7EF",
"$	c #709AD1",
"%	c #4D6DF3",
"&	c #FFFFFF",
"        .       ",
"       .+@      ",
"      .@++@     ",
"     .@#+#+@    ",
"    .@#$+%#+@   ",
"   .@@@@&$$$$@  ",
"    .%#+%@#$@   ",
"     .%#%#$@    ",
"      .%%$@     ",
"       @&@      ",
"       @+@      ",
"    @@ @&@      ",
"    @#@#+@      ",
"    @$#$$@      ",
"    @@@@@@      ",
"                "};
