/* XPM */
static char * chicken_xpm[] = {
"64 64 182 2",
"  	c None",
". 	c #B0BB34",
"+ 	c #9EB53B",
"@ 	c #A0B62A",
"# 	c #C4C64E",
"$ 	c #A9B438",
"% 	c #9CB933",
"& 	c #99B62E",
"* 	c #9FBB3A",
"= 	c #A7C24A",
"- 	c #92AE32",
"; 	c #C6B13F",
"> 	c #C1BE60",
", 	c #9DB327",
"' 	c #95B01F",
") 	c #A1BE41",
"! 	c #9CBC43",
"~ 	c #A2BC49",
"{ 	c #A0B840",
"] 	c #9AB742",
"^ 	c #97B53B",
"/ 	c #97B238",
"( 	c #99AD38",
"_ 	c #A5C252",
": 	c #ACC462",
"< 	c #87A836",
"[ 	c #8AAC38",
"} 	c #A3BC5D",
"| 	c #A4BD52",
"1 	c #9FBA47",
"2 	c #E6C281",
"3 	c #DDB36A",
"4 	c #99B93E",
"5 	c #90B237",
"6 	c #A6BF57",
"7 	c #83A236",
"8 	c #7D9D32",
"9 	c #99B551",
"0 	c #A0BB51",
"a 	c #DFB979",
"b 	c #A4B931",
"c 	c #96B327",
"d 	c #91AF41",
"e 	c #8BA643",
"f 	c #A5AB83",
"g 	c #99A669",
"h 	c #829B41",
"i 	c #D6A961",
"j 	c #D4AE70",
"k 	c #696242",
"l 	c #72833D",
"m 	c #503D37",
"n 	c #604E47",
"o 	c #88A047",
"p 	c #A5BA4D",
"q 	c #CBA956",
"r 	c #C9A053",
"s 	c #ABC157",
"t 	c #636837",
"u 	c #A09F53",
"v 	c #B6B764",
"w 	c #918C3F",
"x 	c #685A53",
"y 	c #7C9044",
"z 	c #99B15C",
"A 	c #9EB748",
"B 	c #C99A4C",
"C 	c #BBA04D",
"D 	c #D0A15D",
"E 	c #ABC659",
"F 	c #BBD068",
"G 	c #616235",
"H 	c #DADA99",
"I 	c #7B884A",
"J 	c #9FB859",
"K 	c #9EB850",
"L 	c #C79552",
"M 	c #BD944D",
"N 	c #ABC54F",
"O 	c #A1BF4A",
"P 	c #94B344",
"Q 	c #4A362D",
"R 	c #79814D",
"S 	c #E3E1A8",
"T 	c #DFDEA1",
"U 	c #A29C40",
"V 	c #CEB155",
"W 	c #C18E4C",
"X 	c #AD844A",
"Y 	c #B89051",
"Z 	c #B5CA55",
"` 	c #A6C045",
" .	c #879359",
"..	c #CBCB7D",
"+.	c #E7E5B0",
"@.	c #A8A441",
"#.	c #726E3E",
"$.	c #758B3B",
"%.	c #93AA55",
"&.	c #B49A4E",
"*.	c #534C31",
"=.	c #B4BC86",
"-.	c #D5D58F",
";.	c #6B6943",
">.	c #C1A13C",
",.	c #C3A066",
"'.	c #A7BC37",
").	c #ABC150",
"!.	c #B0C858",
"~.	c #A8AB67",
"{.	c #9A9543",
"].	c #A1B768",
"^.	c #9FB13D",
"/.	c #B28D4F",
"(.	c #D3C353",
"_.	c #AABF3C",
":.	c #B2C74F",
"<.	c #9CB447",
"[.	c #BFC179",
"}.	c #57463D",
"|.	c #5A5334",
"1.	c #A9C35A",
"2.	c #B6B33E",
"3.	c #B99B3E",
"4.	c #BA8A51",
"5.	c #C89B5C",
"6.	c #B5BE42",
"7.	c #91A933",
"8.	c #817C41",
"9.	c #82845C",
"0.	c #6D7442",
"a.	c #B1C65E",
"b.	c #AEC357",
"c.	c #C48D3C",
"d.	c #B49557",
"e.	c #B0C448",
"f.	c #B7CC5E",
"g.	c #868441",
"h.	c #727B45",
"i.	c #819648",
"j.	c #B5CB6B",
"k.	c #A5BB43",
"l.	c #BC8344",
"m.	c #ADC241",
"n.	c #7B7540",
"o.	c #726E53",
"p.	c #889C52",
"q.	c #BCD17D",
"r.	c #AB8A4D",
"s.	c #BF955A",
"t.	c #AEB842",
"u.	c #B1C876",
"v.	c #94AF4F",
"w.	c #AFC767",
"x.	c #A8BE49",
"y.	c #BF9A53",
"z.	c #A97D43",
"A.	c #90AB44",
"B.	c #799537",
"C.	c #BFC047",
"D.	c #BEA93A",
"E.	c #9D793C",
"F.	c #A8BF50",
"G.	c #AF9446",
"H.	c #B27F48",
"I.	c #A28146",
"J.	c #A67844",
"K.	c #A9733F",
"L.	c #B07A42",
"M.	c #9D7340",
"N.	c #98B043",
"O.	c #B48F3D",
"P.	c #93703A",
"Q.	c #9E6C3C",
"R.	c #A98941",
"S.	c #8A6739",
"T.	c #8B6138",
"U.	c #C4AD4C",
"V.	c #ADA94F",
"W.	c #785431",
"X.	c #6F4B2C",
"Y.	c #60442E",
"                                                                                                                                ",
"                                                                                                                                ",
"                                                                                                                                ",
"                                                                                                                                ",
"                                                                                                                                ",
"                                                                                                                                ",
"                                                                                                                                ",
"                                                                                                                                ",
"                                                                                                                                ",
"                                                                                                                                ",
"                                                                                                                                ",
"                                                                                                                                ",
"                                                                                                                                ",
"                                                                                                                                ",
"                                                                                                                                ",
"                                                                                                                                ",
"                                                                                                                                ",
"                                                                                                                                ",
"                                                                                                                                ",
"                                                                                                                                ",
"                                                                                                                                ",
"                                                                                                                                ",
"                                                                                                                                ",
"                                                                                                                                ",
"                                                                                                                                ",
"                                                                                                                                ",
"                                                                                                                                ",
"                                                                                                                                ",
"                                                                                                                                ",
"                                                                                                                                ",
"                                                                                                                                ",
"                                                                                                                                ",
"                                                                                                                                ",
"                                                              . + @ #                                                           ",
"                                                          $ % & * = + - + ;                                                     ",
"                                                      > , ' ) = ! ~ { ] ^ /                                                     ",
"                                                    ( * % _ ! : < [ < } | 1 2 3                                                 ",
"                                                    % 4 5 _ [ 6 7 8 9 < 0 1 ( 3 a                                               ",
"                                                  b c % 4 d < e f g h 9 9 0 5 i j                                               ",
"                                                @ & * ! 4 k l m l n o o } p / q r 2                                             ",
"                                              ' % * s - 9 t u v w x y z A : + B C D                                             ",
"                                              ' & E F < e G H H v k I J K : ^ ; L M j                                           ",
"                                              b % N O P Q R S T U m I z } 0 / V W X Y                                           ",
"                                            . Z = ` h Q  ...+.H @.#.$.%.d 1 A r &.B L 2                                         ",
"                                            b = ) c e *.=.T +.-.u ;.%.} 0 A - >.B Y i ,.                                        ",
"                                            '.).!.O ( Q ~.S S v {.k ].J | { ^.>.&./.Y D                                         ",
"                                          (._.:.F = <.Q [.+.H }.|.g y 0 1.1 2.3.4.5.Y 5.                                        ",
"                                          6.:.Z = 7.8.t H +.w 8.9.0.: a.b.N c.L M d.W i                                         ",
"                                          . e.:.f.- *.;.[...g.0.h.i.<.j.).k.X l.d.Y W D                                         ",
"                                          _.m.!.E ~ h 8.9.n.o.h.p.e q.).).{ Y r.s.r.r                                           ",
"                                          t.e.!._ 7 i.Q R G 0.u.v.w.x.k.x.; M /.y.z.l.                                          ",
"                                            x.| 1.A.d B.p.o z A s j.k.C.D.4.r.E./.s.                                            ",
"                                            t.b.^ : P J e J J F.b.j.+ D.G.H.I.J.Y                                               ",
"                                              A O 6 0 w.0 { ^ a.a.k.>.K.L.M.z.J.X                                               ",
"                                              ( K N.J : : s s k.; O.M.P.M.P.Q.                                                  ",
"                                                z <.} K A | > >.R.E.P.S.T.T.                                                    ",
"                                                    s.U.V.D z.Q.P.W.X.X.W.                                                      ",
"                                                            Y.Y.                                                                ",
"                                                                                                                                ",
"                                                                                                                                ",
"                                                                                                                                ",
"                                                                                                                                ",
"                                                                                                                                ",
"                                                                                                                                "};
