/* XPM */
static char * door_y_xpm[] = {
"64 64 285 2",
"  	c #393939",
". 	c #202020",
"+ 	c #101010",
"@ 	c #292929",
"# 	c #000000",
"$ 	c #342206",
"% 	c #48340A",
"& 	c #241A04",
"* 	c #372904",
"= 	c #382A04",
"- 	c #382B04",
"; 	c #4B3908",
"> 	c #241C04",
", 	c #392C03",
"' 	c #251D03",
") 	c #392D03",
"! 	c #4C3B07",
"~ 	c #3A2D03",
"{ 	c #3A2E03",
"] 	c #261E03",
"^ 	c #2A2929",
"/ 	c #3D3301",
"( 	c #524700",
"_ 	c #282300",
": 	c #3E3600",
"< 	c #3E3500",
"[ 	c #2E2A19",
"} 	c #5A4E00",
"| 	c #25241E",
"1 	c #524601",
"2 	c #786800",
"3 	c #504402",
"4 	c #212020",
"5 	c #212120",
"6 	c #23221F",
"7 	c #262002",
"8 	c #272201",
"9 	c #2B281B",
"0 	c #26241D",
"a 	c #272101",
"b 	c #302C17",
"c 	c #27251D",
"d 	c #3D3401",
"e 	c #221506",
"f 	c #403800",
"g 	c #584903",
"h 	c #182018",
"i 	c #201000",
"j 	c #291800",
"k 	c #181818",
"l 	c #101000",
"m 	c #18150A",
"n 	c #434035",
"o 	c #22211F",
"p 	c #391808",
"q 	c #392908",
"r 	c #17150B",
"s 	c #50492F",
"t 	c #3C3301",
"u 	c #4A2010",
"v 	c #412010",
"w 	c #231700",
"x 	c #3E381E",
"y 	c #37310F",
"z 	c #574803",
"A 	c #523910",
"B 	c #525252",
"C 	c #5A5A52",
"D 	c #626262",
"E 	c #414141",
"F 	c #221600",
"G 	c #3B340A",
"H 	c #2B2A28",
"I 	c #25231E",
"J 	c #584A02",
"K 	c #141300",
"L 	c #594B02",
"M 	c #312E26",
"N 	c #6E600D",
"O 	c #574704",
"P 	c #131200",
"Q 	c #4E440B",
"R 	c #333025",
"S 	c #3D3501",
"T 	c #203120",
"U 	c #412000",
"V 	c #8B4A08",
"W 	c #13120E",
"X 	c #4A4112",
"Y 	c #353223",
"Z 	c #574604",
"` 	c #522900",
" .	c #733100",
"..	c #7B3900",
"+.	c #9C5210",
"@.	c #12110F",
"#.	c #463D17",
"$.	c #393421",
"%.	c #3B3102",
"&.	c #564504",
"*.	c #111010",
"=.	c #736006",
"-.	c #4E4004",
";.	c #3F391D",
">.	c #4A2000",
",.	c #622900",
"'.	c #20201F",
").	c #1F1F1F",
"!.	c #21201F",
"~.	c #414A41",
"{.	c #13120F",
"].	c #1D1A0A",
"^.	c #181400",
"/.	c #2B2204",
"(.	c #2D2304",
"_.	c #281C06",
":.	c #131210",
"<.	c #231905",
"[.	c #241B04",
"}.	c #1A1708",
"|.	c #1B1807",
"1.	c #1A1807",
"2.	c #050400",
"3.	c #2C2304",
"4.	c #3F3601",
"5.	c #504400",
"6.	c #524600",
"7.	c #514601",
"8.	c #1C190F",
"9.	c #2C2204",
"0.	c #4F4302",
"a.	c #544900",
"b.	c #5C5000",
"c.	c #564B00",
"d.	c #533E08",
"e.	c #1F1C0F",
"f.	c #594D01",
"g.	c #2A271A",
"h.	c #504302",
"i.	c #584C00",
"j.	c #726300",
"k.	c #645700",
"l.	c #654E0D",
"m.	c #26210F",
"n.	c #AC6218",
"o.	c #776602",
"p.	c #4F4202",
"q.	c #5E5200",
"r.	c #766600",
"s.	c #544207",
"t.	c #293129",
"u.	c #514501",
"v.	c #040300",
"w.	c #746500",
"x.	c #534207",
"y.	c #212517",
"z.	c #4E4202",
"A.	c #4E3D07",
"B.	c #222517",
"C.	c #574703",
"D.	c #040400",
"E.	c #524502",
"F.	c #706100",
"G.	c #564407",
"H.	c #1E1B0F",
"I.	c #514402",
"J.	c #070600",
"K.	c #625204",
"L.	c #5C4E02",
"M.	c #584B00",
"N.	c #7A6A00",
"O.	c #6D560D",
"P.	c #2F2200",
"Q.	c #756403",
"R.	c #27251F",
"S.	c #3D3202",
"T.	c #544801",
"U.	c #827100",
"V.	c #6F590C",
"W.	c #28230F",
"X.	c #887600",
"Y.	c #2A271B",
"Z.	c #302E25",
"`.	c #3E3202",
" +	c #4E4301",
".+	c #6D560C",
"++	c #2B2C17",
"@+	c #756304",
"#+	c #4A4111",
"$+	c #24231E",
"%+	c #312E25",
"&+	c #2C2C17",
"*+	c #443C19",
"=+	c #322F25",
"-+	c #564702",
";+	c #664E0E",
">+	c #27220F",
",+	c #725E07",
"'+	c #4F4203",
")+	c #393422",
"!+	c #1A2117",
"~+	c #2A2928",
"{+	c #182017",
"]+	c #181817",
"^+	c #11110F",
"/+	c #252511",
"(+	c #232011",
"_+	c #19170B",
":+	c #18160B",
"<+	c #181600",
"[+	c #19170A",
"}+	c #1A1809",
"|+	c #191709",
"1+	c #21201D",
"2+	c #080600",
"3+	c #251B04",
"4+	c #2C2601",
"5+	c #2D2700",
"6+	c #2F2900",
"7+	c #332C00",
"8+	c #2A2300",
"9+	c #352E00",
"0+	c #2E2700",
"a+	c #282200",
"b+	c #272002",
"c+	c #060500",
"d+	c #1E1E1E",
"e+	c #0B0900",
"f+	c #0F0C00",
"g+	c #504500",
"h+	c #2C2600",
"i+	c #383100",
"j+	c #4E4400",
"k+	c #6E5F00",
"l+	c #3C3400",
"m+	c #423900",
"n+	c #302A00",
"o+	c #262000",
"p+	c #0A0900",
"q+	c #201F1F",
"r+	c #2B281A",
"s+	c #393001",
"t+	c #2B2500",
"u+	c #3C3300",
"v+	c #342D00",
"w+	c #605300",
"x+	c #322B00",
"y+	c #3A3200",
"z+	c #2A2400",
"A+	c #392F01",
"B+	c #22221F",
"C+	c #1E1B0C",
"D+	c #3D3500",
"E+	c #4C4200",
"F+	c #483F00",
"G+	c #2E2A1A",
"H+	c #4F4401",
"I+	c #2F2D27",
"J+	c #2F2B1A",
"K+	c #625500",
"L+	c #403E35",
"M+	c #221E0D",
"N+	c #554A01",
"O+	c #2E2800",
"P+	c #544802",
"Q+	c #433F34",
"R+	c #211E0D",
"S+	c #444033",
"T+	c #201C0D",
"U+	c #5A4D02",
"V+	c #574902",
"W+	c #564902",
"X+	c #705F03",
"Y+	c #605202",
"Z+	c #2F2801",
"`+	c #554802",
" @	c #5C4F02",
".@	c #746203",
"+@	c #383001",
"@@	c #726103",
"#@	c #524602",
"$@	c #5E5002",
"%@	c #2B2401",
"&@	c #413701",
"*@	c #343125",
"  . . . . . . . . . . . . . . . . . . . . . . . . . . . . . . . . . . . . . . . . . . . . . . . . . . . . . . . . . . . . . . + ",
"  . . . . . . . . . . . . . . . . . . . . . . . . . . . . . . . . . . . . . . . . . . . . . . . . . . . . . . . . . . @ . . . + ",
"  . . . . . . . . . . . . . . . . . . . . . . . . . . . . . . . . . . . . . . . . . . . . . . . . . . . . . . . . . . . . . . . ",
"  . . . . @ . . . . . . . . . . . . . . . . . . . . . . . . . . . . . . . . . . . . . . . . . . . . @ . . . . . . . . . . . . . ",
"  . . . . . . . .   . . . . . . . . . . . . . . . . . . @ . . . . . . . @ . . . . . . . . . . . . . . . . .   . . . @ . . . . . ",
"  . . . . . . . . .   . . . . . . . . . . . . . . . . . . . . # # # # . . . . . . . . . . . . . . . . . .   . . . . . . . . . . ",
"  . . . . . . @ . . .   . . . . $ % & & & * & * * = - - ; > - ; > , ' ) ' ) ) ! ~ { { ] ] ] { ) @ . . .   . . . . . . . . . . + ",
"  . . . . . . . . . . .   . . ^ / ( _ _ : ( : : ( : : ( ( : ( ( _ ( : ( : ( ( ( : ( ( : _ _ : < . . .   . . . . . . . . . . . . ",
"  . . . . . . . . . . . . . . [ ( ( _ _ ( } ( ( } ( : ( ( ( ( ( _ ( ( ( : ( ( } ( ( : ( _ _ : : | . . . . . . . . . @ @ . . . + ",
"  . . . . . . . . . . . . . # 1 ( ( _ _ ( } : ( } ( ( } 2 } ( } _ } ( ( ( ( } 2 ( ( ( ( _ _ : ( 3 # . . . . . . . . . . . . . + ",
"  . . . . . . . . . . . . # ( ( ( ( _ _ ( } : ( 2 ( ( 2 2 ( ( } _ 2 ( ( ( ( 2 2 ( ( ( ( _ _ ( ( ( < # . . . . . . . . . . . . . ",
"  . . . . . . . . . . 4 # ( ( ( ( ( _ _ ( 2 : ( 2 ( ( 2 2 } ( } _ 2 } ( ( ( 2 2 ( ( ( ( _ _ ( ( ( : : # 5 . . . . . + . . . . + ",
"  . . . @ . . . + # # # ( ( ( ( ( ( _ _ ( 2 ( ( 2 } ( 2 2 ( } } _ } 2 ( ( ( } 2 ( ( ( ( _ _ ( ( ( ( ( ( # | . + . . . . . . . + ",
"  . . . . . . . + 6 7 : : ( ( ( ( : _ : ( } } 2 } } ( 2 2 } } ( _ } 2 } } ( } 2 ( ( ( ( _ _ ( ( ( ( ( ( : 8 9 + . . @ . . . . + ",
"  . . . . + . . 0 a : ( ( ( ( ( ( : _ _ ( } } 2 } } ( 2 2 ( ( ( _ } 2 } } ( } 2 ( ( ( ( _ _ } } ( 2 ( ( ( : _ b . . @ . . . . + ",
"  . . . . . . c d : ( ( } ( ( } ( ( _ _ } } } 2 } } ( 2 2 ( ( ( _ } 2 } } ( } } 2 ( } ( _ _ } } 2 2 } ( ( ( : d @ . @ . . . . + ",
"  . . . . . . e f ( ( } 2 ( ( g h h i i + i + i j i + i i + k + i i + i + + i + + i i l + h + m 2 } } ( } ( ( f n . @ . . . . . ",
"  . . . . + . o : ( ( 2 } 2 ( g h . p p . p . p q p . p p . . . p p . p . . p h . p p j h h + r 2 } } ( } ( ( : s .   . . . . + ",
"  . . . . . . # t ( } 2 } 2 ( g i . @ q @ . . . h @ . . . @   . u v @ @ .   v . v v @ @ . @ h w 2 } 2 } } } ( : x .   . . . . + ",
"  . . . . . . # y } } 2 } 2 ( z i . @ q A     B C B D B   B E       E B   E   @       B @ . . F 2 } 2 2 2 } } G H .   . . . . . ",
"  . . . . . . # I J } 2 } 2 } z + @ q         @ .           B   B       @     @         @ . h K 2 } 2 2 2 } L | @ . @ . . @ . + ",
"  . . . . + . . . M N 2 } 2 } O i p .   A   . . k + . . @ @   @   .     @ . . . k + . . . . h P 2 } 2 2 2 Q c . . . @ . . . . . ",
"  @ @ . . .   . . . R S ( } } O l j . T A . k U V U + . . @   . . . . . + . k U V U + .   . + W 2 } 2 } X 6 . . .   . . . . . . ",
"  . . . . . .   . . . Y < ( } Z i . @   B   + j U . + p `  ...+.....` ` U . + j U . + .   . + @.} } } #.5 . . .   . . . . . . + ",
"  . . . . . . .   . . . $.%.3 &.i @ @   E . + . . . +  .j j j j j j j j j . + j . . + .   @ k *.=.-.;.. . . .   . . . . . . . + ",
"  . . . . . . . .   . @ . . . . i . @   E T k + + + k +.j + + + k + + + U . k + + + k . @ . k + . . . . . .   . . . . . . . . . ",
"  . . . . @ . . . . . . . . . . h @ @   E @ . + k . . +.j + k . . . . h ` . k . . k . . . . k + . . . . @ . . . . . . . . . . . ",
"  . . . . . . . . . . . . . . . h @ @   E @ . . . . k ... h @ . . . @ h ` . . . . . .   @ . k + . . . . . . . . . . . . . . . + ",
"  . . . . . . . . . . . . . . . h .     E @ >.>. . .` ,.j + . . . . . . ` j ,. .,.>.j .   . h + . . . . . . . . . . . . . . . + ",
"  . . . . . . . . . '.).'.!.'.'.+ @ @ @ E . ..j j j j j . .   ~.B E   . >.j j j j >.j k   . + + . . . . . . . . . . . . . . . + ",
"  . . . . . . . + {.].^./.(.(._.:.@     E   ..j + + + + +   . # # # k E . + + k + ,.j +   . h + <.& & [.# }.|.1.. . . . . . . + ",
"  . . . . + . . 2.3.4.5.6.6.7.; 8.. @   E   +.. + . . @ .   # # # # #   + . h k +  .j k   . k + 7.( ( ( ( : _ # . . + . . . . . ",
"  . . . . + . o 9.0.a.( ( b.c.d.e.. T   E   +.. + . @ @ @ E # # # # # E + . . @ j ..j .   @ k + f.( } ( ( ( ( 8 @ . . . . . . + ",
"  . . . . . . g.h.b.i.a.a.j.k.l.m.. @   E T n.. + . .   @   . # # # . B h . . . j V j .   . h l o.} 2 ( ( } } J   . @ . . . . + ",
"  . . . . . . 2.p.j.q.a.a.j.r.s.8.. @ @   t.+.. + . @     @ E # # # B   .   @ . j  .j @ T . + + u.2 2 ( ( ( 2 h.  .   . . . . . ",
"  . @ . . . . v.p.j.r.q.a.j.w.x.y.. @   E   ... + h . @ . . E # # #   . h @ @ . j >.j @ @ . + + u.2 2 ( } 2 2 z   .   . . . . . ",
"  . . . . . . v.z.j.2 b.a.j.k.A.B.. @   E   ` U U U U U U k   # # #   @ ` ` ` ` ` ` j . T . h + u.} 2 ( ( 2 2 C.@ .   . . . . + ",
"  . . . . . . D.E.F.w.} a.j.r.G.H.@ @   E   j j j j j j j +   + + +   . ` j + j j j j . @ . i + I.2 2 ( ( 2 2 O @ . @ . . . . + ",
"  . . . . + . J.K.L.M.i.c.j.N.O.P.. @   B   @ @ . . + ` j +           . ` j i k . . + . B . i + Q.2 2 ( } } ( -.@ . @ . . . . + ",
"  . . . . + . . R.R S.T.a.F.U.V.W.@     B   . . k + . V j + . + + + + . ` j k + k + . .   . + + Q.X.2 ( } ( 3 Y.. . @ . . . . . ",
"  . . . . .   . . 4 Z.`. +} w..+++@ @   B   k U V U + ..j + k k . . k k ` j + U V U + . @ . + + @+2 } ( ( #+$+. .   . . . . . + ",
"  . . . . . .   . . 5 %+`.T.F..+&+@ @   E @ + j   j + ,.p >. ...V  .,.U ` j + j U . + . . . + + @+2 ( ( *+5 . .   . . . . . . . ",
"  . . . . . . .   . . 5 =+`.-+;+>+. @   E . + . . j + j j j j j j j j j j j + j . . + .   . + l ,+'+-.)+. . .   . . . . . . . . ",
"  . . . . . . . .   . . . . . . k @ @   E @ k + + + + + + + . . @ . h . @ . k + + + k k   . i l . . . . . .   . . . . . . . . + ",
"  . . . . . . . . . . . . . . . . @ T T   . @ . . @ . @ @ . @     E .     . . . . k .     . h l . . . . . . . . . . . @ @ . . + ",
"  . . . . . . . . . . . . . . . k . @   . + k . h k k . . k . @ . . . . . . k k k k . . . @ h + . . . . . . . . . . . . . . . + ",
"  . . . @ . . . . . . . . . ).).!+!.~+'.*.*.{+]+{+]+]+]+]+]+]+]+]+]+]+]+]+]+'.{+]+{+]+]+{+'.^+^+).).).. . . . . . . . . . . . . ",
"  . . . . . . . . . . . '.2.2.J./+(+/+_+:+:+:+:+:+:+<+[+[+[+[+<+[+[+[+[+[+[+[+[+[+[+}+}+}+}+}+|+2.v.2.1+).. . . . . . . . . . . ",
"  . . . . . . . . ).).2+3+4+5+6+7+5+8+8+7+7+5+5+8+5+5+5+5+6+9+7+8+7+9+9+9+7+5+8+5+8+0+0+a+a+0+7+0+0+5+b+c+d+d+).. . + . . . . + ",
"  . . . . . . o e+2.f+a 7+g+g+} F.c.h+i+j.j.( j+f g+g+g+g+} w.k+l+j.j.j.w.j.( m+j+m+g+( h+n+i.F.i.g+j+n+o+p+2.J.q+. . . . . . + ",
"  . . . . . 5 r+s+t+u+v+g+a.( c.w.i.h+i+r.w.c.g+m+( i.i.a.q.r.j.: j.q.w+r.j.c.( ( ( a.c.h+n+b.j.a.( a.j+x+y+z+A+B+. @ . . . . + ",
"  . . . . + . C+D+x+g+g+a.i.g+E+j.i.h+i+r.w.c.g+f ( } } i.q.r.j.: j.b.w+w.q.b.c.a.a.i.c.h+n+b.j.F+( i.a.g+j+n+d 6 .   . . . . + ",
"  . . . . + 5 G+H+m+( a.b.b.a.c.w.i.h+i+r.w.( f f ( } } } q.r.j.: j.q.w.j.q.j.F.} a.} c.h+n+b.w.a.a.b.b.a.g+m+p.I+.   . . . . + ",
"  . . . . + 5 J+7.c.a.w+w.w.q.i.w.i.h+i+w.w.a.f f g+i.} } q.r.j.: j.K+w.q.} } } i.i.} c.h+n+b.w.c.w+w.w.q.a.c.3 L+.   . @ . . + ",
"  . . . . . . M+N+j.q.w.2 2 F.} w.} h+x+q.F.i.f : m+a.} } w+r.j.: r.r.w.q.i.a.a.a.} q.i.h+O+c.j.} j.2 2 w.q.j.P+Q+. @ . . . . . ",
"  . . . @ . . R+N+F.q.w.r.j.q.b.w.F.n+n+c.} ( f : f ( } q.w.2 F.: r.2 r.j.} a.( a.b.j.F.n+O+a.F.} q.w.r.j.q.F.P+S+. @ . . . . + ",
"  . . . . + . T+E.U+V+W+U+L W+X+Y+X+Z+Z+`+L `+4.d 4.I.L  @.@.@L +@.@@@Y+@@L #@I.#@L $@X+Z+%@&@ @X+P+U+U+P+L L '+*@. @ . . . . + ",
"  . . . . . . .                                         @ . .                                                   . . @ . . . . . ",
"  . . . . . . . . . . . . . . . . . . . . . . . . . . . . . . . . . . . . . . . . . . . . . . . . . . . . . . . . . @ . . . . + ",
"  . @ . . .                       @ . .                   @ .   .       @                                           . . . . . . ",
"  . . . . . . . . . . . . . . . . . . . . . . . . . . . . . . . . . . . . . . . . . . . . . . . . . . . . . . . . . . . . @ . . ",
"  . . . . . . . . . . . . . . . . . . . . . . . . . . . . . . . . . . . . . . . . . . . . . . . . . . . . . . . . . . . . . . + ",
"@ . . . . . . . . . . . @ . . . . . . . . . . . . . . . . . . . . . . . . . . . @ @ . . . . . . . . . . . . . . . . . . . . . . ",
". . + + . . + + . . + + . + + + + . + + + + + . + + . . + + + + + + + + . . + + . + + + + + . + + + + . + + . . + + . . + + . . "};
