/* XPM */
static char * door_r_xpm[] = {
"64 64 287 2",
"  	c #393939",
". 	c #202020",
"+ 	c #101010",
"@ 	c #292929",
"# 	c #000000",
"$ 	c #351406",
"% 	c #4A170A",
"& 	c #250904",
"* 	c #390F04",
"= 	c #3A0E04",
"- 	c #4C1308",
"; 	c #260804",
"> 	c #3B0C03",
", 	c #260703",
"' 	c #4E1107",
") 	c #3C0B03",
"! 	c #3C0A03",
"~ 	c #270603",
"{ 	c #2A2929",
"] 	c #3F0401",
"^ 	c #550000",
"/ 	c #2A0000",
"( 	c #410000",
"_ 	c #410100",
": 	c #2F1919",
"< 	c #5E0000",
"[ 	c #261E1E",
"} 	c #540101",
"| 	c #7E0000",
"1 	c #530502",
"2 	c #212020",
"3 	c #241F1F",
"4 	c #280402",
"5 	c #290101",
"6 	c #2C1B1B",
"7 	c #271D1D",
"8 	c #290201",
"9 	c #321717",
"0 	c #281D1D",
"a 	c #400201",
"b 	c #220D06",
"c 	c #430000",
"d 	c #5B0703",
"e 	c #182018",
"f 	c #201000",
"g 	c #291800",
"h 	c #181818",
"i 	c #101000",
"j 	c #180A0A",
"k 	c #443535",
"l 	c #221F1F",
"m 	c #5B0803",
"n 	c #391808",
"o 	c #392908",
"p 	c #170B0B",
"q 	c #532F2F",
"r 	c #4A2010",
"s 	c #412010",
"t 	c #230C00",
"u 	c #401E1E",
"v 	c #3A0F0F",
"w 	c #5B0903",
"x 	c #523910",
"y 	c #525252",
"z 	c #5A5A52",
"A 	c #626262",
"B 	c #414141",
"C 	c #3E0A0A",
"D 	c #2B2828",
"E 	c #251E1E",
"F 	c #5C0602",
"G 	c #5A0903",
"H 	c #140D00",
"I 	c #5C0402",
"J 	c #322626",
"K 	c #740D0D",
"L 	c #5A0A04",
"M 	c #140E00",
"N 	c #500B0B",
"O 	c #342525",
"P 	c #203120",
"Q 	c #412000",
"R 	c #8B4A08",
"S 	c #130E0E",
"T 	c #4C1212",
"U 	c #231F1F",
"V 	c #362323",
"W 	c #400100",
"X 	c #5A0B04",
"Y 	c #522900",
"Z 	c #733100",
"` 	c #7B3900",
" .	c #9C5210",
"..	c #120F0F",
"+.	c #481717",
"@.	c #3A2121",
"#.	c #3E0702",
"$.	c #530602",
"%.	c #590C04",
"&.	c #111010",
"*.	c #781206",
"=.	c #510B04",
"-.	c #411D1D",
";.	c #4A2000",
">.	c #622900",
",.	c #201F1F",
"'.	c #1F1F1F",
").	c #211F1F",
"!.	c #414A41",
"~.	c #140F0F",
"{.	c #1E0A0A",
"].	c #190000",
"^.	c #2D0804",
"/.	c #2E0804",
"(.	c #280C06",
"_.	c #131010",
":.	c #240A05",
"<.	c #1B0808",
"[.	c #1B0707",
"}.	c #060000",
"|.	c #420201",
"1.	c #540100",
"2.	c #550100",
"3.	c #540201",
"4.	c #4D1308",
"5.	c #1D0F0F",
"6.	c #2D0904",
"7.	c #520402",
"8.	c #580000",
"9.	c #610000",
"0.	c #5A0100",
"a.	c #561308",
"b.	c #200F0F",
"c.	c #5D0201",
"d.	c #2C1A1A",
"e.	c #530702",
"f.	c #5D0000",
"g.	c #780000",
"h.	c #6A0100",
"i.	c #681F0D",
"j.	c #280F0F",
"k.	c #AC6218",
"l.	c #7C0602",
"m.	c #050000",
"n.	c #520502",
"o.	c #620000",
"p.	c #7C0100",
"q.	c #581307",
"r.	c #293129",
"s.	c #540301",
"t.	c #520702",
"u.	c #040000",
"v.	c #7C0000",
"w.	c #7A0100",
"x.	c #561207",
"y.	c #221E17",
"z.	c #540401",
"A.	c #501207",
"B.	c #5A0A03",
"C.	c #560602",
"D.	c #750000",
"E.	c #7A0000",
"F.	c #591207",
"G.	c #1F0F0F",
"H.	c #530402",
"I.	c #070000",
"J.	c #661504",
"K.	c #600502",
"L.	c #5D0100",
"M.	c #5A0000",
"N.	c #7F0100",
"O.	c #701E0D",
"P.	c #310F00",
"Q.	c #7B0A03",
"R.	c #510C04",
"S.	c #281F1F",
"T.	c #400902",
"U.	c #580201",
"V.	c #880200",
"W.	c #731E0C",
"X.	c #2A0F0F",
"Y.	c #7B0B03",
"Z.	c #8F0000",
"`.	c #2B1B1B",
" +	c #312525",
".+	c #510201",
"++	c #711E0C",
"@+	c #2D1E17",
"#+	c #7A0C04",
"$+	c #4D1111",
"%+	c #322525",
"&+	c #400802",
"*+	c #580101",
"=+	c #750100",
"-+	c #2E1E17",
";+	c #7A0D04",
">+	c #461919",
",+	c #332525",
"'+	c #5B0702",
")+	c #69210E",
"!+	c #771507",
"~+	c #520803",
"{+	c #3A2222",
"]+	c #1A1F17",
"^+	c #2A2828",
"/+	c #181F17",
"(+	c #181717",
"_+	c #110F0F",
":+	c #080000",
"<+	c #271811",
"[+	c #241111",
"}+	c #1A0B0B",
"|+	c #190B0B",
"1+	c #190B00",
"2+	c #1A0A0A",
"3+	c #190A00",
"4+	c #1B0909",
"5+	c #1A0909",
"6+	c #211D1D",
"7+	c #090000",
"8+	c #260904",
"9+	c #2E0201",
"0+	c #2F0100",
"a+	c #320100",
"b+	c #360100",
"c+	c #2B0100",
"d+	c #370100",
"e+	c #2A0100",
"f+	c #280302",
"g+	c #1E1E1E",
"h+	c #0C0000",
"i+	c #0F0000",
"j+	c #280301",
"k+	c #540000",
"l+	c #2E0000",
"m+	c #3B0000",
"n+	c #520000",
"o+	c #740000",
"p+	c #400000",
"q+	c #450000",
"r+	c #330000",
"s+	c #290100",
"t+	c #0B0000",
"u+	c #3C0301",
"v+	c #2D0100",
"w+	c #370000",
"x+	c #650000",
"y+	c #340000",
"z+	c #3D0000",
"A+	c #2B0000",
"B+	c #3B0401",
"C+	c #1F0C0C",
"D+	c #500000",
"E+	c #4B0000",
"F+	c #3F0301",
"G+	c #301A1A",
"H+	c #530201",
"I+	c #302727",
"J+	c #670000",
"K+	c #423535",
"L+	c #240D0D",
"M+	c #590201",
"N+	c #300000",
"O+	c #580502",
"P+	c #443434",
"Q+	c #230D0D",
"R+	c #453333",
"S+	c #210D0D",
"T+	c #550702",
"U+	c #5F0502",
"V+	c #5B0502",
"W+	c #5C0502",
"X+	c #750A03",
"Y+	c #650502",
"Z+	c #310201",
"`+	c #590502",
" @	c #410301",
".@	c #400301",
"+@	c #790A03",
"@@	c #3B0201",
"#@	c #770A03",
"$@	c #560502",
"%@	c #630502",
"&@	c #2D0201",
"*@	c #430301",
"=@	c #520903",
"-@	c #352525",
"  . . . . . . . . . . . . . . . . . . . . . . . . . . . . . . . . . . . . . . . . . . . . . . . . . . . . . . . . . . . . . . + ",
"  . . . . . . . . . . . . . . . . . . . . . . . . . . . . . . . . . . . . . . . . . . . . . . . . . . . . . . . . . . @ . . . + ",
"  . . . . . . . . . . . . . . . . . . . . . . . . . . . . . . . . . . . . . . . . . . . . . . . . . . . . . . . . . . . . . . . ",
"  . . . . @ . . . . . . . . . . . . . . . . . . . . . . . . . . . . . . . . . . . . . . . . . . . . @ . . . . . . . . . . . . . ",
"  . . . . . . . .   . . . . . . . . . . . . . . . . . . @ . . . . . . . @ . . . . . . . . . . . . . . . . .   . . . @ . . . . . ",
"  . . . . . . . . .   . . . . . . . . . . . . . . . . . . . . # # # # . . . . . . . . . . . . . . . . . .   . . . . . . . . . . ",
"  . . . . . . @ . . .   . . . . $ % & & & * & * * * = = - ; = - ; > , > , > > ' ) ! ! ~ ~ ~ ! > @ . . .   . . . . . . . . . . + ",
"  . . . . . . . . . . .   . . { ] ^ / / ( ^ ( ( ^ ( ( ^ ^ ( ^ ^ / ^ ( ^ ( ^ ^ ^ ( ^ ^ ( / / ( _ . . .   . . . . . . . . . . . . ",
"  . . . . . . . . . . . . . . : ^ ^ / / ^ < ^ ^ < ^ ( ^ ^ ^ ^ ^ / ^ ^ ^ ( ^ ^ < ^ ^ ( ^ / / ( ( [ . . . . . . . . . @ @ . . . + ",
"  . . . . . . . . . . . . . # } ^ ^ / / ^ < ( ^ < ^ ^ < | < ^ < / < ^ ^ ^ ^ < | ^ ^ ^ ^ / / ( ^ 1 # . . . . . . . . . . . . . + ",
"  . . . . . . . . . . . . # ^ ^ ^ ^ / / ^ < ( ^ | ^ ^ | | ^ ^ < / | ^ ^ ^ ^ | | ^ ^ ^ ^ / / ^ ^ ^ _ # . . . . . . . . . . . . . ",
"  . . . . . . . . . . 2 # ^ ^ ^ ^ ^ / / ^ | ( ^ | ^ ^ | | < ^ < / | < ^ ^ ^ | | ^ ^ ^ ^ / / ^ ^ ^ ( ( # 2 . . . . . + . . . . + ",
"  . . . @ . . . + # # # ^ ^ ^ ^ ^ ^ / / ^ | ^ ^ | < ^ | | ^ < < / < | ^ ^ ^ < | ^ ^ ^ ^ / / ^ ^ ^ ^ ^ ^ # [ . + . . . . . . . + ",
"  . . . . . . . + 3 4 ( ( ^ ^ ^ ^ ( / ( ^ < < | < < ^ | | < < ^ / < | < < ^ < | ^ ^ ^ ^ / / ^ ^ ^ ^ ^ ^ ( 5 6 + . . @ . . . . + ",
"  . . . . + . . 7 8 ( ^ ^ ^ ^ ^ ^ ( / / ^ < < | < < ^ | | ^ ^ ^ / < | < < ^ < | ^ ^ ^ ^ / / < < ^ | ^ ^ ^ ( / 9 . . @ . . . . + ",
"  . . . . . . 0 a ( ^ ^ < ^ ^ < ^ ^ / / < < < | < < ^ | | ^ ^ ^ / < | < < ^ < < | ^ < ^ / / < < | | < ^ ^ ^ ( a @ . @ . . . . + ",
"  . . . . . . b c ^ ^ < | ^ ^ d e e f f + f + f g f + f f + h + f f + f + + f + + f f i + e + j | < < ^ < ^ ^ c k . @ . . . . . ",
"  . . . . + . l ( ^ ^ | < | ^ m e . n n . n . n o n . n n . . . n n . n . . n e . n n g e e + p | < < ^ < ^ ^ ( q .   . . . . + ",
"  . . . . . . # ] ^ < | < | ^ m f . @ o @ . . . e @ . . . @   . r s @ @ .   s . s s @ @ . @ e t | < | < < < ^ ( u .   . . . . + ",
"  . . . . . . # v < < | < | ^ w f . @ o x     y z y A y   y B       B y   B   @       y @ . . t | < | | | < < C D .   . . . . . ",
"  . . . . . . # E F < | < | < G + @ o         @ .           y   y       @     @         @ . e H | < | | | < I [ @ . @ . . @ . + ",
"  . . . . + . . . J K | < | < L f n .   x   . . h + . . @ @   @   .     @ . . . h + . . . . e M | < | | | N 7 . . . @ . . . . . ",
"  @ @ . . .   . . . O a ^ < < L i g . P x . h Q R Q + . . @   . . . . . + . h Q R Q + .   . + S | < | < T U . . .   . . . . . . ",
"  . . . . . .   . . . V W ^ < X f . @   y   + g Q . + n Y Z `  .` ` Y Y Q . + g Q . + .   . + ..< < < +.2 . . .   . . . . . . + ",
"  . . . . . . .   . . . @.#.$.%.f @ @   B . + . . . + Z g g g g g g g g g . + g . . + .   @ h &.*.=.-.. . . .   . . . . . . . + ",
"  . . . . . . . .   . @ . . . . f . @   B P h + + + h  .g + + + h + + + Q . h + + + h . @ . h + . . . . . .   . . . . . . . . . ",
"  . . . . @ . . . . . . . . . . e @ @   B @ . + h . .  .g + h . . . . e Y . h . . h . . . . h + . . . . @ . . . . . . . . . . . ",
"  . . . . . . . . . . . . . . . e @ @   B @ . . . . h ` . e @ . . . @ e Y . . . . . .   @ . h + . . . . . . . . . . . . . . . + ",
"  . . . . . . . . . . . . . . . e .     B @ ;.;.Z Z Y >.g + . . . . . . Y g >.Z >.;.g .   . e + . . . . . . . . . . . . . . . + ",
"  . . . . . . . . . ,.'.,.).).,.+ @ @ @ B . ` g g g g g . .   !.y B   . ;.g g g g ;.g h   . + + . . . . . . . . . . . . . . . + ",
"  . . . . . . . + ~.{.].^././.(._.@     B   ` g + + + + +   . # # # h B . + + h + >.g +   . e + :.& & & # <.[.[.. . . . . . . + ",
"  . . . . + . . }./.|.1.2.2.3.4.5.. @   B    .. + . . @ .   # # # # #   + . e h + Z g h   . h + 3.^ ^ ^ ^ ( / # . . + . . . . . ",
"  . . . . + . l 6.7.8.^ ^ 9.0.a.b.. P   B    .. + . @ @ @ B # # # # # B + . . @ g ` g .   @ h + c.^ < ^ ^ ^ ^ 8 @ . . . . . . + ",
"  . . . . . . d.e.9.f.8.8.g.h.i.j.. @   B P k.. + . .   @   . # # # . y e . . . g R g .   . e i l.< | ^ ^ < < F   . @ . . . . + ",
"  . . . . . . m.n.g.o.8.8.g.p.q.5.. @ @   r. .. + . @     @ B # # # y   .   @ . g Z g @ P . + + s.| | ^ ^ ^ | t.  .   . . . . . ",
"  . @ . . . . u.n.g.v.o.8.g.w.x.y.. @   B   ` . + e . @ . . B # # #   . e @ @ . g ;.g @ @ . + + z.| | ^ < | | m   .   . . . . . ",
"  . . . . . . u.n.g.| 9.8.g.h.A.y.. @   B   Y Q Q Q Q Q Q h   # # #   @ Y Y Y Y Y Y g . P . e + z.< | ^ ^ | | B.@ .   . . . . + ",
"  . . . . . . m.C.D.E.< 8.g.p.F.G.@ @   B   g g g g g g g +   + + +   . Y g + g g g g . @ . f + H.| | ^ ^ | | X @ . @ . . . . + ",
"  . . . . + . I.J.K.L.f.M.g.N.O.P.. @   y   @ @ . . + Y g +           . Y g f h . . + . y . f + Q.| | ^ < < ^ R.@ . @ . . . . + ",
"  . . . . + . . S.O T.U.8.D.V.W.X.@     y   . . h + . R g + . + + + + . Y g h + h + . .   . + + Y.Z.| ^ < ^ 1 `.. . @ . . . . . ",
"  . . . . .   . . 2  +T..+< w.++@+@ @   y   h Q R Q + ` g + h h . . h h Y g + Q R Q + . @ . + + #+| < ^ ^ $+E . .   . . . . . + ",
"  . . . . . .   . . 2 %+&+*+=+++-+@ @   B @ + g   g + >.n ;.Z ` R Z >.Q Y g + g Q . + . . . + + ;+| ^ ^ >+2 . .   . . . . . . . ",
"  . . . . . . .   . . 2 ,+T.'+)+j.. @   B . + . . g + g g g g g g g g g g g + g . . + .   . + i !+~+=.{+. . .   . . . . . . . . ",
"  . . . . . . . .   . . . . . . h @ @   B @ h + + + + + + + . . @ . e . @ . h + + + h h   . f i . . . . . .   . . . . . . . . + ",
"  . . . . . . . . . . . . . . . . @ P P   . @ . . @ . @ @ . @     B .     . . . . h .     . e i . . . . . . . . . . . @ @ . . + ",
"  . . . . . . . . . . . . . . . h . @   . + h . e h h . . h . @ . . . . . . h h h h . . . @ e + . . . . . . . . . . . . . . . + ",
"  . . . @ . . . . . . . . . '.,.]+).^+,.&.&./+(+/+(+(+(+(+(+(+(+(+(+(+(+(+(+,./+(+/+(+(+/+,._+_+'.'.'.. . . . . . . . . . . . . ",
"  . . . . . . . . . . . ,.m.m.:+<+[+<+}+|+|+|+|+|+|+1+2+2+2+2+3+2+2+2+2+2+2+2+2+2+2+4+4+4+4+4+5+m.u.m.6+'.. . . . . . . . . . . ",
"  . . . . . . . . '.'.7+8+9+0+a+b+0+c+c+b+b+0+0+c+0+0+0+0+a+d+b+c+b+d+d+d+b+0+c+0+c+0+0+e+e+0+b+0+0+0+f+}.g+g+'.. . + . . . . + ",
"  . . . . . . l h+m.i+j+b+k+k+< D.M.l+m+g.g.^ n+c k+k+k+k+< E.o+p+g.g.g.E.g.^ q+n+q+k+^ l+r+f.D.f.k+n+r+s+t+m.:+,.. . . . . . + ",
"  . . . . . 2 d.u+v+W w+k+8.^ M.E.f.l+m+v.E.M.k+q+^ f.f.8.o.v.g.( g.o.x+v.g.M.^ ^ ^ 8.M.l+r+9.g.8.^ 8.n+y+z+A+B+U . @ . . . . + ",
"  . . . . + . C+W y+k+k+8.f.k+D+g.f.l+m+v.E.M.k+c ^ < < f.o.v.g.( g.9.x+E.o.9.M.8.8.f.M.l+r+9.g.E+^ f.8.k+n+r+F+3 .   . . . . + ",
"  . . . . + 2 G+H+q+^ 8.9.9.8.M.E.f.l+m+v.E.^ c c ^ < < < o.v.g.( g.o.E.g.o.g.D.< 8.< M.l+r+9.E.8.8.9.9.8.k+q+n.I+.   . . . . + ",
"  . . . . + 2 G+3.M.8.x+E.E.o.f.E.f.l+m+E.E.8.c c k+f.< < o.v.g.( g.J+E.o.< < < f.f.< M.l+r+9.E.M.x+E.E.o.8.M.1 K+.   . @ . . + ",
"  . . . . . . L+M+g.o.E.| | D.< E.< l+y+o.D.f.c ( q+8.< < x+v.g.( v.v.E.o.f.8.8.8.< o.f.l+N+M.g.< g.| | E.o.g.O+P+. @ . . . . . ",
"  . . . @ . . Q+M+D.o.E.v.g.o.9.E.D.r+r+M.< ^ c ( c ^ < o.E.| D.( v.| v.g.< 8.^ 8.9.g.D.r+N+8.D.< o.E.v.g.o.D.O+R+. @ . . . . + ",
"  . . . . + . S+T+U+V+V+U+W+V+X+Y+X+Z+Z+`+W+`+ @.@ @1 W+K.+@+@W+@@+@#@Y+#@W+$@1 $@W+%@X+Z+&@*@K.X+O+U+U+O+W+W+=@-@. @ . . . . + ",
"  . . . . . . .                                         @ . .                                                   . . @ . . . . . ",
"  . . . . . . . . . . . . . . . . . . . . . . . . . . . . . . . . . . . . . . . . . . . . . . . . . . . . . . . . . @ . . . . + ",
"  . @ . . .                       @ . .                   @ .   .       @                                           . . . . . . ",
"  . . . . . . . . . . . . . . . . . . . . . . . . . . . . . . . . . . . . . . . . . . . . . . . . . . . . . . . . . . . . @ . . ",
"  . . . . . . . . . . . . . . . . . . . . . . . . . . . . . . . . . . . . . . . . . . . . . . . . . . . . . . . . . . . . . . + ",
"@ . . . . . . . . . . . @ . . . . . . . . . . . . . . . . . . . . . . . . . . . @ @ . . . . . . . . . . . . . . . . . . . . . . ",
". . + + . . + + . . + + . + + + + . + + + + + . + + . . + + + + + + + + . . + + . + + + + + . + + + + . + + . . + + . . + + . . "};
