/* XPM */
static char * door_xpm[] = {
"64 64 12 1",
" 	c #393939",
".	c #202020",
"+	c #101010",
"@	c #292929",
"#	c #000000",
"$	c #311808",
"%	c #412010",
"&	c #201008",
"*	c #4A2010",
"=	c #5A3118",
"-	c #4A3110",
";	c #623918",
" ..............................................................+",
" ..........................................................@...+",
" ...............................................................",
" ....@............................................@.............",
" ........ ..................@.......@................. ...@.....",
" ......... ....................####.................. ..........",
" ......@... ....$%&&&$&$$$$$%&$%&$&$&$$%$$$&&&$$@... ..........+",
" ........... ..@$%&&$%$$%$$%%$%%&%$%$%%%$%%$&&$$... ............",
" ...............%%&&%*%%*%$%%%%%&%%%$%%*%%$%&&$$..........@@...+",
" .............#%%%&&%*$%*%%*=*%*&*%%%%*=%%%%&&$%%#.............+",
" ............#%%%%&&%*$%=%%==%%*&=%%%%==%%%%&&%%%$#.............",
" ...........#%%%%%&&%=$%=%%==*%*&=*%%%==%%%%&&%%%$$#......+....+",
" ...@...+###%%%%%%&&%=%%=*%==%**&*=%%%*=%%%%&&%%%%%%#..+.......+",
" .......+.&$$%%%%$&$%**=**%==**%&*=**%*=%%%%&&%%%%%%$&.+..@....+",
" ....+...&$%%%%%%$&&%**=**%==%%%&*=**%*=%%%%&&**%=%%%$&...@....+",
" .......$$%%*%%*%%&&***=**%==%%%&*=**%**=%*%&&**==*%%%$$@.@....+",
" ......&.%%*=%%*%%&&%*****%==%**&*==*=***%*%&&%*=**%*%%. .@.....",
" ....+..$%%=*=%*%%&&%*%**%%==%%*&*====**=%*%&&%*=**%*%%$ . ....+",
" ......#$%*=*=%*%%&&%*%*=%*==%**&*=======%*%&&%*=*=***%$@. ....+",
" ......#.**=*=%*%%&&**%==%%===%*&*======*%*%&&%*=*===**.@. .....",
" ......#.**=*=****&&%%%==%%*==%*&***====*%*%&&%*=*===**.@.@..@.+",
" ....+...@ =*=**=*&&%%$==%%*==%*&*%*====%$%%&&%==*===@....@.....",
" @@... ...@$%***==&&%$$%=%%===**&*%*=%$$%%%%&&%==*=*@.... ......",
" ...... ...@$%**=*&&$$%$%%%**=%*&***=%%%**%%&&%=***@.... ......+",
" ....... ...@$%*=%&&%%%%$%%**=%*&*=*=***===%&&%==%@.... .......+",
" ........ .@.@$*=%&&%%=%%%%**=%*&*=*=***===%&&%=*@.... .........",
" ....@.........&*%&&*===%%%**=*%&*=**======%&&%*&...@...........",
" .............#%=%&&*%==*%***=*%&*=**======%&&%=%#.............+",
" ............#&%=%&&=*==*%***=*%&*=**=====*%&&%=%&#............+",
" ..........+#&$%*%&&=%=******==%&****===**%%&&%*%$&#...........+",
" .......+++#&%%%*%&&%==%***=*==*&****===**%%&&%*%%%&#+++.......+",
" ....+..#&$%%%%%=%&&*=*%***=*==*&==***%%%**%&&%=%%%%%$&#..+.....",
" ....+..&%%%%*%*=%&&==*****=*==*&==***%$%%*%&&%=*%*%%%%&@......+",
" .......%**%%=*==%&&===*%%*=*==*&==***%$%%*%&&%==*=%%*** .@....+",
" ......#%=%%%==%=%&&===%%%*=*==*&==*=*%$%%*%&&%=%==%%%=% . .....",
" .@....#%==*%==%=%&&*==%$%*=*=**&%**=*%$%%%%&&*=%==%*==* . .....",
" ......#%==%%=*%=%&&*=*$$$*=*==*&%**=*$$$%%%&&*=%*=%%==*@. ....+",
" ......#%==%%==%=%&&==%$$%*==*=*&**%=*$$$$%%&&*=%==%%==*@.@....+",
" ....+.#-***%====%&&==%$&$%==*=*&%*%**$%$$%*&&*====%**%%@.@....+",
" ....+...@$*%=;==*&&==%$&%%==*=*&**%*=$%$$%*&&*==;=%*%%...@.....",
" ..... ...@$%*===*&&=*%$$%*==*=*&%*$*=$*%$%*&&*===*%%@... .....+",
" ...... ...@$*===*&&=*%$$%%==*==&*%$==%%$$%*&&*===%%@... .......",
" ....... ...@$*==*&&=%%$$%%==*==&%%$%=%%%%%*&&*==%%@... ........",
" ........ ...@$*=*&&=%%%$%%=**==&%$$$**$%%%*&&*=%%@... ........+",
" .............&$=*&&=*%%$%%=**==&$%%$%%$%%%*&&*=$@.........@@..+",
" ...........@.#$=*&&=*%%$%%=**==&**%%$%$%%%*&&*=$#.............+",
" ...@.........&$=*&&=*%%$%%=**==&=*=%%%$$%**&&*=$&..@...........",
" ............&&%=*&&==%%$%%***==&====%%$$%**&&*=%&&.............",
" ..........#&&%%=*&&==%*$%%***==&====*%$$%%*&&*=%%&&#.....+....+",
" .......###&&%%*=*&&==%%$%%%%*==&=====%$%$%*&&*=*%%&&###.......+",
" .......$&$&%%%%=*&&==%%$%**%*==&=**==%%%%%*&&*=%%%%&$&$..@....+",
" ....+.+$&%%%*%$=*&&==%%$%****==&=**=**%%%**&&*=$%*%%%&$.. ....+",
" ....+..%$%%**%%=*&&==%$$%****==&=*==*==*%**&&*=%%**%%$%@. ....+",
" ....+..%%%*==*%=*&&==%$$%****==&=*=********&&*=%*==*%%% . .@..+",
" ......+%=*====%=*&&*=*$$$%***==&===**%%%***&&%=%====*=% .@.....",
" ...@..+%=*===*%==&&**%$$$%**===&====*%%%*==&&%=%*===*=% .@....+",
" ....+.+%**%**%=*=&&***$$$%**==*&==*=*%%%**=&&$*=%**%**%@.@....+",
" .......                    @..                         ..@.....",
" .........................................................@....+",
" .@...           @..         @. .   @                     ......",
" ............................................................@..",
" ..............................................................+",
"@...........@...........................@@......................",
"..++..++..++.++++.+++++.++..++++++++..++.+++++.++++.++..++..++.."};
