/* XPM */
static char * door_open_xpm[] = {
"8 8 5 1",
" 	c #546D8E",
".	c #464646",
"+	c #B4B4B4",
"@	c #3B2B24",
"#	c #614032",
" ...... ",
".+@@@@+.",
".@@##@@.",
".@####@.",
".@####@.",
".@@##@@.",
".+@@@@+.",
" ...... "};
