/* XPM */
static char * door_b_xpm[] = {
"64 64 320 2",
"  	c #393939",
". 	c #202020",
"+ 	c #101010",
"@ 	c #292929",
"# 	c #000000",
"$ 	c #2A171F",
"% 	c #321E36",
"& 	c #160F1B",
"* 	c #150F1B",
"= 	c #22162B",
"- 	c #22162C",
"; 	c #20162E",
"> 	c #2B1D3E",
", 	c #130E1D",
"' 	c #1D1630",
") 	c #110E1F",
"! 	c #281D41",
"~ 	c #1C1632",
"{ 	c #1A1533",
"] 	c #0F0E21",
"^ 	c #29292A",
"/ 	c #0C153A",
"( 	c #001B52",
"_ 	c #000D28",
": 	c #00143E",
"< 	c #03143D",
"[ 	c #191D2E",
"} 	c #001D5A",
"| 	c #1E1F25",
"1 	c #051B51",
"2 	c #002778",
"3 	c #111C4E",
"4 	c #011B52",
"5 	c #202021",
"6 	c #1F1F23",
"7 	c #0B0E23",
"8 	c #040D26",
"9 	c #1B1D2B",
"0 	c #1D1F26",
"a 	c #070D25",
"b 	c #010D28",
"c 	c #171C30",
"d 	c #1D1F27",
"e 	c #08143B",
"f 	c #08143C",
"g 	c #1C0F13",
"h 	c #001540",
"i 	c #1A1D54",
"j 	c #182018",
"k 	c #201000",
"l 	c #291800",
"m 	c #181818",
"n 	c #101000",
"o 	c #0A0E18",
"p 	c #353743",
"q 	c #1F2022",
"r 	c #01143E",
"s 	c #1B1E53",
"t 	c #391808",
"u 	c #392908",
"v 	c #0B0E17",
"w 	c #2F3450",
"x 	c #0E1539",
"y 	c #1C1E53",
"z 	c #4A2010",
"A 	c #412010",
"B 	c #1A0F13",
"C 	c #1E243E",
"D 	c #0F1937",
"E 	c #1D1E52",
"F 	c #523910",
"G 	c #525252",
"H 	c #5A5A52",
"I 	c #626262",
"J 	c #414141",
"K 	c #1B0F11",
"L 	c #0A183B",
"M 	c #28292B",
"N 	c #181D54",
"O 	c #1F1E51",
"P 	c #0D0F09",
"Q 	c #131D56",
"R 	c #262731",
"S 	c #0D276E",
"T 	c #201E51",
"U 	c #0E0F07",
"V 	c #0B1D4E",
"W 	c #252733",
"X 	c #07143C",
"Y 	c #211E50",
"Z 	c #203120",
"` 	c #412000",
" .	c #8B4A08",
"..	c #0E0F13",
"+.	c #121F4A",
"@.	c #232635",
"#.	c #04143D",
"$.	c #221E50",
"%.	c #522900",
"&.	c #733100",
"*.	c #7B3900",
"=.	c #9C5210",
"-.	c #0F1012",
";.	c #172146",
">.	c #212539",
",.	c #141536",
"'.	c #121C4D",
").	c #241E4E",
"!.	c #101011",
"~.	c #27296D",
"{.	c #1E1C48",
"].	c #1D233F",
"^.	c #4A2000",
"/.	c #622900",
"(.	c #1F1F20",
"_.	c #1F1F1F",
":.	c #1F1F21",
"<.	c #1F2020",
"[.	c #414A41",
"}.	c #0F1013",
"|.	c #0A0F1D",
"1.	c #000618",
"2.	c #141125",
"3.	c #141127",
"4.	c #1A111D",
"5.	c #101013",
"6.	c #170F19",
"7.	c #140F1C",
"8.	c #080D1A",
"9.	c #070D1B",
"0.	c #070D1A",
"a.	c #000105",
"b.	c #131127",
"c.	c #08153D",
"d.	c #041A4F",
"e.	c #071B51",
"f.	c #0F111C",
"g.	c #061B51",
"h.	c #151126",
"i.	c #0F1B4D",
"j.	c #001B54",
"k.	c #001E5C",
"l.	c #021C56",
"m.	c #311E45",
"n.	c #0F121F",
"o.	c #0B1D58",
"p.	c #1A1D2A",
"q.	c #151C4D",
"r.	c #001D58",
"s.	c #002572",
"t.	c #032063",
"u.	c #3C2A54",
"v.	c #0F1326",
"w.	c #AC6218",
"x.	c #112875",
"y.	c #171D55",
"z.	c #000205",
"A.	c #101B4C",
"B.	c #001F5E",
"C.	c #042675",
"D.	c #2A1F4A",
"E.	c #293129",
"F.	c #0C1B4F",
"G.	c #151C4C",
"H.	c #000104",
"I.	c #111B4C",
"J.	c #002676",
"K.	c #042673",
"L.	c #2A1F49",
"M.	c #172021",
"N.	c #0D1B4F",
"O.	c #121B4C",
"P.	c #291E43",
"Q.	c #172022",
"R.	c #0E1B4F",
"S.	c #131C4F",
"T.	c #002470",
"U.	c #002674",
"V.	c #29204C",
"W.	c #0F111E",
"X.	c #0F1C4E",
"Y.	c #000207",
"Z.	c #22265C",
"`.	c #151F59",
" +	c #061D57",
".+	c #001C56",
"++	c #042879",
"@+	c #3B2C5E",
"#+	c #1E1322",
"$+	c #1A2872",
"%+	c #1F2027",
"&+	c #181637",
"*+	c #091B52",
"=+	c #052A81",
"-+	c #3A2C61",
";+	c #0F1328",
">+	c #1B2872",
",+	c #002C88",
"'+	c #1B1E2A",
")+	c #252730",
"!+	c #181638",
"~+	c #06194D",
"{+	c #3A2B5F",
"]+	c #17212B",
"^+	c #1D2871",
"/+	c #111F4A",
"(+	c #1E1F24",
"_+	c #252731",
":+	c #171638",
"<+	c #071B53",
"[+	c #04246F",
"}+	c #17212C",
"|+	c #1E2871",
"1+	c #192244",
"2+	c #252732",
"3+	c #191D52",
"4+	c #3F2B54",
"5+	c #0F1327",
"6+	c #2B2A6A",
"7+	c #181C4B",
"8+	c #1D1C49",
"9+	c #222539",
"0+	c #17201A",
"a+	c #1F2021",
"b+	c #28282A",
"c+	c #172018",
"d+	c #171818",
"e+	c #171F18",
"f+	c #171718",
"g+	c #0F1011",
"h+	c #111B25",
"i+	c #111523",
"j+	c #0B0F19",
"k+	c #0B0E18",
"l+	c #0B0E12",
"m+	c #0A0E19",
"n+	c #0A0E12",
"o+	c #090E1A",
"p+	c #090D19",
"q+	c #1D1E21",
"r+	c #000208",
"s+	c #150F1D",
"t+	c #070F2B",
"u+	c #020F2D",
"v+	c #02102F",
"w+	c #021133",
"x+	c #020E29",
"y+	c #021235",
"z+	c #020D27",
"A+	c #030F2D",
"B+	c #090E24",
"C+	c #000206",
"D+	c #1E1E1E",
"E+	c #1F1F22",
"F+	c #00030B",
"G+	c #00040F",
"H+	c #080E24",
"I+	c #011A50",
"J+	c #001A50",
"K+	c #000E2C",
"L+	c #001238",
"M+	c #00194E",
"N+	c #00246E",
"O+	c #00133C",
"P+	c #001542",
"Q+	c #001030",
"R+	c #011030",
"S+	c #020C25",
"T+	c #00030A",
"U+	c #1A1D2B",
"V+	c #0A1437",
"W+	c #020E2B",
"X+	c #04133B",
"Y+	c #001134",
"Z+	c #001F60",
"`+	c #001032",
" @	c #00133A",
".@	c #010E2A",
"+@	c #0E1436",
"@@	c #0C101E",
"#@	c #05143D",
"$@	c #00194C",
"%@	c #001748",
"&@	c #0B143A",
"*@	c #1A1E2E",
"=@	c #081A4E",
"-@	c #27282F",
";@	c #1A1E2F",
">@	c #081B50",
",@	c #002062",
"'@	c #353740",
")@	c #0D1122",
"!@	c #081C54",
"~@	c #000F2E",
"{@	c #101C52",
"]@	c #343643",
"^@	c #0D1121",
"/@	c #333644",
"(@	c #0D1120",
"_@	c #151C4E",
":@	c #131E58",
"<@	c #131D54",
"[@	c #101D54",
"}@	c #1A266D",
"|@	c #13205D",
"1@	c #05102E",
"2@	c #131C52",
"3@	c #0A153D",
"4@	c #0A143B",
"5@	c #101C4E",
"6@	c #131F5A",
"7@	c #1A2771",
"8@	c #051337",
"9@	c #1A276F",
"0@	c #101C50",
"a@	c #131F5C",
"b@	c #050E2A",
"c@	c #0A153F",
"d@	c #191C4B",
"e@	c #252734",
"  . . . . . . . . . . . . . . . . . . . . . . . . . . . . . . . . . . . . . . . . . . . . . . . . . . . . . . . . . . . . . . + ",
"  . . . . . . . . . . . . . . . . . . . . . . . . . . . . . . . . . . . . . . . . . . . . . . . . . . . . . . . . . . @ . . . + ",
"  . . . . . . . . . . . . . . . . . . . . . . . . . . . . . . . . . . . . . . . . . . . . . . . . . . . . . . . . . . . . . . . ",
"  . . . . @ . . . . . . . . . . . . . . . . . . . . . . . . . . . . . . . . . . . . . . . . . . . . @ . . . . . . . . . . . . . ",
"  . . . . . . . .   . . . . . . . . . . . . . . . . . . @ . . . . . . . @ . . . . . . . . . . . . . . . . .   . . . @ . . . . . ",
"  . . . . . . . . .   . . . . . . . . . . . . . . . . . . . . # # # # . . . . . . . . . . . . . . . . . .   . . . . . . . . . . ",
"  . . . . . . @ . . .   . . . . $ % & * * = * = = - ; ; > , ; > , ' ) ' ) ' ' ! ~ { { ] ] ] { ' @ . . .   . . . . . . . . . . + ",
"  . . . . . . . . . . .   . . ^ / ( _ _ : ( : : ( : : ( ( : ( ( _ ( : ( : ( ( ( : ( ( : _ _ : < . . .   . . . . . . . . . . . . ",
"  . . . . . . . . . . . . . . [ ( ( _ _ ( } ( ( } ( : ( ( ( ( ( _ ( ( ( : ( ( } ( ( : ( _ _ : : | . . . . . . . . . @ @ . . . + ",
"  . . . . . . . . . . . . . # 1 ( ( _ _ ( } : ( } ( ( } 2 } ( } _ } ( ( ( ( } 2 ( ( ( ( _ _ : ( 3 # . . . . . . . . . . . . . + ",
"  . . . . . . . . . . . . # 4 ( ( ( _ _ ( } : ( 2 ( ( 2 2 ( ( } _ 2 ( ( ( ( 2 2 ( ( ( ( _ _ ( ( ( < # . . . . . . . . . . . . . ",
"  . . . . . . . . . . 5 # ( ( ( ( ( _ _ ( 2 : ( 2 ( ( 2 2 } ( } _ 2 } ( ( ( 2 2 ( ( ( ( _ _ ( ( ( : : # 5 . . . . . + . . . . + ",
"  . . . @ . . . + # # # ( ( ( ( ( ( _ _ ( 2 ( ( 2 } ( 2 2 ( } } _ } 2 ( ( ( } 2 ( ( ( ( _ _ ( ( ( ( ( ( # | . + . . . . . . . + ",
"  . . . . . . . + 6 7 : : ( ( ( ( : _ : ( } } 2 } } ( 2 2 } } ( _ } 2 } } ( } 2 ( ( ( ( _ _ ( ( ( ( ( ( : 8 9 + . . @ . . . . + ",
"  . . . . + . . 0 a : ( ( ( ( ( ( : _ _ ( } } 2 } } ( 2 2 ( ( ( _ } 2 } } ( } 2 ( ( ( ( _ _ } } ( 2 ( ( ( : b c . . @ . . . . + ",
"  . . . . . . d e : ( ( } ( ( } ( ( _ _ } } } 2 } } ( 2 2 ( ( ( _ } 2 } } ( } } 2 ( } ( _ _ } } 2 2 } ( ( ( : f @ . @ . . . . + ",
"  . . . . . . g h ( ( } 2 ( ( i j j k k + k + k l k + k k + m + k k + k + + k + + k k n + j + o 2 } } ( } ( ( h p . @ . . . . . ",
"  . . . . + . q r ( ( 2 } 2 ( s j . t t . t . t u t . t t . . . t t . t . . t j . t t l j j + v 2 } } ( } ( ( : w .   . . . . + ",
"  . . . . . . # x ( } 2 } 2 ( y k . @ u @ . . . j @ . . . @   . z A @ @ .   A . A A @ @ . @ j B 2 } 2 } } } ( : C .   . . . . + ",
"  . . . . . . # D } } 2 } 2 ( E k . @ u F     G H G I G   G J       J G   J   @       G @ . . K 2 } 2 2 2 } } L M .   . . . . . ",
"  . . . . . . # | N } 2 } 2 } O + @ u         @ .           G   G       @     @         @ . j P 2 } 2 2 2 } Q | @ . @ . . @ . + ",
"  . . . . + . . . R S 2 } 2 } T k t .   F   . . m + . . @ @   @   .     @ . . . m + . . . . j U 2 } 2 2 2 V d . . . @ . . . . . ",
"  @ @ . . .   . . . W X ( } } Y n l . Z F . m `  .` + . . @   . . . . . + . m `  .` + .   . + ..2 } 2 } +.6 . . .   . . . . . . ",
"  . . . . . .   . . . @.#.( } $.k . @   G   + l ` . + t %.&.*.=.*.*.%.%.` . + l ` . + .   . + -.} } } ;.5 . . .   . . . . . . + ",
"  . . . . . . .   . . . >.,.'.).k @ @   J . + . . . + &.l l l l l l l l l . + l . . + .   @ m !.~.{.].. . . .   . . . . . . . + ",
"  . . . . . . . .   . @ . . . . k . @   J Z m + + + m =.l + + + m + + + ` . m + + + m . @ . m + . . . . . .   . . . . . . . . . ",
"  . . . . @ . . . . . . . . . . j @ @   J @ . + m . . =.l + m . . . . j %.. m . . m . . . . m + . . . . @ . . . . . . . . . . . ",
"  . . . . . . . . . . . . . . . j @ @   J @ . . . . m *.. j @ . . . @ j %.. . . . . .   @ . m + . . . . . . . . . . . . . . . + ",
"  . . . . . . . . . . . . . . . j .     J @ ^.^.&.&.%./.l + . . . . . . %.l /.&./.^.l .   . j + . . . . . . . . . . . . . . . + ",
"  . . . . . . . . . (._.(.:.(.<.+ @ @ @ J . *.l l l l l . .   [.G J   . ^.l l l l ^.l m   . + + . . . . . . . . . . . . . . . + ",
"  . . . . . . . + }.|.1.2.3.3.4.5.@     J   *.l + + + + +   . # # # m J . + + m + /.l +   . j + 6.& * 7.# 8.9.0.. . . . . . . + ",
"  . . . . + . . a.b.c.d.1 1 e.> f.. @   J   =.. + . . @ .   # # # # #   + . j m + &.l m   . m + g.( ( ( ( : _ # . . + . . . . . ",
"  . . . . + . q h.i.j.( ( k.l.m.n.. Z   J   =.. + . @ @ @ J # # # # # J + . . @ l *.l .   @ m + o.( } ( ( ( ( 8 @ . . . . . . + ",
"  . . . . . . p.q.k.r.j.j.s.t.u.v.. @   J Z w.. + . .   @   . # # # . G j . . . l  .l .   . j n x.} 2 ( ( } } y.  . @ . . . . + ",
"  . . . . . . z.A.s.B.j.j.s.C.D.f.. @ @   E.=.. + . @     @ J # # # G   .   @ . l &.l @ Z . + + F.2 2 ( ( ( 2 G.  .   . . . . . ",
"  . @ . . . . H.I.s.J.B.j.s.K.L.M.. @   J   *.. + j . @ . . J # # #   . j @ @ . l ^.l @ @ . + + N.2 2 ( } 2 2 y   .   . . . . . ",
"  . . . . . . H.O.s.2 k.j.s.t.P.Q.. @   J   %.` ` ` ` ` ` m   # # #   @ %.%.%.%.%.%.l . Z . j + R.} 2 ( ( 2 2 O @ .   . . . . + ",
"  . . . . . . H.S.T.U.} j.s.C.V.W.@ @   J   l l l l l l l +   + + +   . %.l + l l l l . @ . k + X.2 2 ( ( 2 2 Y @ . @ . . . . + ",
"  . . . . + . Y.Z.`. +r..+s.++@+#+. @   G   @ @ . . + %.l +           . %.l k m . . + . G . k + $+2 2 ( } } ( {.@ . @ . . . . + ",
"  . . . . + . . %+W &+*+j.T.=+-+;+@     G   . . m + .  .l + . + + + + . %.l m + m + . .   . + + >+,+2 ( } ( 3 '+. . @ . . . . . ",
"  . . . . .   . . 5 )+!+~+} K.{+]+@ @   G   m `  .` + *.l + m m . . m m %.l + `  .` + . @ . + + ^+2 } ( ( /+(+. .   . . . . . + ",
"  . . . . . .   . . 5 _+:+<+[+{+}+@ @   J @ + l   l + /.t ^.&.*. .&./.` %.l + l ` . + . . . + + |+2 ( 4 1+5 . .   . . . . . . . ",
"  . . . . . . .   . . 5 2+!+3+4+5+. @   J . + . . l + l l l l l l l l l l l + l . . + .   . + n 6+7+8+9+. . .   . . . . . . . . ",
"  . . . . . . . .   . . . . . . m @ @   J @ m + + + + + + + . . @ . j . @ . m + + + m m   . k n . . . . . .   . . . . . . . . + ",
"  . . . . . . . . . . . . . . . . @ Z Z   . @ . . @ . @ @ . @     J .     . . . . m .     . j n . . . . . . . . . . . @ @ . . + ",
"  . . . . . . . . . . . . . . . m . @   . + m . j m m . . m . @ . . . . . . m m m m . . . @ j + . . . . . . . . . . . . . . . + ",
"  . . . @ . . . . . . . . . _._.0+a+b+<.!.!.c+d+c+d+d+d+d+d+d+d+d+d+d+d+d+d+(.e+d+e+d+f+e+(.g+g+_._._.. . . . . . . . . . . . . ",
"  . . . . . . . . . . . (.a.z.Y.h+i+h+j+k+k+k+k+k+k+l+m+m+m+m+n+m+m+m+m+m+m+m+m+m+m+o+o+o+o+o+p+a.H.z.q+_.. . . . . . . . . . . ",
"  . . . . . . . . _._.r+s+t+u+v+w+u+x+x+w+w+u+u+x+u+u+u+u+v+y+w+x+w+y+y+y+w+u+x+u+x+u+u+z+z+u+w+u+u+A+B+C+D+D+_.. . + . . . . + ",
"  . . . . . . E+F+z.G+H+w+I+J+} T..+K+L+s.s.( M+h J+J+J+J+} U.N+O+s.s.s.U.s.( P+M+P+J+( K+Q+r.T.r.J+M+R+S+T+z.Y.(.. . . . . . + ",
"  . . . . . 5 U+V+W+X+Y+J+j.( .+U.r.K+L+J.U..+J+P+( r.r.j.B.J.s.: s.B.Z+J.s..+( ( ( j..+K+Q+k.s.j.( j.M+`+ @.@+@E+. @ . . . . + ",
"  . . . . + . @@#@`+J+J+j.r.J+$@s.r.K+L+J.U..+J+h ( } } r.B.J.s.: s.k.Z+U.B.k..+j.j.r..+K+Q+k.s.%@( r.j.J+M+Q+&@6 .   . . . . + ",
"  . . . . + 5 *@=@P+( j.k.k.j..+U.r.K+L+J.U.( h h ( } } } B.J.s.: s.B.U.s.B.s.T.} j.} .+K+Q+k.U.j.j.k.k.j.J+P+I.-@.   . . . . + ",
"  . . . . + 5 ;@>@.+j.Z+U.U.B.r.U.r.K+L+U.U.j.h h J+r.} } B.J.s.: s.,@U.B.} } } r.r.} .+K+Q+k.U..+Z+U.U.B.j..+3 '@.   . @ . . + ",
"  . . . . . . )@!@s.B.U.2 2 T.} U.} K+`+B.T.r.h : P+j.} } Z+J.s.: J.J.U.B.r.j.j.j.} B.r.K+~@.+s.} s.2 2 U.B.s.{@]@. @ . . . . . ",
"  . . . @ . . ^@!@T.B.U.J.s.B.k.U.T.Q+Q+.+} ( h : h ( } B.U.2 T.: J.2 J.s.} j.( j.k.s.T.Q+~@j.T.} B.U.J.s.B.T.{@/@. @ . . . . + ",
"  . . . . + . (@_@:@<@[@:@Q [@}@|@}@1@1@2@Q 2@3@4@3@5@Q 6@7@7@Q 8@7@9@|@9@Q 0@5@0@Q a@}@1@b@c@6@}@{@:@:@{@Q Q d@e@. @ . . . . + ",
"  . . . . . . .                                         @ . .                                                   . . @ . . . . . ",
"  . . . . . . . . . . . . . . . . . . . . . . . . . . . . . . . . . . . . . . . . . . . . . . . . . . . . . . . . . @ . . . . + ",
"  . @ . . .                       @ . .                   @ .   .       @                                           . . . . . . ",
"  . . . . . . . . . . . . . . . . . . . . . . . . . . . . . . . . . . . . . . . . . . . . . . . . . . . . . . . . . . . . @ . . ",
"  . . . . . . . . . . . . . . . . . . . . . . . . . . . . . . . . . . . . . . . . . . . . . . . . . . . . . . . . . . . . . . + ",
"@ . . . . . . . . . . . @ . . . . . . . . . . . . . . . . . . . . . . . . . . . @ @ . . . . . . . . . . . . . . . . . . . . . . ",
". . + + . . + + . . + + . + + + + . + + + + + . + + . . + + + + + + + + . . + + . + + + + + . + + + + . + + . . + + . . + + . . "};
