/* XPM */
static char * door_g_xpm[] = {
"64 64 297 2",
"  	c #393939",
". 	c #202020",
"+ 	c #101010",
"@ 	c #292929",
"# 	c #000000",
"$ 	c #2A1E07",
"% 	c #322D0C",
"& 	c #161706",
"* 	c #151706",
"= 	c #222307",
"- 	c #222407",
"; 	c #202506",
"> 	c #2B300B",
", 	c #131805",
"' 	c #1D2606",
") 	c #111905",
"! 	c #28320A",
"~ 	c #1C2706",
"{ 	c #1A2706",
"] 	c #0F1905",
"^ 	c #0C2B05",
"/ 	c #003B06",
"( 	c #001D03",
"_ 	c #002D05",
": 	c #032D05",
"< 	c #19251A",
"[ 	c #004107",
"} 	c #1E221E",
"| 	c #053A06",
"1 	c #005709",
"2 	c #113907",
"3 	c #013B06",
"4 	c #1F211F",
"5 	c #0B1A04",
"6 	c #041C03",
"7 	c #1B241B",
"8 	c #1D221D",
"9 	c #071C04",
"0 	c #011D03",
"a 	c #172618",
"b 	c #1D231D",
"c 	c #082C05",
"d 	c #1C1307",
"e 	c #002E05",
"f 	c #1A3D09",
"g 	c #182018",
"h 	c #201000",
"i 	c #291800",
"j 	c #181818",
"k 	c #101000",
"l 	c #0A130B",
"m 	c #353D36",
"n 	c #012D05",
"o 	c #1B3D09",
"p 	c #391808",
"q 	c #392908",
"r 	c #0B130C",
"s 	c #2F4230",
"t 	c #0E2B05",
"u 	c #1C3D09",
"v 	c #4A2010",
"w 	c #412010",
"x 	c #1A1501",
"y 	c #1E321F",
"z 	c #0F2A12",
"A 	c #1D3C09",
"B 	c #523910",
"C 	c #525252",
"D 	c #5A5A52",
"E 	c #626262",
"F 	c #414141",
"G 	c #1B1401",
"H 	c #0A2B0D",
"I 	c #282A28",
"J 	c #183E08",
"K 	c #1F3C09",
"L 	c #0D1100",
"M 	c #133F08",
"N 	c #262C26",
"O 	c #0D5113",
"P 	c #203C09",
"Q 	c #0E1100",
"R 	c #0B390F",
"S 	c #252D25",
"T 	c #072C05",
"U 	c #213B09",
"V 	c #203120",
"W 	c #412000",
"X 	c #8B4A08",
"Y 	c #0E110F",
"Z 	c #123714",
"` 	c #232E24",
" .	c #042C05",
"..	c #223B09",
"+.	c #522900",
"@.	c #733100",
"#.	c #7B3900",
"$.	c #9C5210",
"%.	c #0F110F",
"&.	c #173519",
"*.	c #212F22",
"=.	c #142906",
"-.	c #123907",
";.	c #243A0A",
">.	c #27510D",
",.	c #1E3609",
"'.	c #1D321E",
").	c #4A2000",
"!.	c #622900",
"~.	c #1F201F",
"{.	c #1F1F1F",
"].	c #414A41",
"^.	c #0A160B",
"/.	c #001002",
"(.	c #141D06",
"_.	c #141E06",
":.	c #1A1907",
"<.	c #101110",
"[.	c #171606",
"}.	c #141705",
"|.	c #081409",
"1.	c #071408",
"2.	c #000300",
"3.	c #131E06",
"4.	c #082D05",
"5.	c #043A06",
"6.	c #073A06",
"7.	c #2B310B",
"8.	c #0F170F",
"9.	c #063A06",
"0.	c #151D06",
"a.	c #0F3807",
"b.	c #003D06",
"c.	c #004307",
"d.	c #023E07",
"e.	c #31350B",
"f.	c #0F190F",
"g.	c #0B4007",
"h.	c #1A241B",
"i.	c #153808",
"j.	c #004007",
"k.	c #005309",
"l.	c #034908",
"m.	c #3C4310",
"n.	c #0F1D10",
"o.	c #AC6218",
"p.	c #11550A",
"q.	c #173E08",
"r.	c #000400",
"s.	c #103807",
"t.	c #004407",
"u.	c #045609",
"v.	c #2A390B",
"w.	c #293129",
"x.	c #0C3A07",
"y.	c #113807",
"z.	c #005609",
"A.	c #045409",
"B.	c #2A380B",
"C.	c #172317",
"D.	c #0D3907",
"E.	c #123807",
"F.	c #29340B",
"G.	c #0E3907",
"H.	c #133A07",
"I.	c #005109",
"J.	c #005409",
"K.	c #293A0B",
"L.	c #0F180F",
"M.	c #0F3907",
"N.	c #22460A",
"O.	c #154108",
"P.	c #063F07",
"Q.	c #003E07",
"R.	c #045809",
"S.	c #3B4A11",
"T.	c #1E1E01",
"U.	c #1A540B",
"V.	c #1F231F",
"W.	c #182A06",
"X.	c #093C06",
"Y.	c #055E0A",
"Z.	c #3A4C11",
"`.	c #0F1E0F",
" +	c #1B540B",
".+	c #00630A",
"++	c #1B241C",
"@+	c #252C26",
"#+	c #063806",
"$+	c #3A4A11",
"%+	c #172817",
"&+	c #1D530C",
"*+	c #113714",
"=+	c #252C25",
"-+	c #172B06",
";+	c #073C06",
">+	c #045109",
",+	c #3A4A10",
"'+	c #172917",
")+	c #1E530C",
"!+	c #19341A",
"~+	c #193D08",
"{+	c #3F4412",
"]+	c #2B500E",
"^+	c #183708",
"/+	c #1D3609",
"(+	c #222F22",
"_+	c #172018",
":+	c #282928",
"<+	c #171818",
"[+	c #171817",
"}+	c #172017",
"|+	c #0F100F",
"1+	c #000500",
"2+	c #112212",
"3+	c #111D12",
"4+	c #0B140C",
"5+	c #0B1401",
"6+	c #0A140B",
"7+	c #0A1301",
"8+	c #09150A",
"9+	c #09140A",
"0+	c #1D201E",
"a+	c #151806",
"b+	c #071F04",
"c+	c #022003",
"d+	c #022204",
"e+	c #022504",
"f+	c #021D03",
"g+	c #022604",
"h+	c #021E03",
"i+	c #032003",
"j+	c #091B04",
"k+	c #1E1E1E",
"l+	c #000701",
"m+	c #000901",
"n+	c #081B04",
"o+	c #013A06",
"p+	c #003A06",
"q+	c #002003",
"r+	c #002904",
"s+	c #003906",
"t+	c #005008",
"u+	c #002C05",
"v+	c #003005",
"w+	c #002304",
"x+	c #012304",
"y+	c #021C03",
"z+	c #000801",
"A+	c #000501",
"B+	c #0A2904",
"C+	c #021F03",
"D+	c #042B05",
"E+	c #002604",
"F+	c #004607",
"G+	c #002404",
"H+	c #002A04",
"I+	c #011E03",
"J+	c #0E2805",
"K+	c #0C170D",
"L+	c #052C05",
"M+	c #003706",
"N+	c #003405",
"O+	c #0B2B05",
"P+	c #1A261B",
"Q+	c #083907",
"R+	c #272C27",
"S+	c #083A07",
"T+	c #004707",
"U+	c #353B35",
"V+	c #0D1A0E",
"W+	c #083D07",
"X+	c #002103",
"Y+	c #103C08",
"Z+	c #343C35",
"`+	c #333C34",
" @	c #0D190E",
".@	c #153A08",
"+@	c #134008",
"@@	c #133E08",
"#@	c #103E08",
"$@	c #1A500B",
"%@	c #134408",
"&@	c #052204",
"*@	c #133C08",
"=@	c #0A2C05",
"-@	c #0A2B05",
";@	c #103907",
">@	c #134108",
",@	c #1A530B",
"'@	c #052804",
")@	c #1A510B",
"!@	c #103B07",
"~@	c #134308",
"{@	c #051F03",
"]@	c #0A2E05",
"^@	c #193708",
"  . . . . . . . . . . . . . . . . . . . . . . . . . . . . . . . . . . . . . . . . . . . . . . . . . . . . . . . . . . . . . . + ",
"  . . . . . . . . . . . . . . . . . . . . . . . . . . . . . . . . . . . . . . . . . . . . . . . . . . . . . . . . . . @ . . . + ",
"  . . . . . . . . . . . . . . . . . . . . . . . . . . . . . . . . . . . . . . . . . . . . . . . . . . . . . . . . . . . . . . . ",
"  . . . . @ . . . . . . . . . . . . . . . . . . . . . . . . . . . . . . . . . . . . . . . . . . . . @ . . . . . . . . . . . . . ",
"  . . . . . . . .   . . . . . . . . . . . . . . . . . . @ . . . . . . . @ . . . . . . . . . . . . . . . . .   . . . @ . . . . . ",
"  . . . . . . . . .   . . . . . . . . . . . . . . . . . . . . # # # # . . . . . . . . . . . . . . . . . .   . . . . . . . . . . ",
"  . . . . . . @ . . .   . . . . $ % & * * = * = = - ; ; > , ; > , ' ) ' ) ' ' ! ~ { { ] ] ] { ' @ . . .   . . . . . . . . . . + ",
"  . . . . . . . . . . .   . . @ ^ / ( ( _ / _ _ / _ _ / / _ / / ( / _ / _ / / / _ / / _ ( ( _ : . . .   . . . . . . . . . . . . ",
"  . . . . . . . . . . . . . . < / / ( ( / [ / / [ / _ / / / / / ( / / / _ / / [ / / _ / ( ( _ _ } . . . . . . . . . @ @ . . . + ",
"  . . . . . . . . . . . . . # | / / ( ( / [ _ / [ / / [ 1 [ / [ ( [ / / / / [ 1 / / / / ( ( _ / 2 # . . . . . . . . . . . . . + ",
"  . . . . . . . . . . . . # 3 / / / ( ( / [ _ / 1 / / 1 1 / / [ ( 1 / / / / 1 1 / / / / ( ( / / / : # . . . . . . . . . . . . . ",
"  . . . . . . . . . . . # / / / / / ( ( / 1 _ / 1 / / 1 1 [ / [ ( 1 [ / / / 1 1 / / / / ( ( / / / _ _ # . . . . . . + . . . . + ",
"  . . . @ . . . + # # # / / / / / / ( ( / 1 / / 1 [ / 1 1 / [ [ ( [ 1 / / / [ 1 / / / / ( ( / / / / / / # } . + . . . . . . . + ",
"  . . . . . . . + 4 5 _ _ / / / / _ ( _ / [ [ 1 [ [ / 1 1 [ [ / ( [ 1 [ [ / [ 1 / / / / ( ( / / / / / / _ 6 7 + . . @ . . . . + ",
"  . . . . + . . 8 9 _ / / / / / / _ ( ( / [ [ 1 [ [ / 1 1 / / / ( [ 1 [ [ / [ 1 / / / / ( ( [ [ / 1 / / / _ 0 a . . @ . . . . + ",
"  . . . . . . b c _ / / [ / / [ / / ( ( [ [ [ 1 [ [ / 1 1 / / / ( [ 1 [ [ / [ [ 1 / [ / ( ( [ [ 1 1 [ / / / _ c @ . @ . . . . + ",
"  . . . . . . d e / / [ 1 / / f g g h h + h + h i h + h h + j + h h + h + + h + + h h k + g + l 1 [ [ / [ / / e m . @ . . . . . ",
"  . . . . + . 4 n / / 1 [ 1 / o g . p p . p . p q p . p p . . . p p . p . . p g . p p i g g + r 1 [ [ / [ / / _ s .   . . . . + ",
"  . . . . . . # t / [ 1 [ 1 / u h . @ q @ . . . g @ . . . @   . v w @ @ .   w . w w @ @ . @ g x 1 [ 1 [ [ [ / _ y .   . . . . + ",
"  . . . . . . # z [ [ 1 [ 1 / A h . @ q B     C D C E C   C F       F C   F   @       C @ . . G 1 [ 1 1 1 [ [ H I .   . . . . . ",
"  . . . . . . # } J [ 1 [ 1 [ K + @ q         @ .           C   C       @     @         @ . g L 1 [ 1 1 1 [ M } @ . @ . . @ . + ",
"  . . . . + . . . N O 1 [ 1 [ P h p .   B   . . j + . . @ @   @   .     @ . . . j + . . . . g Q 1 [ 1 1 1 R 8 . . . @ . . . . . ",
"  @ @ . . .   . . . S T / [ [ U k i . V B . j W X W + . . @   . . . . . + . j W X W + .   . + Y 1 [ 1 [ Z 4 . . .   . . . . . . ",
"  . . . . . .   . . . `  ./ [ ..h . @   C   + i W . + p +.@.#.$.#.#.+.+.W . + i W . + .   . + %.[ [ [ &.. . . .   . . . . . . + ",
"  . . . . . . .   . . . *.=.-.;.h @ @   F . + . . . + @.i i i i i i i i i . + i . . + .   @ j + >.,.'.. . . .   . . . . . . . + ",
"  . . . . . . . .   . @ . . . . h . @   F V j + + + j $.i + + + j + + + W . j + + + j . @ . j + . . . . . .   . . . . . . . . . ",
"  . . . . @ . . . . . . . . . . g @ @   F @ . + j . . $.i + j . . . . g +.. j . . j . . . . j + . . . . @ . . . . . . . . . . . ",
"  . . . . . . . . . . . . . . . g @ @   F @ . . . . j #.. g @ . . . @ g +.. . . . . .   @ . j + . . . . . . . . . . . . . . . + ",
"  . . . . . . . . . . . . . . . g .     F @ ).).@.@.+.!.i + . . . . . . +.i !.@.!.).i .   . g + . . . . . . . . . . . . . . . + ",
"  . . . . . . . . . ~.{.~.~.~.~.+ @ @ @ F . #.i i i i i . .   ].C F   . ).i i i i ).i j   . + + . . . . . . . . . . . . . . . + ",
"  . . . . . . . + %.^./.(._._.:.<.@     F   #.i + + + + +   . # # # j F . + + j + !.i +   . g + [.& * }.# |.1.1.. . . . . . . + ",
"  . . . . + . . 2.3.4.5.| | 6.7.8.. @   F   $.. + . . @ .   # # # # #   + . g j + @.i j   . j + 9./ / / / _ ( # . . + . . . . . ",
"  . . . . + . 4 0.a.b./ / c.d.e.f.. V   F   $.. + . @ @ @ F # # # # # F + . . @ i #.i .   @ j + g./ [ / / / / 6 @ . . . . . . + ",
"  . . . . . . h.i.c.j.b.b.k.l.m.n.. @   F V o.. + . .   @   . # # # . C g . . . i X i .   . g k p.[ 1 / / [ [ q.  . @ . . . . + ",
"  . . . . . . r.s.k.t.b.b.k.u.v.8.. @ @   w.$.. + . @     @ F # # # C   .   @ . i @.i @ V . + + x.1 1 / / / 1 i.  .   . . . . . ",
"  . @ . . . . 2.y.k.z.t.b.k.A.B.C.. @   F   #.. + g . @ . . F # # #   . g @ @ . i ).i @ @ . + + D.1 1 / [ 1 1 u   .   . . . . . ",
"  . . . . . . 2.E.k.1 c.b.k.l.F.C.. @   F   +.W W W W W W j   # # #   @ +.+.+.+.+.+.i . V . g + G.[ 1 / / 1 1 K @ .   . . . . + ",
"  . . . . . . 2.H.I.J.[ b.k.u.K.L.@ @   F   i i i i i i i +   + + +   . +.i + i i i i . @ . h + M.1 1 / / 1 1 U @ . @ . . . . + ",
"  . . . . + . r.N.O.P.j.Q.k.R.S.T.. @   C   @ @ . . + +.i +           . +.i h j . . + . C . h + U.1 1 / [ [ / ,.@ . @ . . . . + ",
"  . . . . + . . V.S W.X.b.I.Y.Z.`.@     C   . . j + . X i + . + + + + . +.i j + j + . .   . + +  +.+1 / [ / 2 ++. . @ . . . . . ",
"  . . . . .   . . . @+W.#+[ A.$+%+@ @   C   j W X W + #.i + j j . . j j +.i + W X W + . @ . + + &+1 [ / / *+} . .   . . . . . + ",
"  . . . . . .   . . . =+-+;+>+,+'+@ @   F @ + i   i + !.p ).@.#.X @.!.W +.i + i W . + . . . + + )+1 / 3 !+. . .   . . . . . . . ",
"  . . . . . . .   . . . =+W.~+{+n.. @   F . + . . i + i i i i i i i i i i i + i . . + .   . + k ]+^+/+(+. . .   . . . . . . . . ",
"  . . . . . . . .   . . . . . . j @ @   F @ j + + + + + + + . . @ . g . @ . j + + + j j   . h k . . . . . .   . . . . . . . . + ",
"  . . . . . . . . . . . . . . . . @ V V   . @ . . @ . @ @ . @     F .     . . . . j .     . g k . . . . . . . . . . . @ @ . . + ",
"  . . . . . . . . . . . . . . . j . @   . + j . g j j . . j . @ . . . . . . j j j j . . . @ g + . . . . . . . . . . . . . . . + ",
"  . . . @ . . . . . . . . . {.{._+~.:+~.+ + _+<+_+<+<+[+[+[+[+[+[+[+[+[+[+[+~.}+[+}+[+[+}+~.|+|+{.{.{.. . . . . . . . . . . . . ",
"  . . . . . . . . . . . ~.2.r.1+2+3+2+4+4+4+4+4+4+4+5+6+6+6+6+7+6+6+6+6+6+6+6+6+6+6+8+8+8+8+8+9+2.2.r.0+{.. . . . . . . . . . . ",
"  . . . . . . . . {.{.1+a+b+c+d+e+c+f+f+e+e+c+c+f+c+c+c+c+d+g+e+h+e+g+g+g+e+c+h+c+h+c+c+f+f+c+e+c+c+i+j+r.k+k+{.. . + . . . . + ",
"  . . . . . . ~.l+2.m+n+e+o+p+[ I.Q.q+r+k.k./ s+e p+p+p+p+[ J.t+u+k.k.k.J.k./ v+s+v+p+/ q+w+j.I.j.p+s+x+y+z+2.A+{.. . . . . . + ",
"  . . . . . . h.B+C+D+E+p+b./ Q.J.j.q+r+z.J.Q.p+v+/ j.j.b.t.z.k._ k.t.F+z.k.Q./ / / b.Q.q+w+c.k.b./ b.s+G+H+I+J+4 . @ . . . . + ",
"  . . . . + . K+L+G+p+p+b.j.p+M+k.j.q+r+z.J.Q.p+e / [ [ j.t.z.k._ k.c.F+J.t.c.Q.b.b.j.Q.q+w+c.k.N+/ j.b.p+s+w+O+4 .   . . . . + ",
"  . . . . + . P+Q+v+/ b.c.c.b.Q.J.j.q+r+z.J./ e e / [ [ [ t.z.k._ k.t.J.k.t.k.I.[ b.[ Q.q+w+c.J.b.b.c.c.b.p+v+y.R+.   . . . . + ",
"  . . . . + . P+S+Q.b.F+J.J.t.j.J.j.q+r+J.J.b.e e p+j.[ [ t.z.k._ k.T+J.t.[ [ [ j.j.[ Q.q+w+c.J.Q.F+J.J.t.b.Q.2 U+.   . @ . . + ",
"  . . . . . . V+W+k.t.J.1 1 I.[ J.[ q+G+t.I.j.e _ v+b.[ [ F+z.k._ z.z.J.t.j.b.b.b.[ t.j.q+X+Q.k.[ k.1 1 J.t.k.Y+Z+. @ . . . . . ",
"  . . . @ . . V+W+I.t.J.z.k.t.c.J.I.w+w+Q.[ / e _ e / [ t.J.1 I._ z.1 z.k.[ b./ b.c.k.I.w+X+b.I.[ t.J.z.k.t.I.Y+`+. @ . . . . + ",
"  . . . . + .  @.@+@@@#@+@M #@$@%@$@&@&@*@M *@=@-@=@;@M >@,@,@M '@,@)@%@)@M !@;@!@M ~@$@&@{@]@>@$@Y++@+@Y+M M ^@S . @ . . . . + ",
"  . . . . . . .                                         @ . .                                                   . . @ . . . . . ",
"  . . . . . . . . . . . . . . . . . . . . . . . . . . . . . . . . . . . . . . . . . . . . . . . . . . . . . . . . . @ . . . . + ",
"  . @ . . .                       @ . .                   @ .   .       @                                           . . . . . . ",
"  . . . . . . . . . . . . . . . . . . . . . . . . . . . . . . . . . . . . . . . . . . . . . . . . . . . . . . . . . . . . @ . . ",
"  . . . . . . . . . . . . . . . . . . . . . . . . . . . . . . . . . . . . . . . . . . . . . . . . . . . . . . . . . . . . . . + ",
"@ . . . . . . . . . . . @ . . . . . . . . . . . . . . . . . . . . . . . . . . . @ @ . . . . . . . . . . . . . . . . . . . . . . ",
". . + + . . + + . . + + . + + + + . + + + + + . + + . . + + + + + + + + . . + + . + + + + + . + + + + . + + . . + + . . + + . . "};
