/* XPM */
static char * key_xpm[] = {
"32 32 33 1",
" 	c None",
".	c #3B3C3B",
"+	c #5C5C5C",
"@	c #626262",
"#	c #707070",
"$	c #797979",
"%	c #7B5F37",
"&	c #542800",
"*	c #454545",
"=	c #393939",
"-	c #585D56",
";	c #6E532F",
">	c #454844",
",	c #1C1C1C",
"'	c #515151",
")	c #1B1B1B",
"!	c #0F0F0F",
"~	c #2F1804",
"{	c #251404",
"]	c #2D2D2D",
"^	c #565656",
"/	c #212121",
"(	c #323232",
"_	c #262825",
":	c #686868",
"<	c #391C06",
"[	c #674B26",
"}	c #96764B",
"|	c #896B3E",
"1	c #442104",
"2	c #5F431E",
"3	c #4C2403",
"4	c #3E280B",
"                                ",
"                                ",
"                                ",
"                                ",
"                                ",
"                                ",
"                                ",
"                                ",
"                                ",
"                                ",
"           .+@#$#+%%&           ",
"           *=-@;*;;>,           ",
"           '>)!~{{];~           ",
"           ^^{    .*{           ",
"           >*~    ^-/           ",
"           .=(^>@+>+]           ",
"           ]-.^^^;;-,           ",
"           _!)=^_]/])           ",
"              *^)               ",
"              +'!               ",
"              #-)               ",
"              @-:+              ",
"              ^;<{              ",
"              ;[<               ",
"              }[[[[             ",
"              |[<1<             ",
"              @[1               ",
"            >^+[<               ",
"            ..22[>+             ",
"            !)*.3</             ",
"              ^*<               ",
"              24)               "};
