/* XPM */
static char * magic_shoot_1_xpm[] = {
"64 64 8 1",
" 	c None",
".	c #AD28D7",
"+	c #471158",
"@	c #65187D",
"#	c #C15CE0",
"$	c #851FA6",
"%	c #D694EB",
"&	c #E7C1F3",
"                                                                ",
"                                                                ",
"                                                                ",
"                                                                ",
"                                                                ",
"                                                                ",
"                                                                ",
"                                                                ",
"                                                                ",
"                                                                ",
"                                                                ",
"                                                                ",
"                                                                ",
"                                                                ",
"                                                                ",
"                                                                ",
"                                                                ",
"                                                                ",
"                                                                ",
"                                                                ",
"                                                                ",
"                                                                ",
"                                                                ",
"                                                                ",
"                                                                ",
"                                                                ",
"                                                                ",
"                               .                                ",
"                              +.+                               ",
"                              @#@                               ",
"                              $%$                               ",
"                             .#%#.                              ",
"                  $@+      .##%&%##.      +@$                   ",
"                  @..@@+.#%#..###..#%#.+@@..@                   ",
"                  +.&#$.%.$++@.%.@++$.%.$#&.+                   ",
"                   $#&%&.$+  +$&$+  +$.&%&#$                    ",
"                   @$%&#.+    @%@    +.#&%$@                    ",
"                   @.&##.@+   #&#   +@.##&.@                    ",
"                   .%...#$@ $#%&%#$ @$#...%.                    ",
"                  @#.@@@$...#$#.#$#...$@@@.#@                   ",
"                  $%$+ +@.##.$$#$$.##.@+ +$%$                   ",
"                  .#+   +$#&%#.%.#%&#$+   +#.                   ",
"                  #.+   $#.%&&&%&&&%.#$   +.#                   ",
"                 @#.+  +#$$#&&&&&&&#$$#+  +.#@                  ",
"              +@$#%#.@@$%#$.&&&&&&&.$#%$@@.#%#$@+               ",
"             +@.#%&%#.#%&.#%%&&&&&%%#.&%#.#%&%#.@+              ",
"              +@$#%#.@@$%#$.&&&&&&&.$#%$@@.#%#$@+               ",
"                 @#.+  +#$$#&&&&&&&#$$#+  +.#@                  ",
"                  #.+   $#.%&&&%&&&%.#$   +.#                   ",
"                  .#+   +$#&%#.%.#%&#$+   +#.                   ",
"                  $%$+ +@.##.$$#$$.##.@+ +$%$                   ",
"                  @#.@@@$...#$#.#$#...$@@@.#@                   ",
"                   .%...#$@ $#%&%#$ @$#...%.                    ",
"                   @.&##.@+   #&#   +@.##&.@                    ",
"                   @$%&#.+    @%@    +.#&%$@                    ",
"                   $#&%&.$+  +$&$+  +$.&%&#$                    ",
"                  +.&#$.%.$++@.%.@++$.%.$#&.+                   ",
"                  @..@@+.#%#..###..#%#.+@@..@                   ",
"                  $@+      .##%&%##.      +@$                   ",
"                             .#%#.                              ",
"                              $%$                               ",
"                              @#@                               ",
"                              +.+                               ",
"                               .                                "};
