/* XPM */
static char * magic_shoot_xpm[] = {
"64 64 21 1",
" 	c None",
".	c #531A64",
"+	c #381244",
"@	c #631F77",
"#	c #4A1759",
"$	c #922EAF",
"%	c #6C2281",
"&	c #B553D2",
"*	c #8C2CA8",
"=	c #CC88E0",
"-	c #9F32BF",
";	c #B859D4",
">	c #D7A2E7",
",	c #E2BAED",
"'	c #E8C8F1",
")	c #40144D",
"!	c #EACDF2",
"~	c #AE42CE",
"{	c #C372DA",
"]	c #2E0F37",
"^	c #76258E",
"                                                                ",
"                                                                ",
"                                                                ",
"                                                                ",
"                                                                ",
"                                                                ",
"                                                                ",
"                                                                ",
"                                                                ",
"                                                                ",
"                                                                ",
"                                                                ",
"                                                                ",
"                                                                ",
"                                                                ",
"                                                                ",
"                                                                ",
"                                                                ",
"                                                                ",
"                                                                ",
"                                                                ",
"                                                                ",
"                                                                ",
"                                                                ",
"                                                                ",
"                                                                ",
"                                                                ",
"                                                                ",
"                                                                ",
"                                                                ",
"                                                                ",
"                                                                ",
"                                                                ",
"                                                                ",
"                               .                                ",
"                              +@+                               ",
"                              #$#                               ",
"                              %&%                               ",
"                            +#*=*#+                             ",
"                          +#%-;>;-%#+                           ",
"                          #@%&=,=&%@#                           ",
"                        $@%&$%*'*%$&%@$                         ",
"                       +@&$*.)-!-).*$&@+                        ",
"                       #%$=-)*&=&*)-=$%#                        ",
"                      +%&*-=*~{!{~*=-*&%+                       ",
"                      #$$.);>{>!>{>;).$$#                       ",
"                     +%&%]^-=''!''=-^]%&%+                      ",
"                   +#%*=.]%{>'!!!'>{%].=*%#+                    ",
"                 .@$&=>,'!=!!!!!!!!!=!',>=&$@.                  ",
"                   +#%*=.]%{>'!!!'>{%].=*%#+                    ",
"                     +%&%]^-=''!''=-^]%&%+                      ",
"                      #$$.);>{>!>{>;).$$#                       ",
"                      +%&*-=*~{!{~*=-*&%+                       ",
"                       #%$=-)*&=&*)-=$%#                        ",
"                       +@&$*.)-!-).*$&@+                        ",
"                        $@%&$%*'*%$&%@$                         ",
"                          #@%&=,=&%@#                           ",
"                          +#%-;>;-%#+                           ",
"                            +#*=*#+                             ",
"                              %&%                               ",
"                              #$#                               ",
"                              +@+                               ",
"                               .                                ",
"                                                                "};
