/* XPM */
static char * mimp_frame_xpm[] = {
"128 128 10 1",
" 	c None",
".	c #FBF3D8",
"+	c #B59320",
"@	c #F4DA86",
"#	c #4C483A",
"$	c #FFC400",
"%	c #C07EC3",
"&	c #E4B8E6",
"*	c #A134A6",
"=	c #671A6A",
"...............................................................................................................................+",
"@.............................................................................................................................++",
"@@############################################################################################################################++",
"@@#                                                                                                                          #++",
"@@#                                                                                                                          #++",
"@@#                                                                                                                          #++",
"@@#                                                                                                                          #++",
"@@#                                                                                                                          #++",
"@@#                                                                                                                          #++",
"@@#                                                                                                                          #++",
"@@#                                                                                                                          #++",
"@@#                                                                                                                          #++",
"@@#                                                                                                                          #++",
"@@#                                                                                                                          #++",
"@@#                                                                                                                          #++",
"@@#                                                                                                                          #++",
"@@#                                                                                                                          #++",
"@@#                                                                                                                          #++",
"@@#                                                                                                                          #++",
"@@#                                                                                                                          #++",
"@@#                                                                                                                          #++",
"@@#                                                                                                                          #++",
"@@#                                                                                                                          #++",
"@@#                                                                                                                          #++",
"@@#                                                                                                                          #++",
"@@#                                                                                                                          #++",
"@@#                                                                                                                          #++",
"@@#                                                                                                                          #++",
"@@#                                                                                                                          #++",
"@@#                                                                                                                          #++",
"@@#                                                                                                                          #++",
"@@#                                                                                                                          #++",
"@@#                                                                                                                          #++",
"@@#                                                                                                                          #++",
"@@#                                                                                                                          #++",
"@@#                                                                                                                          #++",
"@@#                                                                                                                          #++",
"@@#                                                                                                                          #++",
"@@#                                                                                                                          #++",
"@@#                                                                                                                          #++",
"@@#                                                                                                                          #++",
"@@#                                                                                                                          #++",
"@@#                                                                                                                          #++",
"@@#                                                                                                                          #++",
"@@#                                                                                                                          #++",
"@@#                                                                                                                          #++",
"@@#                                                                                                                          #++",
"@@#                                                                                                                          #++",
"@@#                                                                                                                          #++",
"@@#                                                                                                                          #++",
"@@#                                                                                                                          #++",
"@@#                                                                                                                          #++",
"@@#                                                                                                                          #++",
"@@#                                                                                                                          #++",
"@@#                                                                                                                          #++",
"@@#                                                                                                                          #++",
"@@#                                                                                                                          #++",
"@@#                                                                                                                          #++",
"@@#                                                                                                                          #++",
"@@#                                                                                                                          #++",
"@@#                                                                                                                          #++",
"@@#                                                                                                                          #++",
"@@#                                                                                                                          #++",
"@@#                                                                                                                          #++",
"@@#                                                                                                                          #++",
"@@#                                                                                                                          #++",
"@@#                                                                                                                          #++",
"@@#                                                                                                                          #++",
"@@#                                                                                                                          #++",
"@@#                                                                                                                          #++",
"@@#                                                                                                                          #++",
"@@#                                                                                                                          #++",
"@@#                                                                                                                          #++",
"@@#                                                                                                                          #++",
"@@#                                                                                                                          #++",
"@@#                                                                                                                          #++",
"@@#                                                                                                                          #++",
"@@#                                                                                                                          #++",
"@@#                                                                                                                          #++",
"@@#                                                                                                                          #++",
"@@#                                                                                                                          #++",
"@@#                                                                                                                          #++",
"@@#                                                                                                                          #++",
"@@#                                                                                                                          #++",
"@@#                                                                                                                          #++",
"@@#                                                                                                                          #++",
"@@#                                                                                                                          #++",
"@@#                                                                                                                          #++",
"@@#                                                                                                                          #++",
"@@#                                                                                                                          #++",
"@@#                                                                                                                          #++",
"@@#                                                                                                                          #++",
"@@#                                                                                                                          #++",
"@@#                                                                                                                          #++",
"@@#                                                                                                                          #++",
"@@#                                                                                                                          #++",
"@@#                                                                                                                          #++",
"@@#                                                                                                                          #++",
"@@#                                                                                                                          #++",
"@@#                                                                                                                          #++",
"@@#                                                                                                                          #++",
"@@#                                                                                                                          #++",
"@@#                                                                                                                          #++",
"@@#                                                                                                                          #++",
"@@#                                                                                                                          #++",
"@@#                                                                                                                          #++",
"@@#                                                                                                                          #++",
"@@#                                                                                                                          #++",
"@@#                                                                                                                          #++",
"@@#                                                                                                                          #++",
"@@#                                                                                                                          #++",
"@@#                                                                                                                          #++",
"@@#                                                                                                                          #++",
"@@#                                                                                                                          #++",
"@@#                                                                                                                          #++",
"@@#                                                                                                                          #++",
"@@#                                                                                                                          #++",
"@@#                                                                                                                          #++",
"@@#                                                                                                                          #++",
"@@#                                                                                                                          #++",
"@@#                                                                                                                          #++",
"@@#                                                                                                                          #++",
"@@#                                                           ..$.                                                           #++",
"@@#                                                          .$%%$+                                                          #++",
"@@#                                                         @$%&**$+                                                         #++",
"@@##########################################################@$%**=$+##########################################################++",
"@@$$$$$$$$$$$$$$$$$$$$$$$$$$$$$$$$$$$$$$$$$$$$$$$$$$$@$$$@$@@$$*=$$++$++$$+$$$+$$$$$$$$$$$$$$$$$$$$$$$$$$$$$$$$$$$$$$$$$$$$$$$++",
"@$$$$$$$$$$$$$$$$$$$$$$$$$$$$$$$$$$$$$$$$$$$$$$$$$$$$$$$$$$$$$$$$$$$$$$$$$$$$$$$$$$$$$$$$$$$$$$$$$$$$$$$$$$$$$$$$$$$$$$$$$$$$$$+"};
