/* XPM */
static char * minimap_floor_xpm[] = {
"8 8 2 1",
" 	c #B8B6A0",
".	c #F7F3C4",
"  ....  ",
" ...... ",
"........",
"........",
"........",
"........",
" ...... ",
"  ....  "};
