/* XPM */
static char * minimap_gd_xpm[] = {
"8 8 5 1",
" 	c #84C27E",
".	c #FFF200",
"+	c #A8E61D",
"@	c #00661D",
"#	c #22B14C",
" ...... ",
"+ .... @",
"++ .. @@",
"+++  @@@",
"+++  @@@",
"++ ## @@",
"+ #### @",
" @@@@@@ "};
