/* XPM */
static char * minimap_wall_xpm[] = {
"8 8 6 1",
" 	c #472B4B",
".	c #9C5BA6",
"+	c #C076CB",
"@	c #38213B",
"#	c #AB3CBC",
"$	c #5F3765",
" ...... ",
"+ .... @",
"++    @@",
"++ ## @@",
"++ ## @@",
"++    @@",
"+ $$$$ @",
" $$$$$$ "};
