/* XPM */
static char * player_xpm[] = {
"8 8 8 1",
" 	c None",
".	c #351F01",
"+	c #F6E2E2",
"@	c #E27676",
"#	c #BC1B1B",
"$	c #981616",
"%	c #B54545",
"&	c #5F0F0F",
"   ..   ",
"  .++.  ",
" .@+#$. ",
".@+%$#&.",
".@+$$#&.",
" .%##&. ",
"  .&&.  ",
"   ..   "};
