/* XPM */
static char * red_key_xpm[] = {
"16 16 6 1",
" 	c None",
".	c #61102A",
"+	c #990030",
"@	c #ED1C24",
"#	c #FF5938",
"$	c #FF9E36",
"       ...      ",
"      +@#$.     ",
"     +@++.$.    ",
"    +@+   .$.   ",
"    +@+   .#.   ",
"    +@+   .$.   ",
"     +@+..#.    ",
"      +@#$.     ",
"       +$.      ",
"       +#.      ",
"       +@.      ",
"      +##.      ",
"      +.$.      ",
"     +@##.      ",
"      +.@.      ",
"        .       "};
