/* XPM */
static char * tex_magic_rod_xpm[] = {
"64 64 63 1",
" 	c None",
".	c #36003D",
"+	c #6D0087",
"@	c #8500A5",
"#	c #5E0074",
"$	c #440054",
"%	c #2F003A",
"&	c #9400B8",
"*	c #C400F4",
"=	c #A500CC",
"-	c #B200DD",
";	c #2F0035",
">	c #4C005E",
",	c #D00DFF",
"'	c #520065",
")	c #2F0031",
"!	c #262826",
"~	c #440053",
"{	c #605B63",
"]	c #84009C",
"^	c #5E006C",
"/	c #7D5291",
"(	c #44004F",
"_	c #262825",
":	c #393939",
"<	c #36003E",
"[	c #686868",
"}	c #2C262F",
"|	c #6C0077",
"1	c #323232",
"2	c #7C787E",
"3	c #360036",
"4	c #454545",
"5	c #4F4D63",
"6	c #808097",
"7	c #6D6B82",
"8	c #8B8B8B",
"9	c #9D9D9D",
"0	c #515151",
"a	c #3B3C3B",
"b	c #2D2D2D",
"c	c #0F0F0F",
"d	c #565656",
"e	c #9494AC",
"f	c #59576D",
"g	c #1B1B1B",
"h	c #272727",
"i	c #636178",
"j	c #939393",
"k	c #040404",
"l	c #76768D",
"m	c #828282",
"n	c #322E43",
"o	c #212121",
"p	c #797979",
"q	c #626262",
"r	c #707070",
"s	c #1B0F08",
"t	c #4A2513",
"u	c #3D1F0E",
"v	c #26140B",
"w	c #311B0E",
"x	c #454844",
"                                                                ",
"                                                                ",
"                                                                ",
"                                                                ",
"                                                                ",
"                                                                ",
"                                                                ",
"                                                                ",
"                                                                ",
"                                                                ",
"                                                                ",
"                                                                ",
"                                                                ",
"                                                                ",
"                                                                ",
"                                                                ",
"                                                                ",
"                                                                ",
"                                                                ",
"                                                                ",
"                                                                ",
"                                                                ",
"                                                                ",
"                                                                ",
"                                                                ",
"                                                                ",
"                                                                ",
"                                                                ",
"                                                                ",
"                                                                ",
"                                                                ",
"                                                                ",
"                                                                ",
"                                                                ",
"                                                                ",
"                                                                ",
"                                                                ",
"                                                                ",
"                            .+@+#$%                             ",
"                           $#&*&=-$                             ",
"                           ;+@>,>+')                            ",
"                           !~{]&^/(_                            ",
"                           :<[}|1231                            ",
"                           45678980a                            ",
"                           bc_def_gh                            ",
"                           :7f[cij[:                            ",
"                           kblm485nc                            ",
"                            hbf8dn                              ",
"                             :b[dn                              ",
"                             c:81o                              ",
"                             1pdqn                              ",
"                             c:r:o                              ",
"                              stu                               ",
"                              vuw                               ",
"                              vuv                               ",
"                              vuv                               ",
"                              vtv                               ",
"                              1da                               ",
"                              alx                               ",
"                              _0_                               ",
"                                                                ",
"                                                                ",
"                                                                ",
"                                                                "};
