/* XPM */
static char * green_key_xpm[] = {
"16 16 4 1",
" 	c None",
".	c #006B1E",
"+	c #22B14C",
"@	c #A8E61D",
"                ",
"       ...      ",
"      .+++.     ",
"     .+@@@+.    ",
"    .+.@+@.+.   ",
"   .+@@+.+@@+.  ",
"   .+@+...+@+.  ",
"   .+@@+.+@@+.  ",
"    .++...++.   ",
"     ...+...    ",
"       .+.      ",
"       .+.      ",
"     . .+.      ",
"    .+.++.      ",
"    .++++.      ",
"     ....       "};
